<svg xmlns="http://www.w3.org/2000/svg" viewBox="0 0 367.5 416.4"><defs><style>.cls-1{fill:#fefefe;}.cls-2{fill:#9c5097;}.cls-3{fill:#662b7a;}.cls-4{fill:#813888;}.cls-5{fill:#885886;}</style></defs><g id="Layer_2" data-name="Layer 2"><g id="Layer_1-2" data-name="Layer 1"><g id="VRGJDs.tif"><path class="cls-1" d="M361.9,314.5h0l1.1-1.6.2-.4.8-1.3a.8.8,0,0,0,.4-.9l.3-.9h0c.9-4.5,2.7-8.9,2.7-13.4.2-58.8,0-117.7.1-176.5.1-12-5.1-20.7-15.3-26.6L334.5,82.6c-8.6-5-17.1-10-25.7-14.8-6.3-3.6-12.8-6.8-19.2-10.1l-23.2-13-1.7-2.1h.1l-16-9.2-13.2-5.7c-1.4-1.5-2.4-3.5-4-4.5-11.3-6.6-22.4-13.5-34-19.5s-20.9-5.1-30.8,2h0L124.9,30.4l-3,1.6a8.4,8.4,0,0,0-2.7.8c-9.5,5.5-18.9,11.2-28.3,16.8l-.9.8-1.9,1.3-30,16.7L41.3,77.8A38.1,38.1,0,0,0,37,81.5l-.9.2-1.2.8a33.6,33.6,0,0,0-4.2,2.2c-8.2,5.4-16.4,11-24.5,16.5C1.3,106.8,0,113.5,0,120.7V295.8a33.7,33.7,0,0,0,.2,5.5c1.5,8.5,4.5,16.2,13,20.3L28,330.5c17.6,10.4,35.1,21,52.8,31.2,15.1,8.8,30.6,17,45.8,25.7,9.9,5.6,19.6,11.5,29.4,17.2,2.7,1.6,5.8,2.5,8,4.5,9.9,9.1,25.1,9,34.6,3.4,4.2-2.5,8.2-5.6,12.5-8,7.8-4.5,15.9-8.5,23.8-12.9q23.7-13.7,47.3-27.4c17.8-10.4,35.4-20.9,53.1-31.4,6.8-4.1,13.5-8.6,20.2-12.8l5-3.9Z"/><path class="cls-2" d="M235.6,27.7l13.2,5.7c4.3,4.7,8.3,10.2,16,9.2h-.1l1.7,2.1,23.2,13c.6.6,1,1.4,1.7,1.7,9.2,3.8,15.3,12.6,25.3,15.5,5.1,1.5,9.5,5.7,14.3,8.5,8.1,4.7,16.6,8.9,24.5,13.9,5.2,3.3,8,8.8,9,15q-22.5,12.9-45.1,25.7l-21.8,12.6c-3.6-4.6-7-9.3-10.8-13.7-1.1-1.4-2.9-2.1-4.4-3.1h0c-.5-1.6-1.4-3.2-1.6-4.9-.7-3.9-2.8-5-6.4-3.9v-.2l-1.1-.9h-.2v-5.5l-7-.8-.6-1.4v-.9l-.7.5-2.2-.7-1-1.5-.2.3c-.8-3.1-12.5-11.4-15.4-10.8-.3,0-.6.3-.9.4l-8.4-4c-1.5-1.3-2.9-3.1-4.6-3.8-5.2-1.9-10.5-3.9-15.9-4.9a140.4,140.4,0,0,0-51.7-.4c-8,1.4-15.7,4.1-23.5,6.5-1.1.3-1.8,2.2-2.7,3.4h0c-6.9,1.4-12.8,4.5-17.2,10.1a1.4,1.4,0,0,1-.9.1c-3.1-1.7-4.1-.8-4.6,4.3h-.2c-3.4-.3-5.5.9-5.2,4.7h.1c-3-.4-4.4.9-4.2,4h.1c-5.2.9-7.7,4.4-9,9.1h0l-3.9,5.1h0c-.8.1-2.1,0-2.3.4-2.6,5.6-8.9,9.4-8.7,16.6h0c-4.2.7-4.9,3.1-3.1,6.7v1.1c-.9.3-2.5.4-2.6.9-2.3,7.5-5.3,15-6.3,22.6a197,197,0,0,0-1,30.7c.3,7.9,2.2,15.6,3.6,23.4.4,2.2,1.7,4.3,2,6.5,1.6,10.3,7.2,18.5,13.1,26.6a14.1,14.1,0,0,1-2.3,1.8L14,317.1c-3.8,1.2-5.6-1-7.3-3.9-4.8-8.1-5.3-17.1-5.3-25.9q-.3-82.2,0-164.4c0-4.2,1.5-8.4,2.4-12.5s1.6-6.1,2.4-9.2c8.1-5.5,16.3-11.1,24.5-16.5a33.6,33.6,0,0,1,4.2-2.2l1.2-.8.9-.2L57.4,70.6c.5-.3.5-1.5.7-2.2l30-16.7L90,50.4l.9-.8c1.4-.2,3.1,0,4.3-.6,8.5-4.7,16.9-9.6,25.3-14.5.7-.4.9-1.7,1.4-2.5l3-1.6c1.5,0,3.4.6,4.5,0,5.2-3.3,10.1-7.1,15.3-10.4,6.9-4.3,14.1-8.2,21.1-12.4.6-.3.7-1.3,1-2h0c4.1-1.1,8.3-2,12.4-3.2,6.7-1.9,12.7,0,18.3,3.5s9.7,6.6,14.8,9.6,9.2,5.3,14,7.7C229.3,24.9,232.5,26.3,235.6,27.7Z"/><path class="cls-3" d="M14,317.1l71.7-42.2a14.1,14.1,0,0,0,2.3-1.8l1.9,1.1c3,3.7,6.1,7.4,9.2,11,10.2,11.9,21.9,22.3,36,28.9A143,143,0,0,0,170.2,325c28.5,5.4,55.6-.1,80-15.6,11.1-7,20.8-16.6,30.7-25.4,2.3-2,3.1-5.8,4.6-8.8.7.3,1.7.4,2.2.9s1.9,3.1,3.3,4l57.7,34.6a69,69,0,0,1,6.8,5.3c-6.7,4.2-13.4,8.7-20.2,12.8-17.7,10.5-35.3,21-53.1,31.4q-23.6,13.8-47.3,27.4c-7.9,4.4-16,8.4-23.8,12.9-4.3,2.4-8.3,5.5-12.5,8-9.5,5.6-24.7,5.7-34.6-3.4-2.2-2-5.3-2.9-8-4.5-9.8-5.7-19.5-11.6-29.4-17.2-15.2-8.7-30.7-16.9-45.8-25.7C63.1,351.5,45.6,340.9,28,330.5l-14.8-8.9C13.5,320.1,13.7,318.6,14,317.1Z"/><path class="cls-4" d="M355.5,320a69,69,0,0,0-6.8-5.3L291,280.1c-1.4-.9-2.1-2.8-3.3-4s-1.5-.6-2.2-.9c-2.4-1.6-4.7-3.3-7.2-4.8-7.3-4.4-14.6-8.8-22-13.1s-12.1-6.6-18.2-9.9a50.4,50.4,0,0,1-6.3-2.8c-8.5-5-16.9-10-25.3-15.2-6.6-4.2-13.1-8.6-19.6-12.9.3-.5.6-1.3,1.1-1.6l29.1-16.7,26.6-15c2.5-1.1,5-2.2,7.4-3.5,6.3-3.5,12.6-6.9,18.8-10.6,1.8-1.1,3.1-2.9,4.6-4.4l19.1-11.3,3.9-2.8L319.3,138q22.6-12.7,45.1-25.7c.4,4.6,1,9.3,1,13.9q.2,82.9.1,165.9c0,5.8-.5,11.5-.8,17.2h0l-.3.9a.8.8,0,0,1-.4.9l-.8,1.3-.2.4-1.1,1.6h0a10.7,10.7,0,0,0-1.4,1.6Zm-53.9-75.8.9,1.1v2c4.8,5.2,14.6,3.7,18.3-3.3l-3.2-.7v-4.9l2.3-.2c7.4-.3,7.4-.3,7.4-7.9a12.1,12.1,0,0,1,0-1.9c.5-3.1-.9-4.3-3.8-4.1-.3-.5-.6-1.5-.9-1.5-5.6-.4-4.4-4-3.7-7.4.3-1.5.7-3.1.9-3.9l6.6-3c.3-2.8.7-5.5,1-8.2l2.7-5.6c-2.5-.1-3.5-.4-4.4-.3-5.1.7-8-.3-7.4-6.6.4-4.1-2.7-5.2-7.8-3.4l-3.9.3c-3.3-.6-4.2,0-4,4.5s-1.1,5.9-5.2,5.2c-1.3-.1-2.8.3-4-.1s-2.6-1.4-2.8-2.4c-2-9.8-3.3-10.9-13-9.4-.7.1-1.3,1.2-2,1.8s-.7.4-.7.6c-.8,5.5-2.1,10.6-9.2,10.7l-.2.4c0,4.2.1,8.3.1,12.5,1.6.6,3.2,1.7,4.9,1.7s4.1,1.4,4.1,4.3.3,6.6-3,8.7l-5.9.6V238c3.1,2.4,9,2.2,7.9,8.5-.1.7,1.1,2.1,1.8,2.2,4,.6,8.1,1.6,12,1s4.5-3.8,2.3-6.5v-1.9l7.9-2.9h1.8l2.1,3.8v1.1l-.3.3.3.6Z"/><path class="cls-5" d="M364.7,309.3c.3-5.7.8-11.4.8-17.2q0-83-.1-165.9c0-4.6-.6-9.3-1-13.9-1-6.2-3.8-11.7-9-15-7.9-5-16.4-9.2-24.5-13.9-4.8-2.8-9.2-7-14.3-8.5-10-2.9-16.1-11.7-25.3-15.5-.7-.3-1.1-1.1-1.7-1.7,6.4,3.3,12.9,6.5,19.2,10.1,8.6,4.8,17.1,9.8,25.7,14.8l17.7,10.2c10.2,5.9,15.4,14.6,15.3,26.6-.1,58.8.1,117.7-.1,176.5C367.4,300.4,365.6,304.8,364.7,309.3Z"/><path class="cls-5" d="M14,317.1c-.3,1.5-.5,3-.8,4.5-8.5-4.1-11.5-11.8-13-20.3a33.7,33.7,0,0,1-.2-5.5V120.7c0-7.2,1.3-13.9,6.2-19.5-.8,3.1-1.7,6.1-2.4,9.2s-2.4,8.3-2.4,12.5q-.3,82.2,0,164.4c0,8.8.5,17.8,5.3,25.9C8.4,316.1,10.2,318.3,14,317.1Z"/><path class="cls-5" d="M235.6,27.7c-3.1-1.4-6.3-2.8-9.3-4.4-4.8-2.4-9.5-4.9-14-7.7S202.5,9.1,197.5,6,185.9.6,179.2,2.5c-4.1,1.2-8.3,2.1-12.4,3.2,9.9-7.1,20.4-7.3,30.8-2s22.7,12.9,34,19.5C233.2,24.2,234.2,26.2,235.6,27.7Z"/><path class="cls-5" d="M166.8,5.6c-.3.7-.4,1.7-1,2-7,4.2-14.2,8.1-21.1,12.4-5.2,3.3-10.1,7.1-15.3,10.4-1.1.6-3,0-4.5,0Z"/><path class="cls-5" d="M121.9,32c-.5.8-.7,2.1-1.4,2.5-8.4,4.9-16.8,9.8-25.3,14.5-1.2.6-2.9.4-4.3.6,9.4-5.6,18.8-11.3,28.3-16.8A8.4,8.4,0,0,1,121.9,32Z"/><path class="cls-5" d="M58.1,68.4c-.2.7-.2,1.9-.7,2.2L37,81.5a38.1,38.1,0,0,1,4.3-3.7Z"/><path class="cls-5" d="M264.8,42.6c-7.7,1-11.7-4.5-16-9.2Z"/><path class="cls-5" d="M266.4,44.7l-1.7-2.1Z"/><path class="cls-5" d="M90,50.4l-1.9,1.3Z"/><path class="cls-5" d="M363.2,312.4l.8-1.3Z"/><path class="cls-5" d="M361.9,314.4l1.1-1.6Z"/><path class="cls-5" d="M360.5,316.1a10.7,10.7,0,0,1,1.4-1.6A10.7,10.7,0,0,0,360.5,316.1Z"/><path class="cls-5" d="M36.1,81.7l-1.2.8Z"/><path class="cls-5" d="M364.4,310.2l.3-.9Z"/><path class="cls-1" d="M238.1,247.4c6.1,3.3,12.2,6.5,18.2,9.9s14.7,8.7,22,13.1c2.5,1.5,4.8,3.2,7.2,4.8-1.5,3-2.3,6.8-4.6,8.8-9.9,8.8-19.6,18.4-30.7,25.4-24.4,15.5-51.5,21-80,15.6a143,143,0,0,1-35.1-10.9c-14.1-6.6-25.8-17-36-28.9-3.1-3.6-6.2-7.3-9.2-11l-1.8-4c-4.1-9-9.1-17.7-12.2-27.1-6-18.4-7.5-37.4-3.5-56.5,1.7-8.2,4.5-16.1,6.8-24.2,0-.3-.1-.7-.1-1.1l3.1-6.7h0a25.1,25.1,0,0,0,3.1-3.5c2.7-4.5,5.3-9,7.9-13.5h0l3.9-5.1h0l9-9.1H106l4.2-4h-.1l5.2-4.7h.2l4.6-4.3a1.4,1.4,0,0,0,.9-.1l17.2-10.1h0c9.2-2.8,18.4-6.1,27.8-8.2,13.5-3,27.4-3.6,41-.7,10,2.2,19.8,5.4,29.6,8.1l8.4,4,16.3,10.4.2-.3,1,1.5,2.2.7.8.4.6,1.4,7,6.3h.2l1.1.9v.2c2.7,2.9,5.4,5.8,8,8.8h0c3.3,4.9,6.7,9.8,9.9,14.8.9,1.4.9,3.2,1.4,4.8l-19.1,11.3c-6.4,3.5-12.7,7.1-19.2,10.5l-10.5,5.3v-.2l-7.6-10.2H237l-1.1-1,.2-.2c-4.7-7.3-11.7-11.9-19.2-15.7h0l-15-5.8-18.9-.3c-.6-.2-1.2-.7-1.7-.7-17.5,3.2-32.5,10.4-41.6,26.6l-.8,1-1.8,2.1c-.4,1-.9,2-1.3,3.1s-1,.3-1.2.6c-8.8,13-9.1,42.7-.5,55.7.5.9,1.8,1.2,2.7,1.8,1,2.2,2,4.5,3.1,6.8,6.2,10,15.3,16.9,25.9,21.3,21.5,8.9,42,6.6,60.7-7.7C230.7,254.7,234.3,250.9,238.1,247.4Z"/><path class="cls-5" d="M79.2,162.4c-2.3,8.1-5.1,16-6.8,24.2-4,19.1-2.5,38.1,3.5,56.5,3.1,9.4,8.1,18.1,12.2,27.1l1.8,4L88,273.1c-5.9-8.1-11.5-16.3-13.1-26.6-.3-2.2-1.6-4.3-2-6.5-1.4-7.8-3.3-15.5-3.6-23.4a197,197,0,0,1,1-30.7c1-7.6,4-15.1,6.3-22.6C76.7,162.8,78.3,162.7,79.2,162.4Z"/><path class="cls-5" d="M236.6,99.5c-9.8-2.7-19.6-5.9-29.6-8.1-13.6-2.9-27.5-2.3-41,.7-9.4,2.1-18.6,5.4-27.8,8.2.9-1.2,1.6-3.1,2.7-3.4,7.8-2.4,15.5-5.1,23.5-6.5a140.4,140.4,0,0,1,51.7.4c5.4,1,10.7,3,15.9,4.9C233.7,96.4,235.1,98.2,236.6,99.5Z"/><path class="cls-5" d="M293.6,153.4c-.5-1.6-.5-3.4-1.4-4.8-3.2-5-6.6-9.9-9.9-14.8,1.5,1,3.3,1.7,4.4,3.1,3.8,4.4,7.2,9.1,10.8,13.7Z"/><path class="cls-5" d="M93.2,137.6c-2.6,4.5-5.2,9-7.9,13.5a25.1,25.1,0,0,1-3.1,3.5c-.2-7.2,6.1-11,8.7-16.6C91.1,137.6,92.4,137.7,93.2,137.6Z"/><path class="cls-5" d="M261.3,113.9,245,103.5c.3-.1.6-.4.9-.4C248.8,102.5,260.5,110.8,261.3,113.9Z"/><path class="cls-5" d="M138.2,100.4,121,110.5C125.4,104.9,131.3,101.8,138.2,100.4Z"/><path class="cls-5" d="M282.3,133.8c-2.6-3-5.3-5.9-8-8.8,3.6-1.1,5.7,0,6.4,3.9C280.9,130.6,281.8,132.2,282.3,133.8Z"/><path class="cls-5" d="M273.1,123.9l-7-6.3,7,.8Z"/><path class="cls-5" d="M106.1,123.5l-9,9.1C98.4,127.9,100.9,124.4,106.1,123.5Z"/><path class="cls-5" d="M82.2,154.6l-3.1,6.7C77.3,157.7,78,155.3,82.2,154.6Z"/><path class="cls-5" d="M120.1,110.6l-4.6,4.3C116,109.8,117,108.9,120.1,110.6Z"/><path class="cls-5" d="M115.3,115l-5.2,4.7C109.8,115.9,111.9,114.7,115.3,115Z"/><path class="cls-5" d="M97.1,132.5l-3.9,5.1Z"/><path class="cls-5" d="M110.2,119.6l-4.2,4C105.8,120.5,107.2,119.2,110.2,119.6Z"/><path class="cls-5" d="M262.5,115.1l-1-1.5Z"/><path class="cls-5" d="M274.4,124.8l-1.1-.9Z"/><path class="cls-5" d="M265.5,116.2l-.8-.4a1.8,1.8,0,0,1,.7-.5Z"/><path class="cls-2" d="M135.8,179.4c.4-1.1.9-2.1,1.3-3.1l1.8-2.1.8-1c1.7-1.3,3.9-2.2,5.2-3.9a52.8,52.8,0,0,1,22.5-17.1c5.1-1.9,10.4-3.3,15.6-4.9l18.9.3c4.3,3.9,9.1,6.3,15,5.8h0c1.5,2,2.6,4.2,4.5,5.8s5.4,3.4,8.1,5.2l6.6,4.7-.2.2,1.1,1h.1c.1,5.2,3.8,7.7,7.6,10.2v.2c-.3.9-.7,1.8-1.1,2.7l-26.6,15L188,214.9c-.5.3-.8,1.1-1.1,1.6a5.3,5.3,0,0,0-1.9.4c-10.4,6-20.9,12-31.2,18.2-4.8,2.8-9.3,6.1-13.9,9.2-1.1-2.3-2.1-4.6-3.1-6.8-2.2-7.5-5-14.9-6.3-22.6s-1.3-16.8,1.7-24.9C133.5,186.5,134.6,182.9,135.8,179.4Z"/><path class="cls-3" d="M139.9,244.3c4.6-3.1,9.1-6.4,13.9-9.2,10.3-6.2,20.8-12.2,31.2-18.2a5.3,5.3,0,0,1,1.9-.4c6.5,4.3,13,8.7,19.6,12.9,8.4,5.2,16.8,10.2,25.3,15.2a50.4,50.4,0,0,0,6.3,2.8c-3.8,3.5-7.4,7.3-11.6,10.5-18.7,14.3-39.2,16.6-60.7,7.7C155.2,261.2,146.1,254.3,139.9,244.3Z"/><path class="cls-1" d="M323.6,224.3c2.9-.2,4.3,1,3.8,4.1a12.1,12.1,0,0,0,0,1.9c0,7.6,0,7.6-7.4,7.9l-2.3.2v4.9c0,3.2-1.7,4.3-4.7,4.1s-5.7-.1-8.5-.1c-.1-1.7-.1-3.3-.2-5v-1.1c0-1.9,1-4.2-2.4-4.1s-8.8.1-13.4.1v9.1l-12.4,1.4a29.8,29.8,0,0,1-.3-3.3c.3-5.5-2.7-7-7.5-6.4h-2.5V223.8l5.9-.6c2.2,1.8,3.8,1.3,4-1.4.2-4.4,0-8.8,0-13.3h-10c0-4.2-.1-8.3-.1-12.5h10.3V185.6c11.8-.1,11.8-.1,12.3,9.4,0,.3.3.5.5.9h14.7c1.2-4.1,2.3-7.6,3.3-11.2l3.9-.3,6.3,2.1v9.7h5.8l5.3.4c-.2,1.5-.4,2.6-.5,3.7-.3,2.7-.7,5.4-1,8.2h-9.6v15.8Zm-35.1-3.8v4c4.8,0,9.1.1,13.4-.1.8-.1,1.6-1.3,2.4-2V208.3H288C288.2,212.7,288.4,216.6,288.5,220.5Z"/><path class="cls-5" d="M306.7,184.7c-1,3.6-2.1,7.1-3.3,11.2H288.7c-.2-.4-.5-.6-.5-.9-.5-9.5-.5-9.5-12.3-9.4-.1-.4-.1-.9-.2-1.3s1.3-1.7,2-1.8c9.7-1.5,11-.4,13,9.4.2,1,1.7,2,2.8,2.4s2.7,0,4,.1c4.1.7,5.4-1.1,5.2-5.2S303.4,184.1,306.7,184.7Z"/><path class="cls-5" d="M265.8,238h2.5c4.8-.6,7.8.9,7.5,6.4a29.8,29.8,0,0,0,.3,3.3l12.4-1.4,1.3-3.1c2.2,2.7,1.5,6-2.3,6.5s-8-.4-12-1c-.7-.1-1.9-1.5-1.8-2.2C274.8,240.2,268.9,240.4,265.8,238Z"/><path class="cls-5" d="M243.7,183.2c.4-.9.8-1.8,1.1-2.7l10.5-5.3c6.5-3.4,12.8-7,19.2-10.5-1.5,1.5-2.8,3.3-4.6,4.4-6.2,3.7-12.5,7.1-18.8,10.6C248.7,181,246.2,182.1,243.7,183.2Z"/><path class="cls-5" d="M323.6,224.3h-6.7V208.5h9.6l-6.6,3c-.2.8-.6,2.4-.9,3.9-.7,3.4-1.9,7,3.7,7.4C323,222.8,323.3,223.8,323.6,224.3Z"/><path class="cls-5" d="M327.5,200.3c.1-1.1.3-2.2.5-3.7l-5.3-.4h-5.8v-9.7l-6.3-2.1c5.1-1.8,8.2-.7,7.8,3.4-.6,6.3,2.3,7.3,7.4,6.6.9-.1,1.9.2,4.4.3Z"/><path class="cls-5" d="M304.5,247.3c2.8,0,5.6-.1,8.5.1s4.7-.9,4.7-4.1l3.2.7c-3.7,7-13.5,8.5-18.3,3.3Z"/><path class="cls-3" d="M304.5,247.3h-1.9a13.4,13.4,0,0,1-.1-2l-.9-1.1h0v-2c2-2.7.5-3.6-2.1-3.8h-1.8c-2.7.6-6.8-2.3-7.9,2.9v1.9l-1.3,3.1v-9.1c4.6,0,9,.1,13.4-.1s2.4,2.2,2.4,4.1v1.1C304.4,244,304.4,245.6,304.5,247.3Z"/><path class="cls-3" d="M265.7,208.5h10c0,4.5.2,8.9,0,13.3-.2,2.7-1.8,3.2-4,1.4,3.3-2.1,3-5.4,3-8.7s-1.2-4.1-4.1-4.3S267.3,209.1,265.7,208.5Z"/><path class="cls-3" d="M275.7,184.3c.1.4.1.9.2,1.3V196H265.6l.2-.4c7.1-.1,8.4-5.2,9.2-10.7C275,184.7,275.5,184.5,275.7,184.3Z"/><path class="cls-5" d="M289.8,241.3c1.1-5.2,5.2-2.3,7.9-2.9Z"/><path class="cls-5" d="M299.5,238.4c2.6.2,4.1,1.1,2.1,3.8Z"/><path class="cls-5" d="M301.6,243.3v.9l-.3-.6Z"/><path class="cls-5" d="M301.6,244.2l.9,1.1Z"/><path class="cls-5" d="M135.8,179.4c-1.2,3.5-2.3,7.1-3.6,10.6-3,8.1-3.1,16.6-1.7,24.9s4.1,15.1,6.3,22.6c-.9-.6-2.2-.9-2.7-1.8-8.6-13-8.3-42.7.5-55.7C134.8,179.7,135.4,179.6,135.8,179.4Z"/><path class="cls-5" d="M183,147.3c-5.2,1.6-10.5,3-15.6,4.9a52.8,52.8,0,0,0-22.5,17.1c-1.3,1.7-3.5,2.6-5.2,3.9,9.1-16.2,24.1-23.4,41.6-26.6C181.8,146.6,182.4,147.1,183,147.3Z"/><path class="cls-5" d="M236.1,169l-6.6-4.7c-2.7-1.8-5.7-3.2-8.1-5.2s-3-3.8-4.5-5.8C224.4,157.1,231.4,161.7,236.1,169Z"/><path class="cls-5" d="M216.9,153.4c-5.9.5-10.7-1.9-15-5.8Z"/><path class="cls-5" d="M244.7,180.3c-3.8-2.5-7.5-5-7.6-10.2Z"/><path class="cls-5" d="M138.9,174.2l-1.8,2.1Z"/><path class="cls-5" d="M237,170.2l-1.1-1Z"/><path class="cls-5" d="M288.5,220.5c-.1-3.9-.3-7.8-.5-12.2h16.3v14.1l-1.7-.3c.3-12.1.3-12.1-11.8-11.7-.7.4-1.8.7-1.9,1.2C288.7,214.5,288.6,217.5,288.5,220.5Z"/><path class="cls-3" d="M302.6,222.1l1.7.3c-.8.7-1.6,1.9-2.4,2-4.3.2-8.6.1-13.4.1v-4c.1-3,.2-6,.4-8.9.1-.5,1.2-.8,1.9-1.2h-.2l-.8,1c0,3-.2,5.9,0,8.9.1,1,1.2,2.7,1.8,2.7A101.9,101.9,0,0,0,302.6,222.1Z"/><path class="cls-5" d="M304.3,242.3v0Z"/><path class="cls-4" d="M302.6,222.1a101.9,101.9,0,0,1-11,.9c-.6,0-1.7-1.7-1.8-2.7-.2-3,0-5.9,0-8.9l.8-1h.2C302.9,210,302.9,210,302.6,222.1Z"/><path class="cls-5" d="M290.6,210.4l-.8,1Z"/></g></g></g></svg>