<svg xmlns="http://www.w3.org/2000/svg" viewBox="0 0 378.3 428.3"><defs><style>.cls-1{fill:#1773b7;}.cls-2{fill:#fdfefe;}.cls-3{fill:#36a9db;}</style></defs><g id="Layer_2" data-name="Layer 2"><g id="Layer_1-2" data-name="Layer 1"><g id="oHB4Mm.tif"><path class="cls-1" d="M0,0H378.3c-1.3,14-2.5,27.8-3.7,41.5-1.6,18.3-3.1,36.5-4.9,54.8-1.1,11.5-2.9,23-3.9,34.5-1.3,14.4-1.9,28.9-3.1,43.3q-4.3,50.3-8.9,100.4c-2.3,25.8-4.7,51.7-6.9,77.5-.9,9.9-1.9,19.9-2.6,29.8-.2,3.5-1.5,5.1-5,6-14.5,3.5-29,7.1-43.3,11.1-16.6,4.6-33.1,9.8-49.6,14.5-11.7,3.4-23.4,6.4-35.1,9.6-5.6,1.6-11.1,3.5-16.8,4.7a25.3,25.3,0,0,1-10.6.1c-18-4.7-35.9-9.7-53.8-14.8-10.1-2.9-20.1-6.3-30.2-9.2-6.9-1.9-13.9-3.2-20.8-5-13.6-3.6-27-7.6-40.6-11.1-3.4-.9-4.4-2.3-4.7-5.7-2.7-31.3-5.6-62.6-8.4-93.9L15.2,172.3c-2.3-26.3-4.7-52.6-7-78.9C5.5,63.1,2.7,32.8,0,2.5ZM187.9,296.9a21.8,21.8,0,0,1-4.4-.4c-14.7-3.9-29.5-7.8-44.2-12-1.4-.4-3.1-2.8-3.3-4.4-1.2-10.4-2.2-20.8-2.8-31.2-.3-3.6-1.2-5-5-4.8-7.3.2-14.6,0-21.9,0H85.2c.4,4.3.7,8,1,11.6q2.5,30.4,5.3,61.1c.2,3,1.2,5.1,4.7,5.9,12.4,2.8,24.7,5.8,37,9.2,9.4,2.5,18.5,6,27.9,8.6S179,344.8,188,347a56.7,56.7,0,0,1,1,5.7v37.5c0,1.7.2,3.5.3,5.8l5.4-1.1,71.4-19.8c14.1-3.8,28.1-7.7,42.3-11.4,4.6-1.2,6.4-3.4,6.6-8.5.5-12.1,1.9-24.1,3-36.2,1.5-17.5,3.2-34.9,4.8-52.4,1.1-12.6,2.1-25.1,3.2-37.7l4.8-52.4c1.1-12.4,2-24.8,3.1-37.2l4.8-51.4c1.3-13.2,2.6-26.4,3.7-39.6.5-5.5.8-11,1.2-16.6H188.9V78.3H79.7a49.3,49.3,0,0,0-5.4.5h-3l-.9.6c1.1,15.5,2.2,31,3.3,46.7H95.2l93.7.2v47.9H84c-1.9,0-3.7.7-5.6,1.1l3.1,46.4c1.8.4,3.6,1.2,5.4,1.2H188.6a29.1,29.1,0,0,1,.4,3.1v67.4A12.4,12.4,0,0,1,187.9,296.9Z"/><path class="cls-2" d="M188.9,126.3l-93.7-.2H73.7c-1.1-15.7-2.2-31.2-3.3-46.7l.9-.6h3c1.7.1,3.3.4,5,.4H307.5a24.6,24.6,0,0,1,0,2.8c-2.2,24.3-4.5,48.6-6.6,72.9s-4.2,47.3-6.3,71c-2.6,29.9-5.3,59.8-7.9,89.7-.3,3.3-1.1,5-4.6,5.9-18.6,4.9-37.1,10.2-55.6,15.3L188,347c-9-2.2-18-4.1-26.9-6.5s-18.5-6.1-27.9-8.6c-12.3-3.4-24.6-6.4-37-9.2-3.5-.8-4.5-2.9-4.7-5.9q-2.7-30.6-5.3-61.1c-.3-3.6-.6-7.3-1-11.6h21.1c7.3,0,14.6.2,21.9,0,3.8-.2,4.7,1.2,5,4.8.6,10.4,1.6,20.8,2.8,31.2.2,1.6,1.9,4,3.3,4.4,14.7,4.2,29.5,8.1,44.2,12a21.8,21.8,0,0,0,4.4.4c.6.3,1.3.9,1.7.8,16.5-4.3,33.1-8.6,49.5-13.3,1.5-.4,3.1-3,3.3-4.7,1.2-10.5,2-21,3-31.5.7-8.6,1.4-17.1,2.1-25.9l-3.4-.2-84.3-.2-78.3-.2c-1-15.5-2.1-31-3.1-46.4l7.5-.2q81.2-.2,162.4-.1c4.4,0,5.6-1.3,5.7-5.6.1-7,1.1-13.9,1.5-20.9s.8-14.7,1.2-22.2Z"/><path class="cls-3" d="M188,347l38.5-10.3c18.5-5.1,37-10.4,55.6-15.3,3.5-.9,4.3-2.6,4.6-5.9,2.6-29.9,5.3-59.8,7.9-89.7,2.1-23.7,4.1-47.3,6.3-71s4.4-48.6,6.6-72.9a24.6,24.6,0,0,0,0-2.8H79.3c-1.7,0-3.3-.3-5-.4a49.3,49.3,0,0,1,5.4-.5H188.9V31.7H343.6c-.4,5.6-.7,11.1-1.2,16.6-1.1,13.2-2.4,26.4-3.7,39.6l-4.8,51.4c-1.1,12.4-2,24.8-3.1,37.2L326,228.9c-1.1,12.6-2.1,25.1-3.2,37.7-1.6,17.5-3.3,34.9-4.8,52.4-1.1,12.1-2.5,24.1-3,36.2-.2,5.1-2,7.3-6.6,8.5-14.2,3.7-28.2,7.6-42.3,11.4l-71.4,19.8-5.4,1.1c-.1-2.3-.3-4.1-.3-5.8V352.7A56.7,56.7,0,0,0,188,347Z"/><path class="cls-3" d="M81.5,221.7l78.3.2,84.3.2,3.4.2c-.7,8.8-1.4,17.3-2.1,25.9-1,10.5-1.8,21-3,31.5-.2,1.7-1.8,4.3-3.3,4.7-16.4,4.7-33,9-49.5,13.3-.4.1-1.1-.5-1.7-.8a12.4,12.4,0,0,0,1.1-3.6V225.9a29.1,29.1,0,0,0-.4-3.1H86.9C85.1,222.9,83.3,222.1,81.5,221.7Z"/><path class="cls-3" d="M188.9,126.3h67.8c-.4,7.5-.7,14.9-1.2,22.2s-1.4,13.9-1.5,20.9c-.1,4.3-1.3,5.6-5.7,5.6q-81.2-.1-162.4.1l-7.5.2c1.9-.4,3.7-1.1,5.6-1.1H188.9Z"/><path class="cls-3" d="M71.3,78.8l-.9.6Z"/></g></g></g></svg>