<svg xmlns="http://www.w3.org/2000/svg" viewBox="0 0 562.1 210"><defs><style>.cls-1,.cls-2{fill:#087d9c;}.cls-1{fill-rule:evenodd;}</style></defs><g id="Layer_2" data-name="Layer 2"><g id="Layer_1-2" data-name="Layer 1"><path class="cls-1" d="M42.4,63.6c-1.1,0-1.4-.6-.8-1.4l5.7-7.4a4.2,4.2,0,0,1,3.1-1.3h97.7c1,0,1.3.8.8,1.6l-4.7,7.1a4.2,4.2,0,0,1-2.7,1.7Z"/><path class="cls-1" d="M1.1,88.8c-1.1,0-1.4-.6-.8-1.4L6,80a4.1,4.1,0,0,1,3-1.4H133.8a1.3,1.3,0,0,1,1.4,1.7L133,86.8a2.5,2.5,0,0,1-2.5,1.7Z"/><path class="cls-1" d="M67.3,113.9c-1.1,0-1.3-.8-.8-1.6l3.8-6.8a3.7,3.7,0,0,1,2.8-1.7h54.7c1.1,0,1.6.8,1.6,1.9l-.5,6.6a2,2,0,0,1-1.9,1.9Z"/><path class="cls-1" d="M351.4,58.7c-17.3,4.3-29,7.6-46,12-4.1,1.1-4.4,1.4-7.9-2.7s-7.1-7.7-12.9-10.4c-17.2-8.5-33.9-6.1-49.5,4.1-18.6,12-28.2,29.8-27.9,52s15.3,39.9,36.9,42.9c18.6,2.5,34.2-4.1,46.5-18,2.5-3,4.7-6.3,7.4-10.2H245.2c-5.7,0-7.1-3.5-5.2-8.2,3.6-8.5,10.1-22.7,14-29.8a7.4,7.4,0,0,1,6.8-4.4h99.6c-.5,7.4-.5,14.8-1.6,22.2a115.6,115.6,0,0,1-22.5,53.6c-19.7,26-45.4,42.2-78,46.6-26.8,3.5-51.7-1.7-73.6-18.1C164.5,175,153,154.7,150,129.5c-3.6-29.8,5.2-56.6,23.2-80.1C192.7,23.9,218.4,7.8,249.9,2c25.7-4.6,50.3-1.6,72.5,13.4C336.9,25,347.3,38.1,354.1,54,355.8,56.5,354.7,57.8,351.4,58.7Z"/><path class="cls-2" d="M442,210c-24.9-.6-47.7-7.7-66.8-24.1a85.4,85.4,0,0,1-29.6-52.8c-4.9-30.9,3.6-58.3,22.2-82.7,20-26.2,44.1-39.9,76.6-45.7,27.9-4.9,54.2-2.1,78,14,21.6,14.8,35,34.8,38.6,61,4.7,37-6,67.1-31.5,92.8-18,18.3-40.2,29.8-65.6,35C456.5,208.9,449.1,209.2,442,210ZM507.1,99.4c-.3-3.5-.3-6.3-.8-9-5-27.1-29.9-42.4-55.9-36.4s-41.8,21.9-47.8,47.6c-5,21.4,5.4,43,25.1,51.7,15.1,6.6,30.1,5.8,44.6-1.6,21.7-11.2,33.4-28.7,34.8-52.3Z"/></g></g></svg>