<svg xmlns="http://www.w3.org/2000/svg" viewBox="0 0 892.5 1002.7"><defs><style>.cls-1{fill:#d44799;}</style></defs><g id="Layer_2" data-name="Layer 2"><g id="Layer_1-2" data-name="Layer 1"><path class="cls-1" d="M531.1,885.4a91.3,91.3,0,0,1,2.1,47.8c-8.9,39.8-46.2,71.6-92.7,69.4-40.5-2-76.1-34-82.5-75.5-1.8-11.7-1.7-23.3,1.4-34.7,1-3.9-.3-5.3-3.2-6.9q-55.9-32.1-111.7-64.4c-28.8-16.6-57.7-33.2-86.4-50-2.9-1.6-4.4-1.5-6.8.7-26.2,24.1-56.8,31.2-90.3,20S7.9,756.5,1.5,722.1c-8.1-43.4,19-86.8,61.8-100,4.3-1.3,5.2-3.2,5.2-7.3q-.1-113.2,0-226.5c0-4.3-1-6.2-5.4-7.6C22.5,368.1-3,330.2.3,287.7c3.4-44.2,41-80,85.3-81.5,25.4-.8,47.4,7.5,65.8,25,2.2,2.1,3.7,2.4,6.4.9q99.6-57.7,199.4-115.2c2.7-1.6,2.9-3.1,2.2-5.9C348,60.3,377.8,13.1,428.1,2s98.8,23.6,106.2,73.3a90.1,90.1,0,0,1-1.6,36.2c-.7,2.9,0,4.1,2.4,5.5L734.5,232.1c2.7,1.6,4.2,1.2,6.4-.9,25.8-23.8,55.9-31.2,89.2-20.6s53.7,34.4,60.7,68.7c8.9,43.9-18.6,88.5-62.1,101.6-3.7,1.1-4.9,2.6-4.9,6.4q.2,114,0,228c0,3.7.9,5.4,4.7,6.6,40.2,12.2,66,49.6,63.5,91.6-2.7,45.3-41.6,82.3-86.9,83.1-25.9.4-47.9-8.5-66.2-26.7-1.9-1.9-3.3-3-6.3-1.3Q633,826.4,533.3,883.8ZM715.7,686.1c4.1-15.4,11.2-28.9,22-40.1,2.6-2.7,2.6-4.6.8-7.7L481.2,192.8q-5.1-8.9-10.2-17.4a96.3,96.3,0,0,1-49.7.1c-.8,1.4-1.5,2.4-2,3.4L156.2,634.4c-4.6,8-4.6,8,1.6,15.2a37.6,37.6,0,0,1,2.5,3.1c7.9,9.9,13,21.2,16.3,33.4Zm-.5,42.5H181.9a10.1,10.1,0,0,0-3,.1c-.9.2-2.6.9-2.6,1.4a5.5,5.5,0,0,0,1.4,3.2c.7.9,2,1.3,3,1.9L377.4,848.8c3.4,2,5.2,1.7,8-1,34.3-32.1,89.3-31.7,122.6,1.2,3.5,3.4,5.7,3.4,9.7,1.1q97.5-56.6,195.4-112.8C717.1,735,718.1,732.9,715.2,728.6ZM175.4,270.9c3.4,12.8,4.6,25.4,2.3,38q-10,54.6-62.7,72.1c-2.9.9-4,2-4,5.1q.1,115.2.2,230.5c0,1.5,1.2,3,1.8,4.5,1.2-1.1,2.9-1.9,3.7-3.3,9.4-16.1,18.6-32.2,28-48.4L380.9,160.2c1.2-2.1,1.7-4.7,2.5-7-2.5.6-5.3.7-7.4,1.9q-65.7,37.7-131.2,75.6Zm541.5.1-18.2-10.6L514.4,154.1c-1.5-.8-3.5-.8-5.3-1.1.4,1.7.4,3.7,1.3,5.2Q638.7,380.5,767,602.8c3.1,5.4,6.1,10.7,9.3,16,.7,1,2.1,1.5,3.2,2.2.6-1.2,1.2-2.4,1.7-3.7a6.7,6.7,0,0,0,0-2q0-113.8.1-227.9c0-4.1-1.3-5.6-5.1-6.8-28.4-9.1-47.6-28-57.7-55.8C712.1,307.2,711.9,289.2,716.9,271Z"/></g></g></svg>