<svg xmlns="http://www.w3.org/2000/svg" viewBox="0 0 153.9 174.3"><defs><style>.cls-1{fill:#ea3025;}.cls-2{fill:#c53528;}.cls-3{fill:#c6452b;}.cls-4{fill:#ed4725;}.cls-5{fill:#f0ebe7;}.cls-6{fill:#fdf9f6;}.cls-7{fill:#e06b54;}</style></defs><g id="Layer_2" data-name="Layer 2"><g id="Layer_1-2" data-name="Layer 1"><g id="XqI74m.tif"><path class="cls-1" d="M12.8,143.9l-.2-2.1a30.7,30.7,0,0,0,.6-5.3c-.6-9-1.3-18-2-27.1S9.9,93.3,9.1,85.3C7.9,73.7,6.4,62.1,5.3,50.4S3.4,26.5,2.4,14.5C2,10.3,1.6,6.1,1.2,1.3H138.3c5.2,0,10.4.4,15.6.7,0,1.4,0,2.9-.1,4.4s-1.6,2.3-1.7,3.5c-.8,8.5-1.4,17-2.1,25.5-.5,5.9-1.4,11.8-1.7,17.6s-.3,12.7-.4,19c-1.4,16.9-2.8,33.7-4.3,50.6-.9,10.4-1.9,20.8-2.8,31.2-.2,2.7-1,4-3.9,4.8-13.1,3.4-26.2,7.1-39.4,10.7-3.3,1-6.8,1.8-10.1,3-6.7,2.7-13.3,2.6-20.3.3-11.2-3.6-22.6-6.6-33.9-9.8-2.4-1-4.9-2.2-7.4-3-8-2.4-11.9-2.9-11.6-12.7C14.2,146,13.3,145,12.8,143.9ZM77.1,92c.4,9.6.7,19.3,1.1,28.9-6.3-1.4-12.5-2.8-18.8-4-3-.6-4.4-2-4.4-5.3s-.7-7.4-1-11.1H34.7c.8,9,1.8,17.7,2.4,26.4.2,3.1,1.3,4.2,4.2,5,12,3.1,23.9,6.6,35.9,9.9,0,4.7-.1,9.3,0,14s.5,5.6,5.7,4.2c12.9-3.5,25.9-6.7,38.8-10.4,3.3-.9,7.3-1.4,7.4-6.6s.6-10.2.9-15.3c.7-9.2,1.4-18.4,2.2-27.6,1.2-13.3,2.5-26.6,3.8-39.9.9-8.8,1.9-17.7,2.7-26.5.5-6.7.8-13.4,1.2-20.4-20.4,0-40-.1-59.6.1-1,0-2.9,2-3,3.1-.3,5.2-.1,10.3-.1,15.5l-10.1.4H65.2c-11.1-.1-22.2-.2-33.3-.1-1.2,0-2.3,1.8-3.5,2.8s-.1,1.4-.1,2.1c1.3,15.5,2.6,31,4.1,46.5.3,2.5,1.9,4.8,2.9,7.2a18.2,18.2,0,0,0,4.5,1Z"/><path class="cls-2" d="M153.9,2c-5.2-.3-10.4-.7-15.6-.7H1.2c.4,4.8.8,9,1.2,13.2,1,12,1.8,24,2.9,35.9S7.9,73.7,9.1,85.3c.8,8,1.4,16.1,2.1,24.1s1.4,18.1,2,27.1a30.7,30.7,0,0,1-.6,5.3C9.4,107.4,6.3,73.1,3.2,38.7,2.4,29.8,1.5,20.9.8,11.9.4,8.2.3,4.4,0,.3L3.2,0Q76,0,148.8.2C150.5.2,152.2,1.3,153.9,2Z"/><path class="cls-3" d="M147.9,72c.1-6.3,0-12.6.4-19s1.2-11.7,1.7-17.6c.7-8.5,1.3-17,2.1-25.5.1-1.2,1.1-2.3,1.7-3.5C151.8,28.3,149.9,50.1,147.9,72Z"/><path class="cls-2" d="M12.8,143.9c.5,1.1,1.4,2.1,1.4,3.2-.3,9.8,3.6,10.3,11.6,12.7,2.5.8,5,2,7.4,3-5.4-1.4-10.9-2.6-16.1-4.4a6.7,6.7,0,0,1-3.5-4.2C12.9,150.8,13,147.3,12.8,143.9Z"/><path class="cls-4" d="M77.2,32c0-5.2-.2-10.3.1-15.5.1-1.1,2-3.1,3-3.1,19.6-.2,39.2-.1,59.6-.1-.4,7-.7,13.7-1.2,20.4-.8,8.8-1.8,17.7-2.7,26.5-1.3,13.3-2.6,26.6-3.8,39.9-.8,9.2-1.5,18.4-2.2,27.6-.3,5.1-.9,10.2-.9,15.3s-4.1,5.7-7.4,6.6c-12.9,3.7-25.9,6.9-38.8,10.4-5.2,1.4-5.7,1.2-5.7-4.2s0-9.3,0-14l8.1-2.7h.5l.3-.3,2-.5,2-.7,2.2-.5.9-.3,1.9-.4,1.2-.5h-.1l11.8-3.3,2.3-.6,1.5-.4c2.4-.3,4.9-.1,5.2-3.8,1-12.8,2.2-25.6,3.3-38.4.3-3.9.5-7.8.7-11.7l.9-6.6c-1.9-.4-3.7-1.2-5.5-1.2H77.2c-.1-5.6-.1-11.3-.1-16.9v-.7q21.6.1,43.2.6c3,0,4.6-.8,4.8-4.1s1.1-9.2,1.5-13.8c.1-.9-1-1.9-1.6-2.8a1,1,0,0,0-.9.1H77Z"/><path class="cls-5" d="M121.9,71.3l-.9,6.6c-.4-2.3,1.3-5.6-3.3-5.6l-45.2-.2H58.2a18.9,18.9,0,0,0,7.4,1c12,0,11.9,0,11.6,12-.1,3-1,4-4,4-10-.2-20-.1-29.9-.1a47.3,47.3,0,0,1-5.2-.4V90H94.7a50.6,50.6,0,0,1,5.3.6l-22.9.3H35.3c-1-2.4-2.6-4.7-2.9-7.2-1.5-15.5-2.8-31-4.1-46.5,0-.7.1-1.4.1-2.1s2.3-2.8,3.5-2.8c11.1-.1,22.2,0,33.3.1v1.7l1.9-1.7L77.2,32l-.2.4-1.2.8c.5,1.9,1.2,3.3,1.3,4.8.1,4.4,0,8.7,0,13l-13.3.3c-4.5.1-9,.5-13.5.8.3,5,.6,10,1,15s2,4.3,5,4.3ZM32.6,33.8l-.6-.2v.3Z"/><path class="cls-5" d="M85.3,139.1l-8.1,2.7c-12-3.3-23.9-6.8-35.9-9.9-2.9-.8-4-1.9-4.2-5-.6-8.7-1.6-17.4-2.4-26.4H54c.3,3.7,1,7.4,1,11.1s1.4,4.7,4.4,5.3c6.3,1.2,12.5,2.6,18.8,4a.9.9,0,0,1-.3.7v17.5Z"/><path class="cls-4" d="M77.1,90.9l22.9-.3c-.3,6.4-.9,12.8-.7,19.1s-2.1,7-6.7,7.8a67.7,67.7,0,0,0-9.5,2.7l-2.8.8-2.4.6a.9.9,0,0,0,.3-.7c-.4-9.6-.7-19.3-1.1-28.9Z"/><path class="cls-2" d="M77.1,90.9V92H39.8a18.2,18.2,0,0,1-4.5-1Z"/><path class="cls-6" d="M67.1,32.4l-1.9,1.7V32.4Z"/><path class="cls-4" d="M28.4,35.1c0,.7-.1,1.4-.1,2.1S28.4,35.8,28.4,35.1Z"/><path class="cls-6" d="M77.9,121.6l2.4-.6,2.8-.8a67.7,67.7,0,0,1,9.5-2.7c4.6-.8,6.8-2.7,6.7-7.8s.4-12.7.7-19.1a50.6,50.6,0,0,0-5.3-.6H38.2V88.6a47.3,47.3,0,0,0,5.2.4c9.9,0,19.9-.1,29.9.1,3,0,3.9-1,4-4,.3-12,.4-12-11.6-12a18.9,18.9,0,0,1-7.4-1H72.5l45.2.2c4.6,0,2.9,3.3,3.3,5.6-.2,3.9-.4,7.8-.7,11.7-1.1,12.8-2.3,25.6-3.3,38.4-.3,3.7-2.8,3.5-5.2,3.8l-1.5.4-2.3.6c-4.9-2.6-8.1,1.2-11.8,3.3h.1l-1.2.5-1.9.4c-.4,0-.7,0-.9.3l-2.2.5-2,.7-2,.5-.8.2H77.9Z"/><path class="cls-6" d="M77.1,51c0-4.3.1-8.6,0-13-.1-1.5-.8-2.9-1.3-4.8l1.2-.8h47.1a6,6,0,0,0,.8.8l-.3,6c-.8,4-1.7,7.9-2.6,11.9Z"/><path class="cls-1" d="M77.1,53.1c0,5.6,0,11.3.1,16.9-6.7.1-13.4.3-20.1-.1-1.7-.1-3.3-1.8-4.9-2.8v-14Z"/><path class="cls-7" d="M124.6,39.2l.3-6a1.4,1.4,0,0,0,.1-.9c.6.9,1.7,1.9,1.6,2.8-.4,4.6-1.3,9.2-1.5,13.8s-1.8,4.1-4.8,4.1q-21.6-.4-43.2-.6l-26.8-.3c4.5-.3,9-.7,13.5-.8L77.1,51H122c.7-.9,1.8-1.7,1.9-2.7C124.3,45.4,124.4,42.3,124.6,39.2Z"/><path class="cls-3" d="M52.2,67.1c1.6,1,3.2,2.7,4.9,2.8,6.7.4,13.4.2,20.1.1h39.2c1.8,0,3.6.8,5.5,1.2H56.3c-3,0-5.8.1-5-4.3h.9Z"/><path class="cls-2" d="M52.2,67.1h-.9c-.4-5-.7-10-1-15l26.8.3v.7H52.2Z"/><path class="cls-5" d="M96.2,136.1c3.7-2.1,6.9-5.9,11.8-3.3Z"/><path class="cls-5" d="M88.1,138.4l2-.7Z"/><path class="cls-5" d="M122,32.3h0Z"/><path class="cls-5" d="M114,32.4h0Z"/><path class="cls-5" d="M110.3,132.2l1.5-.4Z"/><path class="cls-5" d="M125,32.3a1.4,1.4,0,0,1-.1.9,6,6,0,0,1-.8-.8A1,1,0,0,1,125,32.3Z"/><path class="cls-5" d="M95.1,136.5l1.2-.5Z"/><path class="cls-5" d="M92.3,137.2c.2-.3.5-.3.9-.3Z"/><path class="cls-5" d="M85.3,139.1l.8-.2-.3.3Z"/><path class="cls-6" d="M32.6,33.8h-.5v-.3Z"/><path class="cls-5" d="M83.1,120.2l-2.8.8Z"/><path class="cls-5" d="M124.6,39.2c-.2,3.1-.3,6.2-.7,9.2-.1,1-1.2,1.8-1.9,2.7C122.9,47.1,123.8,43.2,124.6,39.2Z"/></g></g></g></svg>