<svg xmlns="http://www.w3.org/2000/svg" viewBox="0 0 474 474"><defs><style>.cls-1{fill:#f0db4d;}.cls-2{fill:#353430;}</style></defs><g id="Layer_2" data-name="Layer 2"><g id="Layer_1-2" data-name="Layer 1"><path class="cls-1" d="M474,474H0V0H474ZM282.1,390.1l1.3,2.6c11.1,19.8,27.5,32.9,49.4,38.8,19.6,5.2,39.1,5.8,58.8.1,25-7.2,41.7-25.7,44.3-49.6,3.1-27.8-8.9-53.1-31.5-65.1-12.2-6.4-25.2-11.6-37.7-17.6-7-3.4-14.2-6.7-20.4-11.3-9.3-6.8-9.7-21.2-1.8-29.1s26.1-7.2,33.9.9c3.6,3.9,7.3,7.7,11.3,11.8l33.5-21.5c-8.5-15-19.4-26.6-35.5-31.2-12.1-3.4-24.5-5.4-37.7-3.2s-23.6,4.9-33.4,12.7c-11.7,9.2-18.8,21.1-20.6,36-3,25.2,3.9,47,26,60.9,15.4,9.8,32.5,17,48.8,25.6q9.6,5.1,18.9,11.1a7.2,7.2,0,0,1,2.8,5.4,59.4,59.4,0,0,1-2,13.3c-3,9.8-11.5,13-20.2,14.6-18.6,3.4-34.1-2.3-46-17.2-2.2-2.8-4.2-5.7-6.4-8.7ZM257.9,217.7H213.5V364c0,3.3.1,6.7-.2,10-2,16.9-9.8,23.8-28.8,21.3-8.1-1-13.2-6.5-17.6-12.8-2-2.9-3.8-6-5.9-9.3-11.5,7-22.6,13.6-33.6,20.5-.9.6-1.5,3.4-.9,4.4,9.5,16.7,22.5,29.1,41.7,34.3s36.9,4.5,54.4-2c15.1-5.6,26-17.5,30.6-33.2a119,119,0,0,0,4.5-31.3c.4-47.3.2-94.5.2-141.8Z"/><path class="cls-2" d="M282.1,390.1l35.8-20.7c2.2,3,4.2,5.9,6.4,8.7,11.9,14.9,27.4,20.6,46,17.2,8.7-1.6,17.2-4.8,20.2-14.6a59.4,59.4,0,0,0,2-13.3,7.2,7.2,0,0,0-2.8-5.4q-9.3-6-18.9-11.1c-16.3-8.6-33.4-15.8-48.8-25.6-22.1-13.9-29-35.7-26-60.9,1.8-14.9,8.9-26.8,20.6-36,9.8-7.8,21-10.7,33.4-12.7s25.6-.2,37.7,3.2c16.1,4.6,27,16.2,35.5,31.2l-33.5,21.5c-4-4.1-7.7-7.9-11.3-11.8-7.8-8.1-26-8.8-33.9-.9s-7.5,22.3,1.8,29.1c6.2,4.6,13.4,7.9,20.4,11.3,12.5,6,25.5,11.2,37.7,17.6,22.6,12,34.6,37.3,31.5,65.1-2.6,23.9-19.3,42.4-44.3,49.6-19.7,5.7-39.2,5.1-58.8-.1-21.9-5.9-38.3-19-49.4-38.8Z"/><path class="cls-2" d="M257.9,217.7v6.4c0,47.3.2,94.5-.2,141.8a119,119,0,0,1-4.5,31.3c-4.6,15.7-15.5,27.6-30.6,33.2-17.5,6.5-36,7-54.4,2s-32.2-17.6-41.7-34.3c-.6-1,0-3.8.9-4.4,11-6.9,22.1-13.5,33.6-20.5,2.1,3.3,3.9,6.4,5.9,9.3,4.4,6.3,9.5,11.8,17.6,12.8,19,2.5,26.8-4.4,28.8-21.3.3-3.3.2-6.7.2-10V217.7Z"/></g></g></svg>