<svg xmlns="http://www.w3.org/2000/svg" viewBox="0 0 2778.6 1344.9"><defs><style>.cls-1{fill:#9b9195;}.cls-2{fill:#939598;}.cls-3{fill:#fefefe;}</style></defs><g id="Layer_2" data-name="Layer 2"><g id="Layer_1-2" data-name="Layer 1"><path class="cls-1" d="M2778.6,911.8l-9.9,5.1-61.6,30.7a22,22,0,0,1-3.6,1.3.8.8,0,0,1-.4-.4h0l15.1-31.2H2257.7c-3,58.7-26.2,107.7-71.4,145.5-36,29.9-77.8,44.7-124.6,44.9-106.3.3-191.9-85.2-195.9-184.3-15.9,17.1-31.1,33.7-47.5,51.5,1.3-12.9,2.4-24.4,3.6-36.6l-557.7,212.4c-1.3,110.1-91.7,194.5-196.5,194.2-100.4-.2-191-78.4-195.7-190.4l-64.3,31.9-.9-.6,16-32.1H94.8A48.4,48.4,0,0,1,83.5,1177c-21.9,25.5-56,23.5-75.1-4.3S7.7,1114,30.3,1104c5.4-2.4,11.8-2.8,17.8-4.2,1.9-.5,4.2-.9,5.7-2.2L339.9,845.8l12-10.6-3-1.8L78.4,709.9a6.8,6.8,0,0,0-5.6.3C48,726.8,22.7,715.6,9,696.4s-10.4-46.2,10.7-62.7c16.8-13.3,34.9-14,53.1-2.5,1.4.8,3.8,1.3,5.2.7L350.7,508.5l1.6-.9-40.1-35.5Q183.5,358.3,54.7,244.4c-1.6-1.4-3.9-2.8-5.9-2.8-21-.8-40.3-15.5-46.5-35.6-5.6-18.3,2.2-38.3,19.8-50.8C55,131.7,88.2,159.1,94.4,184c.3,1.5.7,2.9,1.2,4.7l726.9,2.1c-5.3-10.9-10.4-21.2-16.2-33l65.4,32.9c1.1-9.6,1.6-19.1,3.5-28.2C891.3,84.6,936.8,31.3,1013.2,9s143.2-2.6,198.3,54.3c31,32,47.6,71.3,51.6,115.7.2,2.2,1,4.4.6,6.4-1.4,7.7,2.6,10.4,9.1,12.9q235.4,90,470.5,180.4l73.4,28.3,5.2,1.7c-1.1-12-2.2-23.5-3.4-36.4l47.3,51.7c4.6-56,27.2-102.4,69.6-138.1s92-50.7,147.1-45.1c96,9.9,172.2,90.1,175.4,189.3h460.3l-16.3-32.8,76.6,38.3-76.6,38.3c5.7-11.4,10.8-21.8,16.2-32.7h-460c-6.7,82.1-45.4,143.4-122.3,175s-147.3,15.1-209.9-38.5l-28.4,67.7-9.1-35.6-74.1,63.7c24.7,21.3,49.1,42.3,74.1,64l9.2-35.6,28.3,67.7c62.7-53.5,133.2-70,210.2-38.3s115.2,92.8,122,175.1h460.2L2702,873.6Zm-542.3.3c0-97.1-77.7-174.5-174.6-174.9s-174.8,78.3-174.9,174.6,78.4,174.6,174.9,174.6A174.3,174.3,0,0,0,2236.3,912.1Zm.1-476.4c-.3-96.8-78.2-174.7-174.8-174.7s-175.1,78.5-174.8,175.1,78.9,174.3,175,174S2235.6,533.2,2236.4,435.7ZM1882,833.5c9.1-20.8,21.4-38.9,36.6-55.7l-71-18,34-14.2-75.4-65.1L1688.2,782l145.3,38.4c-2.5-12-4.7-23.2-7-34.4l1-.4Zm36.6-264a207,207,0,0,1-36.7-55.7L1826,562.7c2.6-12.5,4.9-23.9,7.4-35.9l-145.1,37.9,117.9,101.8,75.3-64.8-33.9-14.3Zm-40.8-65.8a202.3,202.3,0,0,1-12.2-67.1l-74.6,7.2,27.2-24.9-4-1.6L1375.9,249.1,1284.3,214l-2-.7c-.1.2-.1.4-.2.6l1.3,1.1a5.2,5.2,0,0,0,1,1.1Q1479.6,384.5,1674.6,553c3,2.7,5.6,2.9,9.3,2,39.3-10.4,78.7-20.6,118.1-30.9l28.8-7.7-24.2-27.7Zm-12.2,407.1a200,200,0,0,1,12.3-67.2l-71.4,14.8,23.9-27.1c-.7-.6-.9-1-1.2-1q-73.7-19.6-147.4-38.9a7.9,7.9,0,0,0-6.1,1.5q-44,37.5-87.5,75.2L1333.7,1087l-50.1,43.5-.9.9h1.7l4.2-1.5,523.8-199.5,5.6-2.3-27-24.9Zm-67.5-237.4a23.8,23.8,0,0,1-2.2-1.8L1678.2,570.2a8,8,0,0,0-6.1-1.1q-146.8,38.1-293.6,76.5l-103.5,27,4.9,1.5,46.7,12.3,343.9,91c3.9,1,6.4.5,9.3-2.1q35.7-30.9,71.6-61.6Zm-533.9-9L1666,559.5,1264,212.4c-11,80.1-51.2,138-126.6,166.6s-144.2,11.8-204.9-40.4c-9.1,22.3-18.1,44.5-27.6,68-3.4-12.6-6.4-23.8-9.6-35.5L727.8,518.6l115.9,53V535.8l45.5,56.4c39.2-84.1,127.2-128.4,215.8-111.9C1188.4,495.9,1259.1,567.8,1264.2,664.4ZM1666,787.1,1264.2,681c-3.9,94.1-74.8,169.7-162.4,184.6-40.4,6.9-79.6,2-116.8-15.6-43.4-20.5-75-53-95.8-96.9l-45.6,56.1V773.6L728,825.9c56,49.7,111.5,98.8,167.5,148.3l9.6-35.5c9.5,23.6,18.5,45.9,27.5,68.4,64.4-60.4,151.3-65.5,212.4-38,70.4,31.6,108.9,87.1,118.9,164ZM1242.9,672.8c0-96.4-78.3-174.6-174.9-174.6a174.5,174.5,0,0,0-.1,349C1164.5,847.3,1242.8,769.2,1242.9,672.8Zm0-476c.3-96.3-78-174.9-174.4-175.2s-174.6,77.8-175,174.5S971.2,370.6,1068,370.8,1242.6,293,1242.9,196.8Zm0,953.6c.8-96.4-76.9-175-173.6-175.8s-175,76.6-175.8,173.9c-.6,94.8,75.2,173.4,170.6,175C1162.9,1325.1,1242,1247.8,1242.9,1150.4Zm-353.6-81.6a204.5,204.5,0,0,1,35.9-53.9L854.4,996l34.9-14.2c-1.8-1.1-3-1.5-3.8-2.3L720.3,833.2c-2.5-2.2-4.3-1.9-7-.7q-67,30.6-134.2,60.8l-36.9,16.8L843.7,1048v-35.8C859,1031.1,874,1049.7,889.3,1068.8Zm35.9-738.4a201.6,201.6,0,0,1-35.9-53.8l-45.7,56.2V297.2L542.5,433.4l1.4.9,170.2,78.1c3.1,1.4,4.6.1,6.5-1.6L885.1,365.9a28.1,28.1,0,0,0,2.9-3l-33.6-13.7Zm-53.1,813.3a205,205,0,0,1,13.1-65.1l-73.9,2.5,28.6-23-6.1-3L533.5,917.8a8.5,8.5,0,0,0-8.2-.1L88,1115.8l-3.2,1.6c3.3,7.2,6.9,13.6,9.1,20.4,1.1,3.8,2.4,4.6,5.9,4.6,58.5,0,117,.2,175.4.3l522.3,1h25.1c-5.5-11-10.6-21.4-16.3-33Zm0-476.4a205,205,0,0,1,13.1-65.1l-73.9,2.5c10.2-8.3,19.3-15.5,28.4-23a12.8,12.8,0,0,0-2.1-1.2c-38.5-17.7-77-35.2-115.4-53-3-1.4-4.4-.2-6.4,1.6L592.2,637.9l-32.5,28.6H822.2l-15.9-32.3Zm13.1-400.6c-8.2-21.2-12-42.5-13.1-65.1l-64.7,32.3h.2c.2-.8.3-1.6.5-2.4a8.8,8.8,0,0,1,.7-2.3c4.4-9.1,9-18.1,13.7-27.5L96.8,199.3,84.9,224.2,134,246.6,525.1,425.8a8.9,8.9,0,0,0,8.4.1L835.2,289.3l4.5-2.2L811.3,264Zm0,476.4A205,205,0,0,1,872.1,678l-66,32.8c5.8-11.6,10.9-21.9,16.5-33H560.9l1,1.2L716.7,816.1c2.3,2,3.9,1.6,6.2.6,16.7-7.7,33.5-15.2,50.3-22.8l66.6-30.3-28.5-23.3ZM708.4,521.5l-3.2-1.6q-86.6-39.6-173-79.1c-1.7-.8-4.5-.5-6.3.3L424.2,487l-52.4,23.7,173.9,154ZM691.5,830.9l17.1-7.9L545.7,678.8,371.7,832l3.8,1.9q74.7,34.2,149.4,68.4a9.7,9.7,0,0,0,8.8.1Q612.5,866.6,691.5,830.9ZM531.8,676.7H96.2L84.8,700.9a14.3,14.3,0,0,0,1.8.9l270.8,124c2.9,1.3,4.6.7,6.9-1.3q81.4-72,163.1-143.7Zm-435.1-11h434l-1.9-1.8L364.7,518.5c-2.6-2.4-4.7-2.6-7.8-1.2L100.2,633.5l-15.3,7.1C88.8,649,92.5,656.8,96.7,665.7ZM516.4,433.6c-2.1-1-3.5-1.8-5-2.4Q299.8,334.3,88.3,237.3c-8.5-3.9-15.9-7.4-23.5,1.6l3.4,3.1L359.4,499.9c2.7,2.4,4.7,2.8,7.9,1.3C396.1,488,425,475,453.9,461.9Zm0,476.5-7.5-3.5q-70.6-32.2-141.2-64.7c-3.8-1.8-6-1.2-9,1.4Q212.7,972,66.6,1100.5c-.9.8-2.4,1-4,1.8,4.3,2.5,7,3.6,9.2,5.4s4.7,1.7,7.5.4L469,931.6Z"/><path class="cls-1" d="M2703.1,948.5a.8.8,0,0,0,.4.4l-.7.6Z"/><path class="cls-2" d="M2061.7,737.2c96.9.4,174.6,77.8,174.6,174.9a174.3,174.3,0,0,1-174.6,174.3c-96.5,0-174.9-78.3-174.9-174.6S1965.4,736.9,2061.7,737.2Z"/><path class="cls-2" d="M2061.6,261c96.6,0,174.5,77.9,174.8,174.7s-78.7,174.1-174.6,174.4-174.7-78-175-174S1964.9,261,2061.6,261Z"/><path class="cls-3" d="M1283.6,1130.5a3.9,3.9,0,0,1,.8,1h-1.7Z"/><path class="cls-3" d="M1284.3,214l-.9,1-1.3-1.1c.1-.2.1-.4.2-.6Z"/><path class="cls-2" d="M1068,498.2c96.6,0,174.9,78.2,174.9,174.6s-78.4,174.5-175,174.4a174.5,174.5,0,0,1,.1-349Z"/><path class="cls-2" d="M1068.5,21.6c96.4.3,174.7,78.9,174.4,175.2s-78.8,174.3-174.9,174S893.1,292.4,893.5,196.1,972.2,21.3,1068.5,21.6Z"/><path class="cls-2" d="M1069.3,974.6c96.7.8,174.4,79.4,173.6,175.8s-80,174.7-178.8,173.1c-95.4-1.6-171.2-80.2-170.6-175C894.3,1051.2,972.4,973.9,1069.3,974.6Z"/><path class="cls-3" d="M808.1,231.3c-.2.8-.3,1.6-.5,2.4h0C807.8,232.9,807.9,232.1,808.1,231.3Z"/><path class="cls-1" d="M807.6,233.7h0Z"/><path class="cls-1" d="M807.4,233.7h0Z"/></g></g></svg>