<svg xmlns="http://www.w3.org/2000/svg" viewBox="0 0 351.6 377.5"><defs><style>.cls-1{fill:#fffefe;}.cls-2{fill:#ce2134;}</style></defs><g id="Layer_2" data-name="Layer 2"><g id="Layer_1-2" data-name="Layer 1"><path class="cls-1" d="M285.5,288H246.1c-2.5,0-2.7-2.1-3.3-3.7-6.3-15.7-12.6-31.4-18.7-47.2-1.2-3-2.5-4.3-6-4.3q-42.6.3-85.3,0c-3.3,0-4.5,1.3-5.6,4.1-6.1,15.5-12.4,30.8-18.3,46.3-1.5,3.9-3.6,5-7.6,4.9-11.6-.2-23.2-.1-35.6-.1L175.8,41.1ZM143.6,198.8h64.3c-10.7-25.9-21.1-50.8-31.5-75.8h-1.3Z"/><path class="cls-2" d="M207.9,198.8H143.6L175.1,123h1.3C186.8,148,197.2,172.9,207.9,198.8Z"/><path class="cls-2" d="M246.1,288h39.4L175.8,41.1,65.7,288c12.4,0,24-.1,35.6.1,4,.1,6.1-1,7.6-4.9,5.9-15.5,12.2-30.8,18.3-46.3,1.1-2.8,2.3-4.1,5.6-4.1q42.8.3,85.3,0c3.5,0,4.8,1.3,6,4.3,6.1,15.8,12.4,31.5,18.7,47.2C243.4,285.9,243.6,288,246.1,288ZM347.3,60.3c3.6,1.3,4.7,3,4.2,6.8C347.2,103,343.1,139,338.9,175l-11.4,99c-.5,4.8-1.6,9.6-1.5,14.3s-2.9,8.1-7.3,10.5L188.9,370.6c-3.9,2.2-7.8,4.1-11.6,6.4-1.9,1.1-3.2,0-4.6-.7q-70.5-39.2-141-78.3c-3.7-2-5.4-4.2-5.9-8.6-6-53.3-12.3-106.6-18.5-159.9C5.2,111.4,3.1,93.2,1.2,75.1.9,72.4-.6,70,.2,67.4c-.8-3.5.7-5.6,3.7-6.7l25.4-9.1Q100.6,26.3,171.8.7a11.6,11.6,0,0,1,8.6.2Q263.8,30.8,347.3,60.3Z"/></g></g></svg>