<svg xmlns="http://www.w3.org/2000/svg" viewBox="0 0 473.6 248.2"><defs><style>.cls-1{fill:#fcfcfd;}.cls-2{fill:#526695;}.cls-3{fill:#8894bd;}.cls-4{fill:#6d7eac;}.cls-5{fill:#26242a;}.cls-6{fill:#595c74;}.cls-7{fill:#586385;}.cls-8{fill:#484751;}.cls-9{fill:#c8cadf;}.cls-10{fill:#b2b6d2;}.cls-11{fill:#627cbb;}.cls-12{fill:#e9ebef;}.cls-13{fill:#121315;}</style></defs><g id="Layer_2" data-name="Layer 2"><g id="Layer_1-2" data-name="Layer 1"><g id="_0gOi9S.tif" data-name="0gOi9S.tif"><path class="cls-1" d="M0,136.5a18,18,0,0,1,2.8,4,40,40,0,0,1,1.3,6l.7,1.2H4.7l5.2,10.9H9.8l3.1,5h-.1l3.6,5.3h.1a84.7,84.7,0,0,0,23.4,23.2l.9.2,2,1.5,2,1.5,18.9,13c14.6,6.5,29,13.6,43.9,19.4,9.7,3.8,20,6,30.1,8.5s17.3,3.8,26,5.6c15.3,2.1,30.5,5.1,45.8,5.9,19.5,1,39.1.3,58.7.1,1.8,0,3.5-1.1,5.3-1.7,9.7-1,19.6-1.4,29.2-3.3,17.3-3.4,34.5-7.7,51.7-11.6,15.2-6,30.6-11.5,45.5-18.1a152.7,152.7,0,0,0,51.9-37.8,87.4,87.4,0,0,0,20.6-39.9c1.9-8.3,1.4-17.6-1.1-26.6-6.8-23.9-21.7-41.3-41.1-55.6l-2-1.4-1.1-.9h-.2L385.2,27.9h-.1l-.2-.2h-.2l-41.4-14-2-.6-5.9-1.4-29.8-6L278.9,2c-1.5-.2-3-1.3-4.5-2"/><path class="cls-2" d="M0,110.6a14.6,14.6,0,0,0,2-2.5c3.7-7.9,7.2-15.8,10.8-23.6.1,4.1.1,4.3,3.2,10.1a27,27,0,0,1-1.1,4.3c-6.1,13.5-7.4,27.1-3.1,41.6a76.1,76.1,0,0,0,22.1,35.1c8.8,8.1,18.8,14.9,28.3,22.3a21.4,21.4,0,0,1,2.8,3.2c-2.5,1.5-4.4,1.7-7.1-.5s-7.5-4.1-11.3-6c-.4-.2-1.2.4-1.8.7l-2-1.5-2-1.5-.9-.2a44.6,44.6,0,0,0-.5-6.3c-.1-.8-1.4-2.3-1.7-2.2-6.2,2.4-7.6-3.3-10.7-6.1-1.5-1.4-3.6-2.9-3.8-4.5-1-6.3-1-6.5-6.7-4.1h-.1c.8-3.2.5-5.5-3.6-5.3h.1c.1-2.4.6-4.9-3.1-5h.1c1.6-5.2-1.3-8.3-5.2-10.9h.1a7.5,7.5,0,0,0-.7-1.2,40,40,0,0,0-1.3-6,18,18,0,0,0-2.8-4Z"/><path class="cls-2" d="M274.4,0c1.5.7,3,1.8,4.5,2l26.7,3.7-2.2,1.2a8.9,8.9,0,0,0,1.6,1c5.3,1,10.5,2.5,15.9,2.9s8.6,7.6,14.3,9.2c-10.7-1.9-21.3-3.9-32-5.6s-21.2-3-31.8-4.5V6H280V3.7l-8.6-.5V0Z"/><path class="cls-3" d="M197.7,2.1,200.6,0h38.9c2.5,2.8,3.1,7.6,8,8a9.5,9.5,0,0,1-2.7.9L207.6,10c0-6.7,0-6.7-6.8-7.1A11.8,11.8,0,0,1,197.7,2.1Z"/><path class="cls-4" d="M247.5,8c-4.9-.4-5.5-5.2-8-8h31.9V9.9a8,8,0,0,1-2.1.5Z"/><path class="cls-5" d="M430.2,53.2c19.4,14.3,34.3,31.7,41.1,55.6,2.5,9,3,18.3,1.1,26.6a87.4,87.4,0,0,1-20.6,39.9,152.7,152.7,0,0,1-51.9,37.8c-14.9,6.6-30.3,12.1-45.5,18.1-.5-1.1-1.6-2.7-1.3-3.1a22.1,22.1,0,0,1,4.6-4c3.1-2.1,6.4-3.9,9.5-5.9l3.1-1c2.5,1.6,3.9.4,4.9-2L378,214l1.2-.6,7.2-3.2c22.1-10.1,42.4-22.4,58.8-40.8,21.2-23.9,24.1-53.5,7.4-80.6C444.5,75.7,433,66,421.1,56.6l4.1-1.7Z"/><path class="cls-6" d="M273.5,246.1c-1.8.6-3.5,1.7-5.3,1.7-19.6.2-39.2.9-58.7-.1-15.3-.8-30.5-3.8-45.8-5.9,7.8.3,15.6,0,23.2,1a46.2,46.2,0,0,0,17.4-1c.9-.2,1.5-1.8,2.3-2.7l9-.2h30.9c7.6-.5,15.2-1,22.8-1.7l34.1-3.2c-5.9,4.2-12.8,3.5-19.7,3.4.7,1.9,1.1,3.3,1.5,4.2l-18,4Z"/><path class="cls-7" d="M206.6,239.1c-.8.9-1.4,2.5-2.3,2.7a46.2,46.2,0,0,1-17.4,1c-7.6-1-15.4-.7-23.2-1-8.7-1.8-17.4-3.4-26-5.6s-20.4-4.7-30.1-8.5c-14.9-5.8-29.3-12.9-43.9-19.4l.3-.2c3.6,1.4,7.1,3,10.7,4.3,1.5.5,3.8,1,4.7.3,3.5-2.9,5.4-1.6,7.4,1.7s7.2,5.5,11.1,3.3c2.3,1.5,4.9,2.7,6.7,4.5s4.5,3.8,7.6,1.9,5,.3,7.1,2.3,3.5,3.2,5.4,3.5a65.3,65.3,0,0,0,11.7,0c.8,0,1.5-1.2,2.3-1.8l5,1c.8.9,1.5,2.3,2.5,2.6,8.4,1.9,16.8,3.7,25.2,5.2,1.3.2,2.8-1.2,4.2-1.9l5,.2,4,.8,4,.2c.8.6,1.6,1.7,2.4,1.7Z"/><path class="cls-8" d="M273.5,246.1l-6.3-.4,18-4c-.4-.9-.8-2.3-1.5-4.2,6.9.1,13.8.8,19.7-3.4l4-.8,2-.3h1.8l8.1-1.7,20.7-5c2.5-.6,5.2-.7,7.7-1.5,6.5-2,13-4.3,19.5-6.5-3.1,2-6.4,3.8-9.5,5.9a22.1,22.1,0,0,0-4.6,4c-.3.4.8,2,1.3,3.1-17.2,3.9-34.4,8.2-51.7,11.6C293.1,244.7,283.2,245.1,273.5,246.1Z"/><path class="cls-6" d="M343.3,13.7l41.4,14h.2l.2.2h.1c0,4.2,2.3,7.1,5.7,9.1s8.9,4.8,13.2,7.4c1.2.8,2,2.3,3,3.5L372.2,31.8h-1l-2-.3a1.6,1.6,0,0,0-.8-.6l-1.2-.9-3-1.1-3.9-1.2c-3.4-1.8-6.7-4.1-10.3-5.5S343.2,18.4,343.3,13.7Z"/><path class="cls-8" d="M407.1,47.9c-1-1.2-1.8-2.7-3-3.5-4.3-2.6-8.9-4.9-13.2-7.4s-5.7-4.9-5.7-9.1l41.7,22.8h.2l1.1.9,2,1.4-5,1.7-4.1,1.7Z"/><path class="cls-7" d="M343.3,13.7c-.1,4.7,2.5,6.9,6.7,8.4s6.9,3.7,10.3,5.5L335.2,20c-5.7-1.6-7.7-8.7-14.3-9.2S310.3,8.9,305,7.9a8.9,8.9,0,0,1-1.6-1l2.2-1.2,29.8,6,5.9,1.4Z"/><path class="cls-7" d="M16.5,168.9c5.7-2.4,5.7-2.2,6.7,4.1.2,1.6,2.3,3.1,3.8,4.5,3.1,2.8,4.5,8.5,10.7,6.1.3-.1,1.6,1.4,1.7,2.2a44.6,44.6,0,0,1,.5,6.3A84.7,84.7,0,0,1,16.5,168.9Z"/><path class="cls-7" d="M44.8,195.3c.6-.3,1.4-.9,1.8-.7,3.8,1.9,8.1,3.3,11.3,6s4.6,2,7.1.5l5.9,2c-1.2.7-2.5,1.3-3.7,2.1s-2.1,1.9-3.2,2.8l-.3.3Z"/><path class="cls-7" d="M4.7,147.6c3.9,2.6,6.8,5.7,5.2,10.9C8.1,154.9,6.4,151.2,4.7,147.6Z"/><path class="cls-7" d="M12.8,163.5c4.1-.2,4.4,2.1,3.6,5.3Z"/><path class="cls-7" d="M9.8,158.5c3.7.1,3.2,2.6,3.1,5Z"/><path class="cls-6" d="M341.3,13.1l-5.9-1.4Z"/><path class="cls-7" d="M40.8,192.3l2,1.5Z"/><path class="cls-5" d="M428.2,51.8l-1.1-.9Z"/><path class="cls-5" d="M426.9,50.8h0Z"/><path class="cls-7" d="M4.1,146.5a7.5,7.5,0,0,1,.7,1.2A7.5,7.5,0,0,0,4.1,146.5Z"/><path class="cls-8" d="M385.1,27.9l-.2-.2h0Z"/><path class="cls-9" d="M92.8,25.9c14.1-4.6,28-9.6,42.2-13.7,10.4-3,21.2-4.8,31.8-7a17,17,0,0,1,3.9-.1c2.6,2.1,4.2,4.3.9,6.1l7,1.7c-14.2,3-28.4,5.8-42.5,9.1-9.7,2.3-19.3,5.1-29,7.8L93,34.1C92.9,31.4,92.9,28.6,92.8,25.9Z"/><path class="cls-4" d="M16,94.6c-3.1-5.8-3.1-6-3.2-10.1h0l1.2-2c6.1-10.2,14.6-18.2,23.9-25.5l4,6.7h0l-10,8c.3,3.6-1.1,6.1-4.5,7.9-1.7.9-2.9,2.8-4.2,4.5C20.7,87.6,18.4,91.1,16,94.6Z"/><path class="cls-10" d="M92.8,25.9c.1,2.7.1,5.5.2,8.2v-.2L89.8,36,63.9,48.9l-8.2-4.2L87.4,27.9C89.1,27.1,91,26.6,92.8,25.9Z"/><path class="cls-10" d="M178.6,12.9l-7-1.7c3.3-1.8,1.7-4-.9-6.1l27-3a11.8,11.8,0,0,0,3.1.8c6.8.4,6.8.4,6.8,7.1Z"/><path class="cls-3" d="M55.7,44.7l8.2,4.2-6.3,4.5L41.9,63.8l-4-6.7Z"/><path class="cls-2" d="M14,82.6l-1.2,2Z"/><path class="cls-11" d="M41.9,63.8,57.6,53.4l6.3-4.5L89.8,36l3.1-2.1v.2l14.1-4.3c9.7-2.7,19.3-5.5,29-7.8,14.1-3.3,28.3-6.1,42.5-9.1l29-2.9,37.2-1.1a9.5,9.5,0,0,0,2.7-.9l21.8,2.4a8,8,0,0,0,2.1-.5c10.6,1.5,21.2,2.8,31.8,4.5s21.3,3.7,32,5.6l25.1,7.6,3.9,1.2,3,1.1,1.2.9.8.6,2,.3h1l34.9,16.1,14,8.7C433,66,444.5,75.7,452.6,88.8c16.7,27.1,13.8,56.7-7.4,80.6-16.4,18.4-36.7,30.7-58.8,40.8l-7.2,3.2-1.2.6-2.8,1.2-4.9,2-3.1,1c-6.5,2.2-13,4.5-19.5,6.5-2.5.8-5.2.9-7.7,1.5l-20.7,5-8.1,1.7h-1.8l-2,.3-4,.8-34.1,3.2c-7.6.7-15.2,1.2-22.8,1.7H215.6l-27-2.7-4-.2-4-.8-5-.2-31.9-5.9-5-1a10.5,10.5,0,0,0-2.6-1.3c-18.4-4.5-36.4-10.3-53.6-18.5-3.8-1.9-7.7-3.5-11.6-5.2l-5.9-2a21.4,21.4,0,0,0-2.8-3.2c-9.5-7.4-19.5-14.2-28.3-22.3a76.1,76.1,0,0,1-22.1-35.1c-4.3-14.5-3-28.1,3.1-41.6A27,27,0,0,0,16,94.6c2.4-3.5,4.7-7,7.2-10.5,1.3-1.7,2.5-3.6,4.2-4.5,3.4-1.8,4.8-4.3,4.5-7.9,5-.6,7.8-3.9,10-8Zm138.5,80.3,1.1-.8c3-1.8,2.9.1,2.5,2.1-.8,4.2-1.8,8.3-2.3,12.5-.2,1.9.7,3.9,1.1,5.9s2.6,2.1,3.9,2.1c8.1,0,16.1-.3,24.1-.6,1.2-.1,2.4-1,3.6-1.6l5.4-22.3c.5-.3,1.4-.6,1.5-1,2.4-12.9,4.9-25.7,7.2-38.6.5-3,.6-6,4-7.2l20.8-.5c4.8-.8,6.1,2.2,5.5,5.9-1.2,7.2-2.9,14.4-4.5,21.5-4.6,4.7-2.3,10.6-2.7,16h0l-3,16.2-.9,8.2,1.1,2.2h-.1c.8.4,1.6,1.2,2.4,1.2h27.4c.9,0,1.8-1,2.7-1.5l1.2-1.5c.6,1.6,1.6,3.2,1.8,4.8s-.4,3.8-.6,5.8v1.4c-1.4,4.6-3.2,9.1-4.2,13.9-.5,2.5-2.8,5.8,1.2,7.9h0c1.8,1,3.7,2.8,5.6,2.9,4,.2,8.1-.4,12.1-.7l12.9-.8c2.8-.5,4.1-1.9,4.2-4.9s1-4.8,1.6-7.2.9-5.3,1.4-8c.1-.6.3-1.3.4-2s1-.5,1.1-.9c2.9-7.8,4.7-8.9,13.5-9.1s18.2-.5,27.2-1.1c2.2-.2,4.3-2,6.4-3.1l2.9-.9,6.3-2.9h.3l1.6-1h-.1c3.8.4,6.3-1.1,7-5.1h0c3.9-.2,8.2-4.5,8.9-9h.1l1.1-2h-.1l1.8-2.2h0l1.1-2h0a5.2,5.2,0,0,1,1-1.1h-.1c4.2-2.9,5.6-7,5.1-11.9h-.1c1-1.8,2.6-3.6,2.8-5.5a151.6,151.6,0,0,0,1.3-19c-.1-2.4-2.1-4.8-3.2-7.2-1.8-7-5.3-13.3-11.1-17.4a46.6,46.6,0,0,0-28.6-8.7c-17.7.4-35.5.2-53.2-.3-5.3-.1-7.7,1.5-8.1,6.6-2.7,2.8-4.1,6-2.3,9.9h.1c-1.1,3.7-2.2,7.4-3.2,11.1s-1,5.4-1.5,8.1l-1.3-.3c-.1-1.8-.3-3.6-.4-5.4s-.3-6.3-1-9.3c-2.2-9-7.8-16.2-16.7-17.8-12.3-2.2-25-2.1-37.5-3l-5.7-.3c1.4-5.6,3-10.5,3.8-15.5s.9-10.3,1.4-15.4c-1.1-1.1-2.2-2.9-3.3-3-8.6-.2-17.2-.3-25.8,0-1.6.1-3.1,2-4.7,3h.1c-.7.6-1.9,1.2-2,1.9-1.1,7.3-2.1,14.7-3.1,22h.1l-.5,3.9-6,31h-1.2c-.5-1.7-1.1-3.3-1.6-5l-1.2-3h.1l-.9-1.2h0l-2-3.1h0l-1.2-1.8h0c.1-3.3-1.9-4.2-4.7-4.2h0c-1.2-1.6-2-4.2-3.5-4.6-5.6-1.8-11.3-2.9-16.9-4.3l-45.9-.4c-7.1,0-14.2.3-21.4.5l-.7-.5-.3,1.4h0c-.8,1.9-2,3.6-2.4,5.6-1.6,9.2-3,18.4-4.5,27.7-1.5,7.5-2.9,14.9-4.3,22.4L79,135.6h.1c-.7.6-1.9,1.2-2,1.9-1.2,8-2.1,16-3.1,24h.1l-.4,2.9c-1.8,8.4-3.7,16.7-5.3,25.1-.7,3.3-1.4,7,3.5,8,.5.2.9.7,1.3.7,8.4.4,16.7.8,25.1.8,1.4.1,2.8-1.9,4.3-2.9h-.1c1-1.5,2.6-2.9,2.9-4.4,1.3-8.2,2.2-16.3,3.3-24.5h-.1c3.8-.6,7.6-1.7,11.4-1.8,11.9-.3,23.9,1,35.5-3.2,1.5-.5,2.8-1.8,4.2-2.8l.7-.2c3.6.5,6.7,0,8-4.1h0l2.1-1.8h0l1.9-1.2h0l6-5.8h0l1-1.1h0l.9-1Z"/><path class="cls-11" d="M271.4,6V3.2l8.6.5V6Z"/><path class="cls-8" d="M370.3,217.2l4.9-2C374.2,217.6,372.8,218.8,370.3,217.2Z"/><path class="cls-8" d="M378,214l1.2-.6Z"/><path class="cls-2" d="M188.6,236.2l27,2.7-9,.2L191,237.9C190.2,237.9,189.4,236.8,188.6,236.2Z"/><path class="cls-2" d="M222.5,239h0Z"/><path class="cls-7" d="M239.5,239.1h0Z"/><path class="cls-7" d="M245.5,239h0Z"/><path class="cls-2" d="M70.9,203.1c3.9,1.7,7.8,3.3,11.6,5.2,17.2,8.2,35.2,14,53.6,18.5a10.5,10.5,0,0,1,2.6,1.3c-.8.6-1.5,1.8-2.3,1.8a65.3,65.3,0,0,1-11.7,0c-1.9-.3-3.9-2.1-5.4-3.5s-3.8-4.3-7.1-2.3-5.3.5-7.6-1.9-4.4-3-6.7-4.5c-3.9,2.2-8.5,1-11.1-3.3s-3.9-4.6-7.4-1.7c-.9.7-3.2.2-4.7-.3-3.6-1.3-7.1-2.9-10.7-4.3a42,42,0,0,1,3.2-2.9C68.4,204.4,69.7,203.8,70.9,203.1Z"/><path class="cls-2" d="M143.7,229.1l31.9,5.9c-1.4.7-2.9,2.1-4.2,1.9-8.4-1.5-16.8-3.3-25.2-5.2C145.2,231.4,144.5,230,143.7,229.1Z"/><path class="cls-2" d="M180.6,235.2l4,.8Z"/><path class="cls-6" d="M311.2,232.9l8.1-1.7Z"/><path class="cls-6" d="M307.4,233.3l2-.3Z"/><path class="cls-7" d="M367.2,29.9l-3-1.1Z"/><path class="cls-7" d="M372.2,31.8h0Z"/><path class="cls-7" d="M369.2,31.4l-.8-.6A1.6,1.6,0,0,1,369.2,31.4Z"/><path class="cls-3" d="M41.9,63.7c-2.2,4.1-5,7.4-10,8Z"/><path class="cls-9" d="M92.9,33.9,89.8,36Z"/><path class="cls-12" d="M160.4,159.2l-.7.2c-5.9,1.4-11.8,3.4-17.8,3.9-9.7.8-19.4.7-29.1.9-2.1.1-4.6-.5-4.2,3h.1c-2.1,9.6-4.1,19.3-6.2,28.9h.1a46.6,46.6,0,0,1-6.3,1.2c-8.1.2-16.2.1-24.4.2-4.9-1-4.2-4.7-3.5-8,1.6-8.4,3.5-16.7,5.3-25.1a28.9,28.9,0,0,1,.4-2.9H74l5.1-25.9H79l2.7-13.1c1.4-7.5,2.8-14.9,4.3-22.4l6.9-33.3h0l1-.9c7.2-.2,14.3-.5,21.4-.5l45.9.4,20.4,8.9h0l4.7,4.2h0l1.2,1.8h0l2,3.1h0l.9,1.2h-.1l1.2,3c.5,1.7,1.1,3.3,1.6,5h1.2l6-31c.2-1.3.3-2.6.5-3.9h-.1L205.8,34h-.1a13.4,13.4,0,0,1,3.6-1.4c8.6-.2,17.1-.4,25.7-.3,1.5,0,3,1.1,4.5,1.7-.5,5.1-.6,10.3-1.4,15.4s-2.4,9.9-3.8,15.5l5.7.3c12.5.9,25.2.8,37.5,3C286.4,69.8,292,77,294.2,86c.7,3,.7,6.2,1,9.3s-1.5,3.1-1.7,4.8c-.7,4.7-1,9.4-1.8,14.1-3,16-6.2,32.1-9.3,48.1l-1.2,1.5-32.5.3h.1l-1.1-2.2.9-8.2,3-16.2h0l2.7-16c1.6-7.1,3.3-14.3,4.5-21.5.6-3.7-.7-6.7-5.5-6-.9-.4-1.9-1.2-2.9-1.2l-18,.2c-1.3.9-3.5,1.5-3.8,2.6-3.1,15.3-5.9,30.6-8.8,45.8l-5.4,22.3H182.8c-.4-2-1.3-4-1.1-5.9.5-4.2,1.5-8.3,2.3-12.5.4-2,.5-3.9-2.5-2.1l-1.1.8h-.1l-.9,1h0l-1,1.1h0l-6,5.8h0l-1.9,1.2h0l-2.1,1.8h0Zm-54.5.2c13,0,25.9,1.1,38.5-.2,32.6-3.5,51.5-37.4,44.8-65.7-3.2-13.4-15.8-23-31.6-23.6-19.5-.8-38.9-.5-58.4-.8-2.7,0-3.1,1.2-3.6,3.5-5.5,28.6-11.1,57.1-16.7,85.7-2.3,11.6-4.5,23.1-6.7,34.7H99.3C101.4,181.9,103.5,171.2,105.9,159.4ZM225.8,89.3h3c6.7,0,13.3-.2,20,0,13.1.4,16,4.3,13.3,17.3,0,.2-.1.3-.2.5-3.4,17.6-6.8,35.3-10.3,52.9h27.5c4-21.1,8.1-41.9,11.7-62.7,2.3-12.9-3.6-22.4-16.3-25.5-7.5-1.8-15.4-2.1-23.1-2.6s-14.2-.1-21.6-.1c2.2-11.3,4.2-22,6.3-32.9H209.3q-12.2,62-24.1,123.8H212C216.7,136.4,221.2,113.1,225.8,89.3Z"/><path class="cls-12" d="M283.7,174.3a7.1,7.1,0,0,1-.1-1.4,22.6,22.6,0,0,0,1.5-4.1q4.3-21.9,8.4-43.8c2.8-14.4,5.4-28.8,8.1-43.2h-.1c.8-3.3,1.5-6.6,2.3-9.9.4-5.1,2.8-6.7,8.1-6.6,17.7.5,35.5.7,53.2.3a46.6,46.6,0,0,1,28.6,8.7c5.8,4.1,9.3,10.4,11.1,17.4.5,4.1,1.6,8.2,1.4,12.2-.4,6.5-1.5,13-2.3,19.5h.1l-5.1,11.9h.1a5.2,5.2,0,0,0-1,1.1h0a19.8,19.8,0,0,1-1.1,2h0l-1.8,2.2h.1a19.8,19.8,0,0,0-1.1,2H394l-8.9,9h0l-7,5.1h.1l-1.6,1h-.3l-6.3,2.9-2.9.9-46.6,4.5c-.4,2.6-1,6.2-1.6,9.7-.1.7-.3,1.4-.4,2-.5,2.7-.9,5.4-1.4,8s-1.5,4.8-1.6,7.2-1.4,4.4-4.2,4.9c-6.8-.1-13.6,0-20.4-.2-3.4-.1-6.8-.8-10.2-1.2h0Zm33.9-13.9c5.1,0,10.1.1,15-.1,8-.2,16-.1,23.9-1,32-4,51.6-37,44.4-66.5-3.3-13.1-16.2-22.4-32.1-23-19.1-.7-38.2-.4-57.3-.7-3.5-.1-3.7,1.8-4.1,4.2l-17.7,90.5c-1.9,9.7-3.7,19.4-5.6,29.4h27C313.2,182.3,315.4,171.5,317.6,160.4Z"/><path class="cls-4" d="M301.6,81.8c-2.7,14.4-5.3,28.8-8.1,43.2s-5.5,29.2-8.4,43.8a22.6,22.6,0,0,1-1.5,4.1c.2-2,.8-3.9.6-5.8s-1.2-3.2-1.8-4.8c3.1-16,6.3-32.1,9.3-48.1.8-4.7,1.1-9.4,1.8-14.1.2-1.7,1.1-3.2,1.7-4.8.1,1.8.3,3.6.4,5.4l1.3.3c.5-2.7.9-5.5,1.5-8.1S300.5,85.5,301.6,81.8Z"/><path class="cls-4" d="M318.9,175.3c.6-3.5,1.2-7.1,1.6-9.7l46.6-4.5c-2.1,1.1-4.2,2.9-6.4,3.1-9,.6-18.1.9-27.2,1.1s-10.6,1.3-13.5,9.1C319.9,174.8,319.3,175,318.9,175.3Z"/><path class="cls-4" d="M219.8,141.4c2.9-15.2,5.7-30.5,8.8-45.8.3-1.1,2.5-1.7,3.8-2.6,0,.6.1,1.1.1,1.6-3.4,1.2-3.5,4.2-4,7.2-2.3,12.9-4.8,25.7-7.2,38.6C221.2,140.8,220.3,141.1,219.8,141.4Z"/><path class="cls-4" d="M108.6,167.2c-.4-3.5,2.1-2.9,4.2-3,9.7-.2,19.4-.1,29.1-.9,6-.5,11.9-2.5,17.8-3.9-1.4,1-2.7,2.3-4.2,2.8-11.6,4.2-23.6,2.9-35.5,3.2C116.2,165.5,112.4,166.6,108.6,167.2Z"/><path class="cls-4" d="M403.9,123.4c.8-6.5,1.9-13,2.3-19.5.2-4-.9-8.1-1.4-12.2,1.1,2.4,3.1,4.8,3.2,7.2a151.6,151.6,0,0,1-1.3,19C406.5,119.8,404.9,121.6,403.9,123.4Z"/><path class="cls-4" d="M92.9,66.8,86,100.1c1.5-9.3,2.9-18.5,4.5-27.7C90.9,70.4,92.1,68.7,92.9,66.8Z"/><path class="cls-4" d="M102.5,196.1c2.1-9.6,4.1-19.3,6.2-28.9-1.1,8.2-2,16.3-3.3,24.5C105.1,193.2,103.5,194.6,102.5,196.1Z"/><path class="cls-4" d="M239.5,34c-1.5-.6-3-1.7-4.5-1.7-8.6-.1-17.1.1-25.7.3a13.4,13.4,0,0,0-3.6,1.4c1.6-1,3.1-2.9,4.7-3,8.6-.3,17.2-.2,25.8,0C237.3,31.1,238.4,32.9,239.5,34Z"/><path class="cls-3" d="M232.5,94.6c0-.5-.1-1-.1-1.6l18-.2c1,0,2,.8,2.9,1.2Z"/><path class="cls-4" d="M79.1,135.6,74,161.5c1-8,1.9-16,3.1-24C77.2,136.8,78.4,136.2,79.1,135.6Z"/><path class="cls-4" d="M283.7,174.3l-3,21.8c-4-2.1-1.7-5.4-1.2-7.9C280.5,183.4,282.3,178.9,283.7,174.3Z"/><path class="cls-4" d="M280.7,196c3.4.4,6.8,1.1,10.2,1.2,6.8.2,13.6.1,20.4.2l-12.9.8c-4,.3-8.1.9-12.1.7C284.4,198.8,282.5,197,280.7,196Z"/><path class="cls-4" d="M181.6,74.8l-20.4-8.9c5.6,1.4,11.3,2.5,16.9,4.3C179.6,70.6,180.4,73.2,181.6,74.8Z"/><path class="cls-4" d="M71.9,197.4c8.2-.1,16.3,0,24.4-.2a46.6,46.6,0,0,0,6.3-1.2c-1.5,1-2.9,3-4.3,2.9-8.4,0-16.7-.4-25.1-.8C72.8,198.1,72.4,197.6,71.9,197.4Z"/><path class="cls-4" d="M205.8,34l-5.1,23.9c1-7.3,2-14.7,3.1-22C203.9,35.2,205.1,34.6,205.8,34Z"/><path class="cls-4" d="M182.8,163.8h31.6c-1.2.6-2.4,1.5-3.6,1.6-8,.3-16,.6-24.1.6C185.4,165.9,184.1,164.5,182.8,163.8Z"/><path class="cls-4" d="M248.7,164.1l32.5-.3c-.9.5-1.8,1.5-2.7,1.5H251.1C250.3,165.3,249.5,164.5,248.7,164.1Z"/><path class="cls-4" d="M254.3,121.5l-2.7,16C252,132.1,249.7,126.2,254.3,121.5Z"/><path class="cls-4" d="M385.1,151.3l8.9-9C393.3,146.8,389,151.1,385.1,151.3Z"/><path class="cls-4" d="M398.9,135.3l5.1-11.9C404.5,128.3,403.1,132.4,398.9,135.3Z"/><path class="cls-4" d="M81.7,122.5,79,135.6Z"/><path class="cls-4" d="M251.6,137.5l-3,16.2Z"/><path class="cls-4" d="M303.8,71.9c-.8,3.3-1.5,6.6-2.3,9.9C299.7,77.9,301.1,74.7,303.8,71.9Z"/><path class="cls-4" d="M172.4,152l6-5.8Z"/><path class="cls-4" d="M378.1,156.3l7-5.1C384.4,155.2,381.9,156.7,378.1,156.3Z"/><path class="cls-4" d="M160.4,159.2l8-4.1C167.1,159.2,164,159.7,160.4,159.2Z"/><path class="cls-4" d="M186.3,78.9l-4.7-4.2C184.4,74.7,186.4,75.6,186.3,78.9Z"/><path class="cls-4" d="M370,160.2l6.3-2.9Z"/><path class="cls-4" d="M317.1,185.3c.5-2.6.9-5.3,1.4-8C318,180,317.6,182.7,317.1,185.3Z"/><path class="cls-4" d="M189.5,83.8l-2-3.1Z"/><path class="cls-4" d="M168.4,155l2.1-1.8Z"/><path class="cls-4" d="M200.8,57.8c-.2,1.3-.3,2.6-.5,3.9C200.5,60.4,200.6,59.1,200.8,57.8Z"/><path class="cls-4" d="M191.5,87.8l-1.2-3Z"/><path class="cls-4" d="M74.1,161.4a28.9,28.9,0,0,0-.4,2.9A28.9,28.9,0,0,1,74.1,161.4Z"/><path class="cls-4" d="M395.1,140.4l1.8-2.2Z"/><path class="cls-4" d="M170.5,153.3l1.9-1.2Z"/><path class="cls-4" d="M247.7,161.9l1.1,2.2Z"/><path class="cls-4" d="M187.5,80.7l-1.2-1.8Z"/><path class="cls-4" d="M394.1,142.4a19.8,19.8,0,0,1,1.1-2Z"/><path class="cls-4" d="M396.9,138.3a19.8,19.8,0,0,0,1.1-2A19.8,19.8,0,0,1,396.9,138.3Z"/><path class="cls-4" d="M93.9,66l-1,.9.3-1.4Z"/><path class="cls-4" d="M398,136.4a5.2,5.2,0,0,1,1-1.1A5.2,5.2,0,0,0,398,136.4Z"/><path class="cls-4" d="M190.4,84.9l-.9-1.2Z"/><path class="cls-4" d="M376.6,157.3l1.6-1Z"/><path class="cls-4" d="M178.4,146.3l1-1.1Z"/><path class="cls-4" d="M179.4,145.2l.9-1Z"/><path class="cls-4" d="M180.4,144.1l1.1-.8Z"/><path class="cls-13" d="M105.9,159.4c-2.4,11.8-4.5,22.5-6.6,33.6H72.2c2.2-11.6,4.4-23.1,6.7-34.7,5.6-28.6,11.2-57.1,16.7-85.7.5-2.3.9-3.5,3.6-3.5,19.5.3,38.9,0,58.4.8,15.8.6,28.4,10.2,31.6,23.6,6.7,28.3-12.2,62.2-44.8,65.7C131.8,160.5,118.9,159.4,105.9,159.4Zm3.6-18.9c8.2,0,15.7.2,23.1-.1,14.9-.6,23.7-7.6,27.6-21.8a63.4,63.4,0,0,0,2-12.2c.6-9.2-3.4-15.2-12.3-16.4s-20-1.2-30.2-1.8Z"/><path class="cls-13" d="M225.8,89.3c-4.6,23.8-9.1,47.1-13.8,70.7H185.2q12-61.9,24.1-123.8h26.8c-2.1,10.9-4.1,21.6-6.3,32.9,7.4,0,14.5-.3,21.6.1s15.6.8,23.1,2.6c12.7,3.1,18.6,12.6,16.3,25.5-3.6,20.8-7.7,41.6-11.7,62.7H251.6c3.5-17.6,6.9-35.3,10.3-52.9.1-.2.2-.3.2-.5,2.7-13-.2-16.9-13.3-17.3-6.7-.2-13.3,0-20,0Z"/><path class="cls-13" d="M317.6,160.4c-2.2,11.1-4.4,21.9-6.5,32.8h-27c1.9-10,3.7-19.7,5.6-29.4l17.7-90.5c.4-2.4.6-4.3,4.1-4.2,19.1.3,38.2,0,57.3.7,15.9.6,28.8,9.9,32.1,23,7.2,29.5-12.4,62.5-44.4,66.5-7.9.9-15.9.8-23.9,1C327.7,160.5,322.7,160.4,317.6,160.4Zm14-72.1-10.4,53.1c11-.8,21.6-1,31.9-2.6,8.2-1.2,14.1-6.8,16.9-14.6a73.7,73.7,0,0,0,4-17.3c1-10.4-3.6-16-14.1-17.2S341.4,88.7,331.6,88.3Z"/><path class="cls-12" d="M109.5,140.5l10.2-52.3c10.2.6,20.3.5,30.2,1.8s12.9,7.2,12.3,16.4a63.4,63.4,0,0,1-2,12.2c-3.9,14.2-12.7,21.2-27.6,21.8C125.2,140.7,117.7,140.5,109.5,140.5Zm13-45h.1l-4.8,24-2.8,16,2.5,1.3h10.3c7.1.2,14.1-.4,20-5.2h0l3.9-4.1c2.1-5.8,5-11.5,6-17.5,2.5-14-3.6-16.4-13.5-16.5-6.6-.3-13.2-.6-19.9-.7C123.8,92.8,123.1,94.6,122.5,95.5Z"/><path class="cls-12" d="M331.6,88.3c9.8.4,19.1.4,28.3,1.4S375,96.5,374,106.9a73.7,73.7,0,0,1-4,17.3c-2.8,7.8-8.7,13.4-16.9,14.6-10.3,1.6-20.9,1.8-31.9,2.6Zm-.4,23.3c-1.3,6.3-2.7,12.6-3.9,18.9-.8,4.4,1,6.6,5.7,6.3s9.4.5,13.8-.6,11.4-3.1,15-6.7c5.9-5.9,8.2-14.1,8.4-22.7s-3-12.8-12.5-13.3l-23.2-1.3C333.3,99.3,332.3,105.4,331.2,111.6Z"/><path class="cls-11" d="M127.8,136.7H117.5l-2.5-1.3c.9-5.3,1.9-10.7,2.8-16l4.8-24h0c2.4-.6,4.9-1.6,7.4-1.8,4.7-.3,9.5-.2,14.2-.2,9.9.1,16,2.5,13.5,16.5-1,6-3.9,11.7-6,17.5-2.7,0-5.1.3-3.9,4.1h0L133.6,135Z"/><path class="cls-4" d="M127.8,136.7l5.8-1.7,14.2-3.5C141.9,136.3,134.9,136.9,127.8,136.7Z"/><path class="cls-4" d="M122.6,95.5l-4.8,24Z"/><path class="cls-4" d="M144.2,93.5c-4.7,0-9.5-.1-14.2.2-2.5.2-5,1.2-7.4,1.8.5-.9,1.2-2.7,1.7-2.7C131,92.9,137.6,93.2,144.2,93.5Z"/><path class="cls-4" d="M147.8,131.6c-1.2-3.8,1.2-4.1,3.9-4.1Z"/><path class="cls-4" d="M115,135.5l2.5,1.3Z"/><path class="cls-11" d="M357.7,93.5c9.5.5,12.7,3.9,12.5,13.3s-2.5,16.8-8.4,22.7c-3.6,3.6-9.7,5.3-15,6.7s-9.2.3-13.8.6-6.5-1.9-5.7-6.3c1.2-6.3,2.6-12.6,3.9-18.9,1.2-4.2,2.5-8.3,3.4-12.5s2.3-5.9,6.8-5.6S352.2,93.5,357.7,93.5Z"/><path class="cls-4" d="M357.7,93.5c-5.5,0-10.9.4-16.3,0s-6.1,1.6-6.8,5.6-2.2,8.3-3.4,12.5c1.1-6.2,2.1-12.3,3.3-19.4Z"/></g></g></g></svg>