<svg xmlns="http://www.w3.org/2000/svg" viewBox="0 0 1023 1021.6"><defs><style>.cls-1{fill:#ffd445;}.cls-2{fill:#fffffe;}.cls-3{fill:#3975a9;}</style></defs><g id="Layer_2" data-name="Layer 2"><g id="Layer_1-2" data-name="Layer 1"><path class="cls-1" d="M609.4,897.7c-.5,23.2,19,44.6,44.5,44.9s45.1-19.9,45-44.5-17.8-44.4-44.5-44.9A43.7,43.7,0,0,0,609.4,897.7ZM512.3,761.5c.4,8.3.3,16.6,0,24.9-.1,3.7.8,5,4.7,4.9,7.4-.3,14.9-.1,22.4-.1q107.9,0,215.8-.2c4.7,0,6.1,1.1,6.1,6-.1,38.4.4,76.9.2,115.3-.1,21.7-10.5,38.9-25.6,53.5-20,19.3-44.8,30.1-71,38-31.7,9.5-64.3,13.7-97.3,16-16.8,1.1-33.7,1.8-50.5,1.8-11.8,0-23.6-.4-35.3-.9-48.8-2.5-96.9-9-141.8-30.1-26-12.2-48.2-28.9-62.6-54.5a93.2,93.2,0,0,1-11.9-48.8c.5-18.5.2-37,.2-55.4V661.1c0-24.3,3.8-47.8,15.5-69.4,17.4-31.8,45.4-49.5,79.3-59.2a174.7,174.7,0,0,1,49.8-6.5H650c20.8,0,41.2-2.4,60.8-9.9,40.2-15.4,63.9-45.7,76.1-86a170.2,170.2,0,0,0,7.3-50.6c-.1-38.5.1-77-.1-115.4,0-4.3,1-5.7,5.5-5.6,27.8.2,55.6-.3,83.4.1s53.8,12.5,75,31.7c23.9,21.6,38.4,49.1,48.8,79,8,23.2,12.7,47.2,15.8,71.5a40.1,40.1,0,0,1,.2,6c0,36.1-.5,72.2.2,108.3v4.2c0,32-7.2,62.5-18.4,92.2-9.1,24.3-22.1,46.2-40.8,64.4-28.2,27.4-62,40.8-101.5,40.5-55.2-.4-110.5-.1-165.8-.1h0c-59.6,0-119.1.1-178.7-.1C513.4,756,512.1,757.1,512.3,761.5Z"/><path class="cls-2" d="M653.9,942.6c-25.5-.3-45-21.7-44.5-44.9a43.7,43.7,0,0,1,45-44.5c26.7.5,44.5,21.2,44.5,44.9S678.4,942.9,653.9,942.6Z"/><path class="cls-2" d="M372.4,168.1a44.7,44.7,0,1,1,44.9-44.5A44.6,44.6,0,0,1,372.4,168.1Z"/><path class="cls-3" d="M372.4,168.1a44.7,44.7,0,1,0-44.7-44.7A44.6,44.6,0,0,0,372.4,168.1ZM171.7,265.2q168,.4,336,.1c1,0,2-.1,3,0,2.9.4,3.7-.9,3.7-3.7-.2-8.5-.5-17,.1-25.4.3-5.3-1.6-6.2-6.4-6.2H272.4c-7.9,0-6.7.9-6.8-7-.1-35.1-.1-70.2-.2-105.3,0-4-.4-8-.1-12C267,85,277,68.6,291.8,54.7c19.6-18.5,43.5-29,68.9-36.7,30.5-9.3,61.9-13.6,93.7-16.1,6.7-.5,13.5,0,20-1.9h71.9c1.2,1.9,3.1.9,4.6,1,29.9,2,59.6,5.5,88.7,13,37.2,9.5,71.2,24.7,97.3,54.2a97.2,97.2,0,0,1,17.2,26.9c6.1,14.2,7.2,29.1,7.1,44.4-.3,72.6-.2,145.2-.1,217.7a193.3,193.3,0,0,1-2,30.4c-5.3,35.2-21.6,63.6-51.9,83.2-26.3,16.9-55.5,24.5-86.6,24.6-80.9.2-161.8,0-242.7,0a216.7,216.7,0,0,0-36.8,3c-28.6,5.1-53.6,17.1-73,39.2-11.3,12.8-19.4,27.7-25.3,43.8a169.6,169.6,0,0,0-10.3,59.4c.1,39.1,0,78.2.2,117.3,0,3.9-.9,5.1-5,5.1q-39.9-.3-79.9-.1c-31.2.1-57.4-12.1-80.1-32.7C48.7,713.1,35.8,691.5,26,668,11.6,633.4,5.2,597,1.9,559.9c-.5-5.9,0-11.8-1.9-17.5v-61c1-.6.8-1.7.9-2.7A394.6,394.6,0,0,1,5,436.6c4.9-32.7,13.3-64.2,29.5-93.2,20.2-36,49-61.7,89.3-73.3C139.5,265.6,155.5,265.2,171.7,265.2Z"/></g></g></svg>