<svg xmlns="http://www.w3.org/2000/svg" viewBox="0 0 275.8 244.5"><defs><style>.cls-1{fill:#77cfec;}</style></defs><g id="Layer_2" data-name="Layer 2"><g id="Layer_1-2" data-name="Layer 1"><path class="cls-1" d="M275.1,116.6c1.9,7.2.1,13.9-4,20.2-7.1,10.9-18,17-29.1,22.5a140.4,140.4,0,0,1-19.8,7.8c-3.7,1.1-3.9,3-3.1,5.8,4.2,15.9,5.2,32,1.5,48.1-2.1,8.9-6.4,16.8-15,21s-15.2,2.8-22.8.7c-15.8-4.5-28.8-13.9-40.7-24.8-3.1-2.8-4.5-2-7.3,0-9.5,7-19,14-29.1,20s-18.7,7.8-29.5,5.8-15.7-9-18.9-18.1c-5.9-16.6-3.8-33.5-.8-50.4.4-2.2.6-4.5.7-5.6-11.9-5.7-23.3-10.5-34.1-16.3-7.9-4.2-14.8-10.1-19.3-18s-5.1-17.5-.1-26,14.4-15.9,24-20.9,17.4-8.2,26.4-11.8c2.9-1.1,3-2.3,2.6-5.1-1.3-11.3-3.1-22.6-3.2-34,0-9.1,1.7-18.1,7.3-26.2C68.8-.3,76.5-.9,87.4.6c18.2,2.5,32.1,13.2,45.4,24.7,3.7,3.2,5.5,3.9,9.6.3,11.9-10.5,24.6-20.2,40.4-24C189.1.1,196.3-.7,202.5.8s11.4,6.8,14.2,13.3c5.8,13.8,7.5,27.9,4.3,42.7-1,4.9-1.4,10.1-2.3,15.1s1.5,4.5,4.1,5.7c10.8,4.8,22,9,32.2,14.9S272.1,105.6,275.1,116.6Zm-17.8,16.9c7.2-7,7.5-14.8.6-21.9-11.7-11.9-26.6-17.9-42.4-22.9-.9,2-1.7,3.6-2.3,5.3-2.5,6.8-4.1,14.1-7.5,20.4s-2.1,11.5.5,17.2c1.1,2.4,1.9,4.9,2.8,7.3,2.1,5.6,4.2,11.1,6.4,17.1,4.2-1.6,8.1-2.8,12-4.4C238.3,147.2,248.8,141.9,257.3,133.5Zm-48.7,79a172.5,172.5,0,0,0,.1-24.9c-.4-5.3-1.9-10.5-2.9-15.5-11.7,1.9-22.5,3.5-33.1,5.7-2.7.5-5.2,3.1-7.2,5.2s-4.1,6-6.3,8.8c-3.6,4.5-7.4,8.9-11.8,14,12.8,10.9,25.1,21.8,41.6,25.4,5.8,1.3,12.2,1,15.4-5.1A35.3,35.3,0,0,0,208.6,212.5Zm1-170.1c-.9-6.1-1.6-12.8-2.9-19.4s-9-11.7-16.2-10.2c-15.8,3.4-28.2,12.5-40.1,22.7-2.9,2.4-2.5,3.9-.4,6.4,6.3,7.4,12.4,15.1,18.7,22.5a9.6,9.6,0,0,0,5,2.6c9.2,1.7,18.6,3.1,27.8,4.8,3.1.6,4.9-.4,5.2-3.5C207.7,59.9,208.6,51.6,209.6,42.4Zm-8,44.6a3,3,0,0,0-1.5-2.6c-6.2-1.5-12.4-2.6-18.6-3.9l-.6,1.8,13.4,22.6A39.8,39.8,0,0,0,201.6,87Zm1.5,72.2c-3-7.1-3.8-14.2-8.9-20l-13.3,23.3.6,1.5Zm-17-32.2a8.9,8.9,0,0,0,0-9.8c-5.9-10.1-11.4-20.5-17.5-30.6-2.5-3.9-4.5-8.8-10.9-8.6-14.2.3-28.3.1-42.4.1-3.1,0-4.5,1.4-5.9,4.1-4.5,8.3-9.7,16.1-14.3,24.4a137.2,137.2,0,0,0-6.9,15.1,4,4,0,0,0,.6,3.3c7.1,12.5,14.1,25,21.5,37.3a8.2,8.2,0,0,0,5.5,3.3c7.6.8,15.2,1,22.8,1.4a4.3,4.3,0,0,0,.1-.5c5.1,0,10.3.5,15.4-.1s9.2.8,12.2-4.6C172.6,150,179.4,138.6,186.1,127ZM122.8,64.5h30.7L137.7,47.4Zm30.3,115.1H127.7a22,22,0,0,0-3.3.5c3.7,5.5,6.8,10.5,10.4,15.1.6.8,4.1.5,5.1-.5C144.3,190.2,148.3,185.2,153.1,179.6ZM125.8,42c2.3-2.7,2.3-4.3-.6-6.4-5.9-4.4-11.3-9.7-17.6-13.6s-15.4-8.5-24.5-8.9c-7.1-.3-12.8,4.1-14,11.1S67,38.8,66.3,43.9c.8,9,1,15.6,1.9,22.1s2.3,6.4,8,5.2,12.8-2,19.1-3.3c4-.8,9.1-1.2,11.7-3.8C113.8,57.3,119.4,49.3,125.8,42ZM101.5,225.8A115.7,115.7,0,0,0,128,206.1c-7.2-9.2-13.9-17.9-20.8-26.5a6.6,6.6,0,0,0-3.8-1.9l-33-5.4a40.7,40.7,0,0,0-1.3,5c-.7,10.7-2,21.4-1.8,32.1a36.2,36.2,0,0,0,4.4,16.4c1.4,2.8,5.7,4.9,9.1,5.5C88.4,232.8,95,229.3,101.5,225.8ZM95.7,164,81.8,138.4c-1.2,1-1.9,1.4-2.1,1.9-1.9,5.8-3.7,11.7-5.4,17.6-.2.5.9,1.9,1.6,2C82.1,161.3,88.4,162.5,95.7,164ZM80.6,106.8,95.9,80.6,72.8,84.5Zm-8.9,22.1c1.3-3.7,2.4-7.9-.4-11.8-1.1-1.6-1.6-3.7-2.3-5.5-2.7-7.6-5.5-15.1-8.5-23.4-8.1,3.4-15.5,6.6-23,9.6-9.3,3.7-17.5,9-22.3,18-1.7,3-1.9,7.7-.9,11.1s3.8,6.3,6.4,8.6c11.4,10.1,25.3,15.4,39.7,20.3.7-1.3,1.4-2.4,1.9-3.6C65.5,144.5,68.9,136.8,71.7,128.9Z"/><path class="cls-1" d="M138.4,96.7c12.7.2,26,10.7,24.7,25.8,1.4,15.3-14.2,25.8-25.3,25.3-14.4-.6-25.4-11.1-25.5-25.7S124.6,96.5,138.4,96.7Z"/></g></g></svg>