<svg xmlns="http://www.w3.org/2000/svg" viewBox="0 0 512 384"><defs><style>.cls-1{fill:#ce6999;}.cls-2{fill:#fff;}</style></defs><g id="Layer_2" data-name="Layer 2"><g id="Layer_1-2" data-name="Layer 1"><path class="cls-1" d="M512,271v11a14.2,14.2,0,0,0-1.2,2.5c-3,10.9-10,18.4-20,22.9-2.1,1-4.9.4-7.4.5,1.4-1.7,2.5-3.9,4.3-5.2,14.2-10.3,17.1-23.5,8.4-38.8A43.2,43.2,0,0,0,479,247.6c-17.9-9.7-37.2-11-56.9-9-7.4.8-14.7,3.2-22.3,4.9l2.7,9.7c3.1,11.4,1.4,21.7-6.3,30.9-9.5,11.3-21.8,18.1-35.8,21.7-10.1,2.5-16.6-3.1-16.4-13.6a33.1,33.1,0,0,1,.6-5.4c3.6-16.3,13.7-28.3,25.6-39,3-2.8,2.8-4.6,1.5-8-3.6-8.8-6.7-17.7-9.8-26.7a83.4,83.4,0,0,1-2-8.3c-8.3,14.1-16.1,28.2-24.9,41.7-4.2,6.3-5.4,11.4-2.6,18.9,5.5,15,3.5,29.5-8.6,40.9S299,321.7,284,322.9c-5.5.4-11.7.7-14.5-5.3s1.3-10.1,4.7-14.3c9.8-12.2,19.6-24.4,29.6-36.5,2.2-2.7,2.4-5,.7-8a74.9,74.9,0,0,1-5.6-11.8c-3-8.7-5.6-17.6-8.6-26.9-.7,1.8-1.4,3.4-2.2,5-8.7,19.3-17,38.8-26.4,57.7-6.6,13.3-14.5,26.1-22.6,38.7-3.6,5.6-9.3,10.3-16.9,8.1s-9.6-9.2-10.2-16.2-.1-13.8-.1-20.6a12.7,12.7,0,0,0-2.9,4.6c-4.8,9.7-9.4,19.5-14.4,29-7.4,14.3-26.3,15-34.5-.9a82.3,82.3,0,0,1-8.6-49.9c.6-4.1,1.4-8.1,2.2-12.2.4-2,.8-4.1,1.3-6.1l.6-3,.6-3.1h0l.4-.6-.6.4c-9.2,4.9-18.3,9.9-27.2,14.9,6.4,17.9,7.5,27,5.3,45.8-3.9,33.4-31,63-64.1,70.3l-8,2H45a6.7,6.7,0,0,0-2.1-1c-14.4-1.4-21.8-10.7-24.8-23.7-4-17.4.1-33.5,12.1-46.4a201.6,201.6,0,0,1,30.9-26.6c12.1-8.6,25.5-15.5,38.7-23.4-1.7-1.3-3.3-2.9-5.2-4.2C76,245,57,231.8,38.7,217.6,24.9,206.8,12.9,194,5.4,177.8,3.3,173.3,1.8,168.6,0,164V149c.3-.4.8-.7.9-1.1,4.4-21.5,16.2-38.8,30.6-54.7,20-22,44-39,70.1-53.1,29.9-16.3,60.8-30,94.5-36.6C202.7,2.2,209.4,1.2,216,0h31c6.8,1.3,13.6,2.4,20.3,4,15.9,3.9,30.6,10.2,42,22.6A48.9,48.9,0,0,1,322,56.4c2,24.8-7.3,46-22.1,65.1-22.4,28.9-52.8,44.4-88.1,51.5-19.8,3.9-39.6,5.5-59.5.9a51.7,51.7,0,0,1-26.9-15.3,51.1,51.1,0,0,1-6.8-10.9c-.7-1.5.3-3.7.5-5.5,1.7.6,3.9.8,5,1.9a43.2,43.2,0,0,0,28.7,13.8c10.5.9,21.3,1.2,31.7-.3,28.1-4,53.6-14.6,75.6-32.8,15.4-12.7,28.1-27.5,33.3-47.4,4.6-18-.8-31.6-16.2-38.4a89.5,89.5,0,0,0-24.9-6.9c-34.6-4.2-67.1,4.6-98.4,18.2S92.5,81,67.2,104.8c-9.9,9.3-18.6,19.7-23.8,32.4-9.6,23.4-6.7,42.9,13.9,63.1,11.2,10.8,24,20.1,35.9,30.1,7.6,6.4,15,12.8,22.2,19.4,2.3,2.1,4,2.8,6.9,1.2,15-8.4,30.1-16.5,45.1-24.8a15.5,15.5,0,0,0,4-3.7c7.9-9.8,17-18.2,28.4-23.8a49.8,49.8,0,0,1,11.8-4c9.9-2,17.7,3.2,19.2,13.3.8,5.8.2,11.8.2,18.2,1.5-.7,2.6-1.6,3.6-1.5,3.6.5,7.5.7,10.7,2.2s2.8,5.4,2,8.9c-4,15.6-8,31.2-11.6,47-1.2,5-1.1,10.3-1.6,15.6l1.7.5a45,45,0,0,0,3.1-4.5q22.5-49.5,44.9-99.1a56,56,0,0,0,3.2-11.5c.8-4.2,3-6.8,7.2-7.1,6.4-.5,12.9-1.4,19.2-.8s7.2,3.2,5.1,9c-4.7,12.6-7,25.4-3.5,38.6,1.5,5.3,3.9,10.4,6.5,17.1,5.6-9.6,10.4-17.6,15-25.8,8.1-14.6,16.3-29.1,19.4-45.8.9-4.9,3.9-7.4,8.4-7.7,6.2-.5,12.6-1.1,18.8-.4s6.7,3.3,4.7,8.4c-4.7,12.3-7.1,24.9-3.7,37.7,2.1,8.2,6,16,9,23.7,10.1-2.9,18.9-6.3,28.1-8.1,21-3.8,41.6-2.7,60.7,7.8,15.7,8.7,26.3,21.2,29.3,39.4C511.2,270.3,511.7,270.6,512,271ZM360.8,289.9c17-4.3,27-22.7,19.7-35.2A60.1,60.1,0,0,0,360.8,289.9Zm-72.2,16.6c10.8-.2,24.9-16.9,24.7-28.9ZM218,219.1c.7-3.8-1.7-5.9-5-4.2-5,2.7-10.6,5.4-14.1,9.7-14,17.2-21.9,37-22.9,59.7,1.1,6,1.7,12.1,3.4,18s4.5,5,7.5,1a37.1,37.1,0,0,0,5-8.6c7.5-19.2,14.9-38.4,22-57.7C216,231.2,216.9,225.1,218,219.1ZM67.2,354.4c33.6-7.5,56-47,45.2-80.4-17.9,10.4-35,21.2-49.3,35.6-8.8,9-14.8,19.8-15,32.8C48,350.9,52.4,355,60.8,355A26.8,26.8,0,0,0,67.2,354.4Z"/><path class="cls-2" d="M156.6,250.6l-.4.6-.2-.2Z"/><path class="cls-2" d="M156.2,251.2h0l-.6,3.1Z"/><path class="cls-2" d="M155,257.3c-.5,2-.9,4.1-1.3,6.1C154.1,261.4,154.5,259.3,155,257.3Z"/></g></g></svg>