<svg xmlns="http://www.w3.org/2000/svg" viewBox="0 0 474 570"><defs><style>.cls-1{fill:#ee4624;}.cls-2{fill:#fdfcf9;}</style></defs><g id="Layer_2" data-name="Layer 2"><g id="Layer_1-2" data-name="Layer 1"><path class="cls-1" d="M276,0h42c1.2.6,2.4,1.6,3.7,1.8,5.2,1,10.6,1.5,15.7,2.7,29.1,6.8,55.3,19.5,77.7,39.4C443,68.8,462.6,99,470.4,136.1c.8,3.7,2.4,7.3,3.6,10.9v43c-.7,1.1-1.8,2.2-1.9,3.3A148.4,148.4,0,0,1,451.3,251c-2.1,3.4-2.3,5.9-.5,9.4a143.5,143.5,0,0,1,14.9,49.4c2.4,22,1.1,43.8-5.4,65.2-10.1,33.8-29.4,61.1-58.5,80.9-23.7,16.1-48.2,31-72.4,46.4l-63.7,40.6c-20.6,13.2-42.8,21.9-67,25.2-1,.2-1.8,1.3-2.7,1.9H152c-1.2-.7-2.3-1.8-3.6-2.1-3.8-.9-7.8-1.3-11.7-2.2C99,556.7,67,538.2,41.4,509c-19-21.7-32-46.5-37.9-74.9C2.7,430,1.2,426,0,422V378c.6-1,1.7-2,1.8-3.1a149.9,149.9,0,0,1,21.5-57.3,6.8,6.8,0,0,0,.4-5.4A154.7,154.7,0,0,1,7.9,222.3c5.7-48.6,29.4-85.9,70.4-112.3s83.9-53.3,125.5-80.4c20.9-13.5,43.1-23.1,67.7-27.3C273.1,2,274.5.8,276,0ZM72.9,365.4c-1.8,6.7-3.6,12-4.7,17.5-5.8,30,.9,57.1,19.6,81.1,15.7,20.2,36.1,33.2,61.4,38.5a106,106,0,0,0,44.5,0c14-3,26.3-9.8,38.3-17.4,39.7-25.3,79.2-50.8,119.2-75.6,24.7-15.4,42.2-35.6,47.6-64.8,3.5-19.1,2-38-6-55.8-12.4-27.5-32.4-47.3-61.1-57.7s-58-9.1-85.1,6.5c-18.1,10.4-35.3,22.2-53,33.3a33.4,33.4,0,0,1-25.2,5.2c-11.2-2.1-22.1-12.4-24.2-23-2.6-13.2,2.2-24.1,13.5-31.2,16.4-10.3,32.9-20.6,49.2-31.1q40.7-26,81.1-52.1a32,32,0,0,1,44.2,9.9c4.5,7.2,4.7,15,4,23.4,23.4,6.3,44.1,17.5,63.5,32.1,10.6-25.8,10.8-51.4-.5-75.7-17.3-37.4-47-59.6-88.7-62.8a112.2,112.2,0,0,0-37,3.2c-16.4,4.4-30.1,14.8-44.4,23.9q-54.9,35.1-109.9,69.8c-21,13.2-36.4,30.8-42.7,54.8-8.9,33.6-1.9,64.3,21,90.9,20.5,23.8,46.8,36.2,78.1,36.9,19.7.5,38.2-4,55-14.8s32.8-20.7,49.1-31.2c8.2-5.3,17.2-7,26.3-4.6,12.9,3.5,21.2,12.2,23.2,25.7s-4.2,22.2-15.1,29.1c-42.7,27-85.2,54.3-127.9,81.5-15.7,10-35.3,6.1-45.1-9.1-4.6-7.2-5.7-15.1-4.6-23.9A189.1,189.1,0,0,1,72.9,365.4Z"/><path class="cls-2" d="M72.9,365.4a189.1,189.1,0,0,0,63.6,32.5c-1.1,8.8,0,16.7,4.6,23.9,9.8,15.2,29.4,19.1,45.1,9.1,42.7-27.2,85.2-54.5,127.9-81.5,10.9-6.9,16.9-16.1,15.1-29.1s-10.3-22.2-23.2-25.7c-9.1-2.4-18.1-.7-26.3,4.6-16.3,10.5-32.8,20.7-49.1,31.2s-35.3,15.3-55,14.8c-31.3-.7-57.6-13.1-78.1-36.9-22.9-26.6-29.9-57.3-21-90.9,6.3-24,21.7-41.6,42.7-54.8Q174.3,128,229.1,92.8c14.3-9.1,28-19.5,44.4-23.9a112.2,112.2,0,0,1,37-3.2c41.7,3.2,71.4,25.4,88.7,62.8,11.3,24.3,11.1,49.9.5,75.7-19.4-14.6-40.1-25.8-63.5-32.1.7-8.4.5-16.2-4-23.4a32,32,0,0,0-44.2-9.9q-40.5,26.1-81.1,52.1c-16.3,10.5-32.8,20.8-49.2,31.1-11.3,7.1-16.1,18-13.5,31.2,2.1,10.6,13,20.9,24.2,23a33.4,33.4,0,0,0,25.2-5.2c17.7-11.1,34.9-22.9,53-33.3,27.1-15.6,55.8-17,85.1-6.5s48.7,30.2,61.1,57.7c8,17.8,9.5,36.7,6,55.8-5.4,29.2-22.9,49.4-47.6,64.8-40,24.8-79.5,50.3-119.2,75.6-12,7.6-24.3,14.4-38.3,17.4a106,106,0,0,1-44.5,0c-25.3-5.3-45.7-18.3-61.4-38.5-18.7-24-25.4-51.1-19.6-81.1C69.3,377.4,71.1,372.1,72.9,365.4Z"/></g></g></svg>