<svg xmlns="http://www.w3.org/2000/svg" viewBox="0 0 470 416.3"><defs><style>.cls-1{fill:#f05139;}</style></defs><g id="Layer_2" data-name="Layer 2"><g id="Layer_1-2" data-name="Layer 1"><path class="cls-1" d="M226.2,416.3c-3-2.9-7.1-2.3-10.7-2.7a329.6,329.6,0,0,1-49.1-10.3A258,258,0,0,1,125,387,304.8,304.8,0,0,1,0,272.9c3.3-.7,5.3,1.6,7.4,2.9A361.5,361.5,0,0,0,87.1,313c40,13,80.6,13.4,121.6,6,16.8-3,33.1-7.3,47.7-16.4a27.5,27.5,0,0,0,3.3-2.3,12.6,12.6,0,0,0,1.9-2c-80.3-70-156.2-144-216.1-233,57.9,44.5,114.6,90.7,176.2,130.6-20.1-24.2-41.5-47.4-60.1-72.8s-36.6-51-53.8-77.4c69.7,63.2,142,122.6,221.1,174.5,2.6-4.5,3.7-9.4,4.9-14.1,6.4-26.6,7.5-53.4,4.2-80.6-4.8-38.4-18-73.7-37.1-107.1-1.7-3-3.5-6-5.3-9L290,0c34.5,22.3,64.9,47.7,90,78.9a277.6,277.6,0,0,1,35,55.7,230.4,230.4,0,0,1,21.7,110.8c-.8,14.1-2.6,28.2-6.9,41.7-1.1,3.4-.3,5.8,1.9,8.6,15.8,19.8,27.9,41.6,33.8,66.5a3.4,3.4,0,0,0,.9,3.6l.2,1.4c-.2,1.6-.4,3.1.8,4.4l.3,1.6c-.3,1.6-.4,3.2.7,4.5v.4a14,14,0,0,0,.9,7.3h0l.6,23.9c0,2.1.1,4.3-1.8,5.9-7.8-9.9-16.4-19.1-26.6-26.6-17.4-12.7-36.4-17.8-57.8-14-14.4,2.6-27.1,9.6-39.6,16.2-20.4,11-41.5,19.6-64.5,23.1-2.9.4-6.4-.5-8.7,2.4h-7c-.7-1.6-2-2-3.6-2H240.7c-1.6,0-2.9.4-3.6,2Z"/></g></g></svg>