<svg xmlns="http://www.w3.org/2000/svg" viewBox="0 0 473 473"><defs><style>.cls-1{fill:#3977bc;}.cls-2{fill:#fafcfd;}</style></defs><g id="Layer_2" data-name="Layer 2"><g id="Layer_1-2" data-name="Layer 1"><path class="cls-1" d="M473,258.9V433.4a18.1,18.1,0,0,1-1.2,5.1c-2.9,8.8-7.4,16.5-14.4,22.7s-15.5,11.6-25,11.6q-108,.3-215.9.2H46.4c-5.4,0-10.5-.3-15.8-2.5-13.4-5.6-22.5-14.8-27.9-28A54.4,54.4,0,0,0,0,437.1V35.9a27.3,27.3,0,0,0,2.3-4.5C7.6,17.1,17.4,7.4,31.7,2.2A33.6,33.6,0,0,0,35.9,0H438.1c.4.5.7,1.4,1.2,1.5,7.6,2.2,13.8,6.6,19.7,11.9,7.9,7.3,13.7,16.4,13.7,26.5Q473.2,149.4,473,258.9ZM389.6,429.4c25.9-6.6,47.9-26.9,44.3-62.3-.9-8.2-2.7-17-6.7-24.1-5.5-9.8-14.4-17.4-24.6-22.7s-22.3-10.3-33.2-16c-7.8-4.1-16-8.4-22.5-14.2-10.2-9.1-6.5-24.1,6.2-29.1a66,66,0,0,1,31.1-4c14.4,1.5,27.8,5.6,40.5,14.8.2-2.5.4-3.8.4-5.1,0-11.5-.2-22.9.1-34.4.1-3.8-1.2-5.5-4.7-6.1-12.4-2.1-24.8-5.1-37.3-6-20.9-1.6-41.6.6-60.6,10.5A56.8,56.8,0,0,0,302,314.3c2.6,3.7,5.2,7.6,8.7,10.1a153.7,153.7,0,0,0,21.5,13.3c9.8,5,20.3,8.5,29.9,13.7a84.5,84.5,0,0,1,19,14.1c5.5,5.5,5.5,15.7,1,20.3s-11.6,9.3-19.1,10.5c-24,3.7-45.8-2.1-65.5-16.2l-4.8-3.4v38.4c0,8-.1,8.3,7.6,10.9A153.6,153.6,0,0,0,389.6,429.4ZM274.1,262.5V224.8H109.3v37.8h58.5V431.1h47.4V262.5Z"/><path class="cls-2" d="M433.9,367.1c3.6,35.4-18.4,55.7-44.3,62.3a153.6,153.6,0,0,1-89.3-3.4c-7.7-2.6-7.6-2.9-7.6-10.9V376.7l4.8,3.4C317.2,394.2,339,400,363,396.3c7.5-1.2,13.9-5.1,19.1-10.5s4.5-14.8-1-20.3a84.5,84.5,0,0,0-19-14.1c-9.6-5.2-20.1-8.7-29.9-13.7a153.7,153.7,0,0,1-21.5-13.3c-3.5-2.5-6.1-6.4-8.7-10.1a56.8,56.8,0,0,1,20.6-83.6c19-9.9,39.7-12.1,60.6-10.5,12.5.9,24.9,3.9,37.3,6,3.5.6,4.8,2.3,4.7,6.1-.3,11.5-.1,22.9-.1,34.4,0,1.3-.2,2.6-.4,5.1-12.7-9.2-26.1-13.3-40.5-14.8a66,66,0,0,0-31.1,4c-12.7,5-16.4,20-6.2,29.1,6.5,5.8,14.7,10.1,22.5,14.2,10.9,5.7,22.3,10.4,33.2,16s19.1,12.9,24.6,22.7C431.2,350.1,433,358.9,433.9,367.1Z"/><path class="cls-2" d="M274.1,224.8v37.7H215.2V431.1H167.8V262.6H109.3V224.8Z"/></g></g></svg>