<svg xmlns="http://www.w3.org/2000/svg" viewBox="0 0 289.4 174.5"><defs><style>.cls-1{fill:#feffff;}.cls-2{fill:#4aadb4;}.cls-3{fill:#42a3b3;}.cls-4{fill:#50b5b4;}.cls-5{fill:#4db0b4;}.cls-6{fill:#44a7b3;}.cls-7{fill:#49adb4;}.cls-8{fill:#55bab6;}</style></defs><g id="Layer_2" data-name="Layer 2"><g id="Layer_1-2" data-name="Layer 1"><path class="cls-1" d="M114.4,97.9c-5.7-2.4-11.3-5.3-17.1-7.2-13.7-4.3-27.9-4.3-41.8-1.8-20.2,3.7-36.4,13.6-46,32.5L0,142.4l1.4.8L4.2,140c18-21.3,46-24.1,64.9-5.8,2,1.9,4.2,3.7,6.3,5.6,9,9.4,17.7,19.3,29.9,25,3.1,1.5,6.1,3.3,9.3,4.4,16.6,6.1,33.7,6.8,50.8,3s32.8-13.8,41.9-30.7a68.4,68.4,0,0,0,9.2-22.7l-6,5.7c-16.9,18-43.4,20.5-62.2,3.2l-6-5.1C134.2,113,125.4,104.2,114.4,97.9Zm17.9-58,25.6,23c22.8,23.5,50.8,28.6,81.5,21.8,24.4-5.3,39.1-21.7,47.4-44.6.8-2.5,1.4-5.1,2.6-9-3,2.9-4.9,4.7-6.7,6.6-8,8.4-17.6,13.7-29.2,14.6-9.1.8-17.7-1.9-25.8-5.8L201.3,21.8c-7-4.9-13.5-10.7-21-14.4-15.6-7.6-32.5-8.7-49.5-6.2S97.7,11.4,86.7,26.3A69.6,69.6,0,0,0,74.1,55.5c1.4-.7,2.2-2,3.2-3.1C90.9,37.2,109.7,29.3,132.3,39.9Z"/><path class="cls-2" d="M227.7,46.5c8.1,3.9,16.7,6.6,25.8,5.8,11.6-.9,21.2-6.2,29.2-14.6,1.8-1.9,3.7-3.7,6.7-6.6-1.2,3.9-1.8,6.5-2.6,9-8.3,22.9-23,39.3-47.4,44.6-30.7,6.8-58.7,1.7-81.5-21.8l26.8-6.1c4.8-1.1,9.7-1.9,14.4-3.1C208.7,51.4,218.2,48.9,227.7,46.5Z"/><path class="cls-3" d="M132.3,39.9c-22.6-10.6-41.4-2.7-55,12.5-1,1.1-1.8,2.4-3.2,3.1A69.6,69.6,0,0,1,86.7,26.3c11-14.9,26.2-22.5,44.1-25.1s33.9-1.4,49.5,6.2c7.5,3.7,14,9.5,21,14.4-3.6,1.1-7.1,2.5-10.7,3.3-15.1,3.4-30.3,6.5-45.3,10C140.8,36.1,136.6,38.3,132.3,39.9Z"/><path class="cls-4" d="M105.3,164.8c-12.2-5.7-20.9-15.6-29.9-25a25,25,0,0,1,5.3-2.3c5.7-1.4,11.5-2.5,17.3-3.7,11.4-2.5,22.9-4.8,34.2-7.4,3.5-.8,6.7-2.5,10.1-3.8l6,5.1c18.8,17.3,45.3,14.8,62.2-3.2l6-5.7a68.4,68.4,0,0,1-9.2,22.7c-15.3,2.9-30.7,5.7-45.9,8.8s-28.6,5.9-42.8,9.2C114,160.6,109.7,163,105.3,164.8Z"/><path class="cls-5" d="M142.3,122.6c-3.4,1.3-6.6,3-10.1,3.8-11.3,2.6-22.8,4.9-34.2,7.4-5.8,1.2-11.6,2.3-17.3,3.7a25,25,0,0,0-5.3,2.3c-2.1-1.9-4.3-3.7-6.3-5.6C50.2,115.9,22.2,118.7,4.2,140l-2.8,3.2L0,142.4l9.5-21,19.3-3.7c27.1-5.7,54.1-11.4,81.2-17.3,1.5-.3,2.9-1.6,4.4-2.5C125.4,104.2,134.2,113,142.3,122.6Z"/><path class="cls-6" d="M132.3,39.9c4.3-1.6,8.5-3.8,13-4.8,15-3.5,30.2-6.6,45.3-10,3.6-.8,7.1-2.2,10.7-3.3l26.4,24.7c-9.5,2.4-19,4.9-28.6,7.2-4.7,1.2-9.6,2-14.4,3.1l-26.8,6.1Z"/><path class="cls-7" d="M114.4,97.9c-1.5.9-2.9,2.2-4.4,2.5-27.1,5.9-54.1,11.6-81.2,17.3L9.5,121.4c9.6-18.9,25.8-28.8,46-32.5,13.9-2.5,28.1-2.5,41.8,1.8C103.1,92.6,108.7,95.5,114.4,97.9Z"/><path class="cls-8" d="M105.3,164.8c4.4-1.8,8.7-4.2,13.3-5.3,14.2-3.3,28.5-6.3,42.8-9.2s30.6-5.9,45.9-8.8c-9.1,16.9-23.6,26.6-41.9,30.7s-34.2,3.1-50.8-3C111.4,168.1,108.4,166.3,105.3,164.8Z"/></g></g></svg>