<svg xmlns="http://www.w3.org/2000/svg" viewBox="0 0 296.7 304.7"><defs><style>.cls-1{fill:#fff;}</style></defs><g id="Layer_2" data-name="Layer 2"><g id="Layer_1-2" data-name="Layer 1"><g id="Q15kRg.tif"><path class="cls-1" d="M0,152.1c29.6,29.5,58.4,58.3,87.3,86.9a8.1,8.1,0,0,0,5.3,1.8c9.9.2,19.7.2,29.5.1,2.7-.1,4.5.6,5.9,3.3,4.5,8.3,9.1,16.6,14,24.6a11,11,0,0,0,5.4,4.4q34.9,9.8,70.1,19l47.3,12.5c.5-1.3,1-2.3,1.3-3.4,10.1-37.9,20.3-75.9,30.3-113.8a9.7,9.7,0,0,0-.8-6.5c-4.6-8.4-9.5-16.7-14.6-24.9-1.7-2.7-1.9-4.7-.1-7.6,5-8,9.8-16.2,14.4-24.4,1-1.9,1.7-4.5,1.2-6.4-7.8-29.7-15.8-59.3-23.7-88.9C270.2,19.3,267.7,9.7,265,0c-1.5.3-2.7.3-3.8.6L146.4,31.5a7.4,7.4,0,0,0-3.9,3.3c-5,8.4-9.8,16.9-14.5,25.5-1.5,2.9-3.5,3.9-6.7,3.8-9.1-.4-18.2-.8-27.4-.6a11.9,11.9,0,0,0-7.7,3.3C71.2,81.4,56.5,96.3,41.6,111Z"/><path d="M0,152.1,41.6,111C56.5,96.3,71.2,81.4,86.2,66.8a11.9,11.9,0,0,1,7.7-3.3c9.2-.2,18.3.2,27.4.6,3.2.1,5.2-.9,6.7-3.8,4.7-8.6,9.5-17.1,14.5-25.5a7.4,7.4,0,0,1,3.9-3.3L261.2.6c1.1-.3,2.3-.3,3.8-.6,2.7,9.7,5.2,19.3,7.8,28.8,7.9,29.6,15.9,59.2,23.7,88.9.5,1.9-.2,4.5-1.2,6.4-4.6,8.2-9.4,16.4-14.4,24.4-1.8,2.9-1.6,4.9.1,7.6,5.1,8.2,10,16.5,14.6,24.9a9.7,9.7,0,0,1,.8,6.5c-10,37.9-20.2,75.9-30.3,113.8-.3,1.1-.8,2.1-1.3,3.4l-47.3-12.5q-35.1-9.3-70.1-19a11,11,0,0,1-5.4-4.4c-4.9-8-9.5-16.3-14-24.6-1.4-2.7-3.2-3.4-5.9-3.3-9.8.1-19.6.1-29.5-.1a8.1,8.1,0,0,1-5.3-1.8C58.4,210.4,29.6,181.6,0,152.1Zm60.1-14.8,5.7.3c32.6,0,65.2-.1,97.8.1,4.1,0,6.1-1.5,8.1-4.9,14.5-25.5,29.3-50.8,44-76.2,2.1-3.7,4-7.4,6.6-12.2-2.9.4-4.3.5-5.7.8L130.3,67.4a10.6,10.6,0,0,0-4.6,2.6L78.1,118.9ZM248,58.5c-1.2,1.4-1.8,2-2.2,2.6q-25.5,44.1-50.9,88.3c-.9,1.5-.6,4.5.3,6.2q22.4,39,44.9,77.9l7.4,12.4a34.7,34.7,0,0,0,1.6-3.6c8.2-29.4,16.5-58.7,24.6-88,.5-1.6,0-3.6-.4-5.3q-9.4-34.5-19.1-68.9C252.2,73.2,250.2,66.3,248,58.5ZM222.2,260.4c-1.6-3.3-2.5-5.4-3.6-7.4q-23.7-41.1-47.5-82.3c-1.6-2.8-3.4-3.9-6.7-3.9-32.9.2-65.8.1-98.8.1-1.3,0-2.7.3-4.8.4a46.1,46.1,0,0,0,3,3.8c20,20.6,40,41.2,60.3,61.6a19.9,19.9,0,0,0,8.7,4.9c24.6,6.6,49.2,12.9,73.8,19.2C211.3,258,216.1,259,222.2,260.4Z"/><path class="cls-1" d="M60.1,137.3l18-18.4L125.7,70a10.6,10.6,0,0,1,4.6-2.6l86.3-22.2c1.4-.3,2.8-.4,5.7-.8-2.6,4.8-4.5,8.5-6.6,12.2-14.7,25.4-29.5,50.7-44,76.2-2,3.4-4,4.9-8.1,4.9-32.6-.2-65.2-.1-97.8-.1Z"/><path class="cls-1" d="M248,58.5c2.2,7.8,4.2,14.7,6.2,21.6q9.6,34.4,19.1,68.9c.4,1.7.9,3.7.4,5.3-8.1,29.3-16.4,58.6-24.6,88a34.7,34.7,0,0,1-1.6,3.6l-7.4-12.4q-22.5-39-44.9-77.9c-.9-1.7-1.2-4.7-.3-6.2q25.3-44.2,50.9-88.3C246.2,60.5,246.8,59.9,248,58.5Z"/><path class="cls-1" d="M222.2,260.4c-6.1-1.4-10.9-2.4-15.6-3.6-24.6-6.3-49.2-12.6-73.8-19.2a19.9,19.9,0,0,1-8.7-4.9c-20.3-20.4-40.3-41-60.3-61.6a46.1,46.1,0,0,1-3-3.8c2.1-.1,3.5-.4,4.8-.4,33,0,65.9.1,98.8-.1,3.3,0,5.1,1.1,6.7,3.9Q194.8,212,218.6,253C219.7,255,220.6,257.1,222.2,260.4Z"/></g></g></g></svg>