<svg xmlns="http://www.w3.org/2000/svg" viewBox="0 0 472.8 409"><defs><style>.cls-1{fill:#44b683;}.cls-2{fill:#354a5e;}</style></defs><g id="Layer_2" data-name="Layer 2"><g id="Layer_1-2" data-name="Layer 1"><g id="_0We7Y5.tif" data-name="0We7Y5.tif"><path class="cls-1" d="M472.8.1c-4,6.8-7.9,13.6-11.8,20.4L352.2,208.4,238.6,405l-2,4-19.4-33.5L132.9,229.7,49.8,86.2Q26.7,46.2,3.5,6C2.8,4.7,2.5,2.6.1,3.1-.4.6.6,0,3.1,0H95.8A5.8,5.8,0,0,0,97,4.3L155.8,106c13.5,23.2,26.9,46.5,40.4,69.8q18.8,32.5,37.7,65.1c2.4,4.2,2.9,4.1,5.2,0,5.8-10.2,11.6-20.5,17.5-30.7Q314,110.9,371.5,11.6C373.6,7.9,377,4.7,377,.1Z"/><path class="cls-2" d="M377,.1c0,4.6-3.4,7.8-5.5,11.5q-57.3,99.3-114.9,198.6c-5.9,10.2-11.7,20.5-17.5,30.7-2.3,4.1-2.8,4.2-5.2,0q-18.9-32.6-37.7-65.1c-13.5-23.3-26.9-46.6-40.4-69.8L97,4.3A5.8,5.8,0,0,1,95.8.1h86.8c-1.2,2.7,1.6,3.9,2.5,5.6q24.2,42,48.5,83.9c.8,1.5,1.3,3.4,3.2,4.2,15.2-26.3,30.4-52.3,45.4-78.5,2.9-4.9,6.5-9.6,8.1-15.2Z"/></g></g></g></svg>