<svg xmlns="http://www.w3.org/2000/svg" viewBox="0 0 449.8 447.3"><defs><style>.cls-1{fill:#e0e3e5;}.cls-2{fill:#2679a0;}.cls-3{fill:#2e9ac8;}.cls-4{fill:#2f8eae;}.cls-5{fill:#f9fbfb;}</style></defs><g id="Layer_2" data-name="Layer 2"><g id="Layer_1-2" data-name="Layer 1"><path class="cls-1" d="M13.5,149.4c1.2-6,4.6-10.8,6.1-16.1,2.5-9,9.2-15.4,12.4-23.8.8-2.2,3.8-3.6,5.7-5.3-1.3,2.5-2.6,5-4,7.4C19,137.9,9.3,165.7,6.6,195.9a17,17,0,0,0-1,3.2,221.9,221.9,0,0,0,2.6,63c5.3,28,16.4,53.5,31.3,77.7,8.8,14.1,19.8,26,30.7,38.2a11.2,11.2,0,0,0,3.2,2.4,4.1,4.1,0,0,1,1.1.7c2.8,2.9,5.3,6.1,8.3,8.6,35.6,30.4,77,47.4,123.3,51.6,37.7,3.4,74.3-3,109.1-18.4a181.4,181.4,0,0,0,40.9-24.2l3.1-3h0l5-4h-.1l1-1.1h0l2.1-1h-.1l4.2-3.9h-.2l2.5-2.1h.3a15,15,0,0,0,3.1-2.4c5-5.7,9.9-11.4,14.8-17.2,6.5-8,13.6-15.6,19.4-24.1,14.5-21.2,23.5-45,29.5-69.8,5.2-21.2,6.3-42.7,5-64.4a22.8,22.8,0,0,0-.2-2.6l1.6-.3c.3,2,1.3,3.9,1.9,5.9a15.6,15.6,0,0,1,.8,4.3c-.3,15.9-.1,31.8-1.2,47.7-.4,6.2-3.7,12.3-5.7,18.4-.1.4-.7.8-.7,1.3-.6,9.5-4.6,18.1-7.9,26.8s-8.7,18.7-13.9,27.6A303.8,303.8,0,0,1,402,362.8c-4.6,6.1-10.2,11.3-15.5,16.8-3.3,3.5-6.7,7-10.3,10.3s-8.9,8-13.6,11.8a169.6,169.6,0,0,1-16.3,11.9,213.3,213.3,0,0,1-20.9,11.6c-5.6,2.7-11.5,4.5-17.2,6.9-8.8,3.9-17.8,7.3-27.5,8.5-4.3.5-8.5,2.2-12.7,3.4-2,.5-3.9,1.3-5.8,1.4-12.4.8-24.7,1.9-37.1,1.9s-27.7-.9-41.6-2c-5-.4-9.9-2.5-14.8-4.1-7.1-2.3-14.2-4.6-21.1-7.2-13.5-5.1-26.9-10.3-38.7-18.9-9-6.5-18.6-12.1-27.8-18.4-3.1-2.1-5.6-5.2-8.4-7.6-4.7-4-9.7-7.5-14.1-11.8-2.5-2.5-3.9-6.1-5.9-9.2-.6-1-1.1-2.3-2-2.7-7.8-3.8-10.2-11.6-13.9-18.4-.9-1.7-1.7-3.5-2.5-5.2-3-6.4-5.9-13-9.2-19.3s-8.2-12.9-11.4-19.8c-2.2-4.8-2.7-10.4-4.1-15.7-.9-3.2-2.1-6.4-2.8-9.8a215.8,215.8,0,0,1-3.9-21.3C1.6,244.2.4,232.4,0,220.6c-.2-7.6,1.2-15.2,2.1-22.7S3.4,184.7,5,178.4C7.5,168.6,11.5,159.2,13.5,149.4Z"/><path class="cls-2" d="M377,381.4a15,15,0,0,1-3.1,2.4v-.2c-1-3.8-2.1-7.5-3.1-11.3a12.9,12.9,0,0,0,1.6-1.7.9.9,0,0,0,.6-.6c8.8-10.7,17.8-21.3,26.3-32.3,3.8-4.9,6.7-10.6,10-15.9l6.5,3.8c-1.2-4.8-2-8.2-2.8-11.6,4.3-10.8,9.2-21.5,12.9-32.5,8.2-24.8,10.1-50.4,8.9-76.3-.2-.7-.3-1.4-.5-2.2s-.1-2.6-.2-4l7.9-2.7,2.1-.6c.4,2.6,1,5.1,1.4,7.6a22.8,22.8,0,0,1,.2,2.6c1.3,21.7.2,43.2-5,64.4-6,24.8-15,48.6-29.5,69.8-5.8,8.5-12.9,16.1-19.4,24.1C386.9,370,382,375.7,377,381.4Z"/><path class="cls-3" d="M435.3,165.2c-.9-6-5.9-11.4-2.5-18,3.3,12.1,6.8,24.1,9.9,36.2,1,4,.9,8.2,1.4,12.3l-2.1.6C439.7,185.9,436.9,175.7,435.3,165.2Z"/><path class="cls-4" d="M434.3,203c.2.8.3,1.5.5,2.2l-.8-.3Z"/><path class="cls-3" d="M421,120.1l11.4,25c-.6-.1-1.7-.1-1.9-.4Z"/><path class="cls-5" d="M414.5,209.2l.4.5Z"/><path class="cls-4" d="M413,314c.8,3.4,1.6,6.8,2.8,11.6l-6.5-3.8C410.5,319.2,411.7,316.6,413,314Z"/><path class="cls-5" d="M413.8,207.9a.8.8,0,0,0,.2.5.8.8,0,0,1-.2-.5Z"/><path class="cls-5" d="M413.9,245.9c-.1.7-1.2,1.3-1.8,1.9.6-13.3,1.1-26.6,1.7-39.9a.8.8,0,0,0,.2.5l.5.8.4.5a4.8,4.8,0,0,1,.9,2.4c-.1,6.9-.5,13.8-.8,20.8C414.7,237.2,414.4,241.6,413.9,245.9Z"/><path class="cls-2" d="M413.5,206.7l.3,1.2h-.1A5,5,0,0,0,413.5,206.7Z"/><path class="cls-2" d="M322,378.5l54.2-156.9c1.3-3.7,3.1-7.3,4.7-10.9,1.2.6,2.5,2,3.6,1.8,9-1.8,18-3.9,26.8-5.9.6-1.8,1-3.2,1.5-4.6l.6,4.2a1.1,1.1,0,0,1,.1.5,5,5,0,0,1,.2,1.2h.1c-.6,13.3-1.1,26.6-1.7,39.9-3.7,22.9-10.5,44.6-22.1,64.7-3.6,6.2-8.3,11.8-12.1,17.9-9,14.5-20.8,26.5-34.1,37A151.8,151.8,0,0,1,321,382.3C321.3,381.1,321.6,379.7,322,378.5Z"/><path class="cls-4" d="M392.7,135.7c10.4,19,17.2,38.9,19.3,60.3l.6,3.9a14.9,14.9,0,0,0,.2,2.1c-.5,1.4-.9,2.8-1.5,4.6-8.8,2-17.8,4.1-26.8,5.9-1.1.2-2.4-1.2-3.6-1.8a24.4,24.4,0,0,1,.1-2.7l.7-2.1c1.9-6.2,3.7-12.5,5.5-18.8C392.1,170.3,392,153,392.7,135.7Z"/><path class="cls-1" d="M381.2,64.2c7.4,1.6,10.6,7.9,14.8,13.2,6.4,7.9,12.8,15.7,19.1,23.7a38.1,38.1,0,0,1,2.9,5.2c6.4,13.4,13.1,26.6,19.2,40.1,1.8,3.8,2.4,8.2,3.4,12.3,2.4,9.7,5.1,19.4,6.9,29.2.8,4.6-.6,9.5-.5,14.3a1.9,1.9,0,0,0,.1.8l-1.6.3c-.4-2.5-1-5-1.4-7.6s-.4-8.3-1.4-12.3c-3.1-12.1-6.6-24.1-9.9-36.2h0c-.1-.7-.3-1.4-.4-2.1l-11.4-25h0l-1.1-1.9a154.9,154.9,0,0,0-27.9-41l-1.7-2L388,72.6Z"/><path class="cls-1" d="M387.2,187.1c-1.8,6.3-3.6,12.6-5.5,18.8-.2-1.1-.8-2.3-.6-3.3,1-4.4,2-8.8,3.4-13.2C384.8,188.5,386.3,187.9,387.2,187.1Z"/><path class="cls-4" d="M390,91.4c-4-5.1-8.1-10.1-12.1-15.1,1.2.7,2.8,1.1,3.7,2.1,4.6,5.2,8.9,10.6,13.5,15.8a48.3,48.3,0,0,0,5.4,4.6c.9-6.8-2.6-10.9-6-14.1s-3.2-4.5-2.5-7.5a154.9,154.9,0,0,1,27.9,41l1.1,1.9h0l9.5,24.6c.2.3,1.3.3,1.9.4s.3,1.4.4,2.1h0c-3.4,6.6,1.6,12,2.5,18,1.6,10.5,4.4,20.7,6.7,31.1l-7.9,2.7c-.3-1.9-.7-3.9-1-5.9C427.9,155.3,413.7,121.3,390,91.4Z"/><path class="cls-1" d="M370.8,54.4c5.8.6,8.7,3.3,9.3,8.7Z"/><path class="cls-4" d="M376.9,75.2l-.6-.8.2.2A2.1,2.1,0,0,1,376.9,75.2Z"/><path class="cls-4" d="M372.4,370.6l.6-.6A.9.9,0,0,1,372.4,370.6Z"/><path class="cls-4" d="M371.3,385.8Z"/><path class="cls-1" d="M370.8,372.3h0l-3.2,2.6Z"/><path class="cls-4" d="M369.5,68.3l7.1,2.6c-.1,1-.4,2-.6,3Z"/><path class="cls-4" d="M79.2,380.3c3.3-3.3,5.1-1.4,7.3.5s4.6,2.5,7,3.8,6.4,4.2,9.5,6.4a211.1,211.1,0,0,0,42.8,23.9c22.5,9.1,45.8,14.7,70.1,15.4,16.9.5,33.7.5,50.2-4.5,8.6-2.7,17.8-3.7,26.8-5.5a16.6,16.6,0,0,0,3.7-1.4c7.9-4,15.9-7.9,23.8-12s16.7-8.6,24.4-13.9,15.3-11.9,22.8-18.1l3.2-2.6c1,3.8,2.1,7.5,3.1,11.3v.2h-.3l-2.5,2.1h.2l-4.2,3.9h.1l-2.1,1h0l-1,1.1h.1l-5,4h0l-3.1,3a181.4,181.4,0,0,1-40.9,24.2c-34.8,15.4-71.4,21.8-109.1,18.4-46.3-4.2-87.7-21.2-123.3-51.6-3-2.5-5.5-5.7-8.3-8.6h0c-.6-1.6-1.3-3.1-2.2-5.2l6.9-3.5Z"/><path class="cls-1" d="M356.1,239.9Z"/><path class="cls-1" d="M356.1,239.9Z"/><path class="cls-1" d="M353.3,235.4c-.1-2.2.8-4.6,1.3-6.9h1.5v11.3C355.1,238.4,353.4,237,353.3,235.4Z"/><path class="cls-3" d="M89.9,114.1c-6.4.3-11-4.4-11.3-11,4.9.2,6.8-2.3,6-7,3.1-2.2,8.9-1.8,7.9-8.1l1.9-1.9,6.4,1.4-2.3-5.8c17-16.2,36.7-28,58.4-36.4,40.4-15.8,81.5-17.2,123-4.9,13.2,3.9,26,8.9,37.3,17l1.1.8,1.9,1.7,9,4.3c1.5,6.2,7.4,10.6,15,11l1,1h0c.3,1.3.7,2.7,1.1,4.3-3.1.6-6.5.5-8.8,2-4.1,2.7-7.6,6.4-11.4,9.7l-3,4.1c-.3,0-.9-.1-1,0-3.4,5.8-11.8,5.3-14.6,12.3-.7,2-5.3,2.7-8.3,3.6a26,26,0,0,1-8.2,1.3h-8.4c-1.6,0-3.2.5-4.8.6h-6.1c-12.7-.1-25.5-.8-38,.5-16.1,1.6-32-1.3-48-.5a69.5,69.5,0,0,1-7.9-.2c-5.4-.3-10.7-1-16.1-1.3s-9.5,0-14.9,0c.1,2.3.2,4.6.3,8.3-2.5-1.4-5.3-2-6.2-3.7-2.5-4.7-6.4-5.2-10.9-4.9C116.7,112.9,103.3,113.6,89.9,114.1Z"/><path class="cls-4" d="M344.2,75.2Z"/><path class="cls-4" d="M351.2,81.9c-10.3-.9-17.6,4.8-25.1,10.2,3.8-3.3,7.3-7,11.4-9.7,2.3-1.5,5.7-1.4,8.8-2-.4-1.6-.8-3-1.1-4.3l6.1,4.6C351.3,81.1,351.2,81.5,351.2,81.9Z"/><path class="cls-4" d="M329.2,64.1l15,11.1h0c-7.6-.4-13.5-4.8-15-11h0Z"/><path class="cls-4" d="M329.2,64.1h0Z"/><path class="cls-2" d="M337.9,274.6c-6,19.6-12.1,39.2-18.5,60l-5.1-14.7c-5-14.8-10-29.6-14.9-44.4s-10.8-32.4-16.2-48.6c.8-.7,1.6-1.8,2.4-1.9,9.6-.8,19.1-1.2,28.6-2.1,11.4-1.1,22.6-2.6,33.9-4.1a3.2,3.2,0,0,0,1.9-2.3,161.9,161.9,0,0,0-.7-17.1c-1-7.2-2.7-14.4-4.1-21.6.5.4,1.2.7,1.4,1.3,5,13.2,5.8,26.6,4.9,40.7-1.3,19-7.6,36.2-13.5,53.8C337.9,273.9,338,274.2,337.9,274.6Z"/><path class="cls-4" d="M316,31.5l-22.7-9.2c3,.6,6.3.6,9.1,1.8C307.1,26.2,311.5,29,316,31.5Z"/><path class="cls-3" d="M61.8,88.3l-3.9,5.1h0a17.1,17.1,0,0,0-8.6,10.8,15.5,15.5,0,0,0-.4,2.1l-6.2-8.2L53.9,81.4l.9-1c2.6-3.1,5.3-6.1,7.9-9.1,4.4-4.3,8.7-8.6,13-13a226.5,226.5,0,0,1,68.4-42.8A212,212,0,0,1,208.3.7c43.2-3.3,84.1,5.1,122,26,14.2,7.8,27,18.4,40.5,27.7l9.3,8.7a5.7,5.7,0,0,0,1.1,1.1l6.8,8.4,2.3,2.6,1.7,2c-.7,3-.2,5,2.5,7.5s6.9,7.3,6,14.1a48.3,48.3,0,0,1-5.4-4.6c-4.6-5.2-8.9-10.6-13.5-15.8-.9-1-2.5-1.4-3.7-2.1a5.2,5.2,0,0,1-1-1.1,2.1,2.1,0,0,0-.4-.6v-.2H376v-.3c.2-1,.5-2,.6-3l-7.1-2.6C353,54.2,336,40.6,316,31.5c-4.5-2.5-8.9-5.3-13.6-7.4-2.8-1.2-6.1-1.2-9.1-1.8-.5,0-1.1.2-1.5,0-18.6-6.9-38-9.6-57.6-11.1h-2.9c-10.5-.3-21.1-1.2-31.5-.1-12.5,1.3-24.8,4.5-37,7.6-5,1.2-9.6,4.3-14.3,6.6h-.8l-3.1,1.1c-5.3-.5-8.7,2.5-12,6h0c-8.2.5-13.8,6-19.9,10.5-.2.1,0,.7,0,1l-2.1.5c-6.2,4-12.7,7.6-18.5,12.1a228.1,228.1,0,0,0-21.5,19c-3.6,3.6-5.8,8.6-8.7,12.9Z"/><path class="cls-4" d="M271.7,114h6.1c1.6-.1,3.2-.6,4.8-.6H291a26,26,0,0,0,8.2-1.3c3-.9,7.6-1.6,8.3-3.6,2.8-7,11.2-6.5,14.6-12.3.1-.1.7,0,1,0-8.1,17.2-4.1,33,4.9,48.5,5.8,9.8,11.1,19.8,16.5,29.8.5,1,.4,2.2.7,3.3,1.4,7.2,3.1,14.4,4.1,21.6a161.9,161.9,0,0,1,.7,17.1,3.2,3.2,0,0,1-1.9,2.3c-11.3,1.5-22.5,3-33.9,4.1-9.5.9-19,1.3-28.6,2.1-.8.1-1.6,1.2-2.4,1.9l-3.9-6.9c-.6-3.2-.9-6.6-1.9-9.6q-7.6-23.2-15.5-46.3c-3.5-10.3-6.9-20.7-10.6-31.5l5.5-.5c5.4-.5,10.9-.7,16.3-1.5s7.2-4.3,6.8-8.4-3.5-6.9-8.3-6.9Z"/><path class="cls-4" d="M247.6,404.7l1.7,2.9-1.8.3C247.6,406.9,247.6,405.8,247.6,404.7Z"/><path class="cls-5" d="M178.1,131.6a47,47,0,0,1-9.2-.8c-3.8-.8-5.9-4.8-5.1-9.1s2.8-6.6,7.3-6.4l6.6.3c12.7.7,25.4,1.6,38.2,1.7,16.4,0,32.9-1,49.3-1.6,2.1-.1,4.3-.4,6.4-.4,4.8,0,7.8,2.6,8.3,6.9s-2.1,7.7-6.8,8.4-10.9,1-16.3,1.5l-5.5.5c3.7,10.8,7.1,21.2,10.6,31.5q7.8,23.1,15.5,46.3c1,3,1.3,6.4,1.9,9.6l-4.3,4.4a10.5,10.5,0,0,0,.8,1.1c-16.1,4.2-32.3,2.1-48.5,2l-.2-1.3-3.8,5.3-3.8-6.3-4.8,1.8.6-1.1c.4-1.6.8-3.3,1.1-4.9,3.2-5.3,2.7-10.4.5-16.2-8-20.6-15.3-41.4-22.8-62.2C190.6,133,188.4,131.5,178.1,131.6Z"/><path class="cls-2" d="M188,403.2c2.5.8,5,2,7.5,2.2l42.5,2.1c1.3,0,2.9.1,3.9-.5a4.6,4.6,0,0,0,2.1-3.2c.1-.7-1.8-2.1-2.9-2.1-17.5-.2-35.1-.1-52.7-.1Zm15,4.7c-9.1-.5-18.2-3.4-27.3-5.1-2.5-.5-4.2-1.4-2.2-4.2,1-1.2,2.5-2.3,2.9-3.6,1.6-5.8,2.8-11.6,4.2-17.4a15.9,15.9,0,0,0,.7-2c2.1-3.9,4.5-7.6,6-11.7s2.4-11,4.8-16c1.6-3.2,2.7-6,2.1-9.5l21.9-64.5c3.5-10.4,7.1-20.8,10.7-31.2a42,42,0,0,1,1.9-4.7l58.9,160.9c-12.7,4.2-25.2,7.8-38.3,8.7l-1.7-2.9c0,1.1,0,2.2-.1,3.2C232.7,408,217.8,408.7,203,407.9Z"/><path class="cls-4" d="M188.4,401.6c17.6,0,35.2-.1,52.7.1,1.1,0,3,1.4,2.9,2.1a4.6,4.6,0,0,1-2.1,3.2c-1,.6-2.6.5-3.9.5l-42.5-2.1c-2.5-.2-5-1.4-7.5-2.2Z"/><path class="cls-4" d="M215.9,117.3c-12.8-.1-25.5-1-38.2-1.7v-1.8a69.5,69.5,0,0,0,7.9.2c16-.8,31.9,2.1,48,.5,12.5-1.3,25.3-.6,38-.5v1.3c-2.1,0-4.3.3-6.4.4C248.8,116.3,232.3,117.3,215.9,117.3Z"/><path class="cls-4" d="M192.1,347.9c-2.4,5-2.9,10.8-4.8,16s-3.9,7.8-6,11.7l12.9-37.2C194.8,341.9,193.7,344.7,192.1,347.9Z"/><path class="cls-4" d="M180.6,377.6c-1.4,5.8-2.6,11.6-4.2,17.4-.4,1.3-1.9,2.4-2.9,3.6Z"/><path class="cls-4" d="M160.7,21.4l-12.2,3.9c4.7-2.3,9.3-5.4,14.3-6.6,12.2-3.1,24.5-6.3,37-7.6,10.4-1.1,21-.2,31.5.1C207.3,10.9,183.7,13.9,160.7,21.4Z"/><path class="cls-4" d="M144.6,26.5h0l-12,6C135.9,29,139.3,26,144.6,26.5Z"/><path class="cls-2" d="M139.6,223l1.1-1c1.4.7,2.9,1.8,4.4,1.9,22,1.1,44.1,2,66.1,3h3c-5.9,17.9-11.8,35.7-17.6,53.6s-11.4,35.5-17.2,53.3a13.9,13.9,0,0,1-.9,2.2C165.4,297.8,152.5,260.4,139.6,223Z"/><path class="cls-1" d="M134.4,207.9c.4,1.4.7,2.7,1,4.1C133.1,211.1,130.5,210.3,134.4,207.9Z"/><path class="cls-4" d="M132.6,32.4,112.7,43.9c0-.3-.2-.9,0-1C118.8,38.4,124.4,32.9,132.6,32.4Z"/><path class="cls-5" d="M108.4,294.9c4.9,2.3,4,6.8,4.1,10.9Z"/><path class="cls-5" d="M108.5,294.9l-6.8-18c1,.7,2.6,1.2,2.9,2.2C106.1,284.3,107.2,289.6,108.5,294.9Z"/><path class="cls-4" d="M100.8,87.5l-6.4-1.4h.1c1.3-1.4,2.7-2.8,4-4.3Z"/><path class="cls-5" d="M94.3,256c3.6,1.8,4.4,4.6,2.8,8.2C96.2,261.5,95.3,258.7,94.3,256Z"/><path class="cls-4" d="M92.5,88Z"/><path class="cls-4" d="M84.6,96.1h-.1l8-8.2h0C93.5,94.3,87.7,93.9,84.6,96.1Z"/><path class="cls-4" d="M87.9,116.2l-18.2-1c2.9-4,5.9-8,8.8-12.1h.1c.3,6.6,4.9,11.3,11.3,11,13.4-.5,26.8-1.2,40.1-1.9,4.5-.3,8.4.2,10.9,4.9.9,1.7,3.7,2.3,6.2,3.7-.1-3.7-.2-6-.3-8.3,5.4,0,10.2-.2,14.9,0s10.7,1,16.1,1.3v1.8l-6.6-.3c-4.5-.2-6.6,2.4-7.3,6.4s1.3,8.3,5.1,9.1a47,47,0,0,0,9.2.8c10.3-.1,12.5,1.4,16,11,7.5,20.8,14.8,41.6,22.8,62.2,2.2,5.8,2.7,10.9-.5,16.2-.3,1.6-.7,3.3-1.1,4.9l-.6,1.1h-3.5c-22-1-44.1-1.9-66.1-3-1.5-.1-3-1.2-4.4-1.9l-5.3-10c-.3-1.4-.6-2.7-1-4.1-8-24.9-16.1-49.9-24.3-75.3l15.4-1.4a46.4,46.4,0,0,0,6.4-.7c4.4-.9,7.1-4.5,6.4-8.6s-3.5-6.8-8-6.6L107,116.7c-4.8.3-9.6.3-14.5.4A34,34,0,0,0,87.9,116.2Z"/><path class="cls-4" d="M84.6,96.1c.8,4.7-1.1,7.2-6,7h0l6-7Z"/><path class="cls-4" d="M78.6,103.1Z"/><path class="cls-1" d="M75.7,58.3c-4.3,4.4-8.6,8.7-13,13h0c-.2-1.8-.3-3.6-.6-5.8L68,63.7C69.6,57.7,70.8,56.8,75.7,58.3Z"/><path class="cls-2" d="M69.7,115.2l18.2,1a34,34,0,0,1,4.6.9c-7,.1-14.1.2-21.2.1C70.8,117.2,70.2,115.9,69.7,115.2Z"/><path class="cls-4" d="M108.4,46.9A217.9,217.9,0,0,0,64.2,86.8a9.4,9.4,0,0,1-2.3,1.6c2.9-4.3,5.1-9.3,8.7-12.9a228.1,228.1,0,0,1,21.5-19c5.8-4.5,12.3-8.1,18.5-12.1A13.1,13.1,0,0,1,108.4,46.9Z"/><path class="cls-1" d="M62.7,71.3c-2.6,3-5.3,6-7.9,9.1-.5-3.8,3.3-8.2,7.9-9.1Z"/><path class="cls-2" d="M37.1,211.9c.9-4.7,3.6-5.6,7.9-4.4s11.2,3,16.8,4.3,8.8,1.5,14,2.3c-1.1-4.2-1.8-7.4-2.9-10.5-4.4-12.6-9-25.2-13.4-37.8-.4-1.1,0-2.4,0-3.6q13.1,35.7,26.3,71.4L93,253.2a8.7,8.7,0,0,1,.7,1.7,7.6,7.6,0,0,1,.8,1.1h-.2c1,2.7,1.9,5.5,2.8,8.2l.6,1.7.7,2,2.3,6a14.3,14.3,0,0,1,.8,2.2,1.2,1.2,0,0,0,.2.8l6.8,18h-.1l4.1,10.9q10.4,29.1,20.8,58.1c2.2,6.2,4.6,12.4,6.7,18.7.4,1.3-.2,3-.3,4.5-1.4-.1-3.1.2-4.1-.5l-31.3-21.1c-9.7-6.7-16.1-16.5-23.8-25.1-20.4-22.5-32.3-49.2-39.1-78.3-2-8.5-2.5-17.4-3.7-26.1l-.6-8c-.1-1.4-.1-2.7-.1-4.1s.3-.2.2-.3a1.3,1.3,0,0,0-.3-.7v-6l.3-.2a1.4,1.4,0,0,0-.2-.7C37,214.6,37.1,213.2,37.1,211.9Z"/><path class="cls-4" d="M57.9,93.4l-9,12.9h0c.1-.7.3-1.4.4-2.1A17.1,17.1,0,0,1,57.9,93.4Z"/><path class="cls-4" d="M53.3,144.4c2.3,6.6,4.2,12.2,6.2,17.8,0,1.2-.4,2.5,0,3.6,4.4,12.6,9,25.2,13.4,37.8,1.1,3.1,1.8,6.3,2.9,10.5-5.2-.8-9.6-1.4-14-2.3s-11.2-2.6-16.8-4.3-7-.3-7.9,4.4c.8-15.1,2.6-29.9,8-44.1a26.4,26.4,0,0,0,1.4-5.7,25.4,25.4,0,0,0,.4-2.9V159c.1-.9.3-1.8.4-2.7l1-1.1,1.8-4.8C51,148.8,51.8,147.2,53.3,144.4Z"/><path class="cls-5" d="M48.9,106.3l.3.3-.3-.2Z"/><path class="cls-4" d="M49.3,104.2c-.1.7-.3,1.4-.4,2.1h0A15.5,15.5,0,0,1,49.3,104.2Z"/><path class="cls-4" d="M48.9,106.3Z"/><path class="cls-4" d="M48.9,106.3Z"/><path class="cls-5" d="M48.9,106.3Z"/><path class="cls-5" d="M40.1,121.4c1.2-2,2.5-4,3.8-6l5.3-8.8h0l-.3-.3,9-12.9h0l3.9-5.1h.1a9.4,9.4,0,0,0,2.3-1.6,217.9,217.9,0,0,1,44.2-39.9,13.1,13.1,0,0,0,2.2-2.5l2.1-.5,19.9-11.5h0l12-6h0l3.1-1.1h.8l12.2-3.9c23-7.5,46.6-10.5,70.6-10.2h2.9c19.6,1.5,39,4.2,57.6,11.1.4.2,1,0,1.5,0L316,31.5c20,9.1,37,22.7,53.5,36.8l6.5,5.6v.3h.3l.6.8a5.2,5.2,0,0,0,1,1.1c4,5,8.1,10,12.1,15.1,23.7,29.9,37.9,63.9,43.1,101.7.3,2,.7,4,1,5.9s.2,2.7.2,4l-.3,1.9c-1-4.2-2.1-8.5-3.1-12.8h-1.2c-.2,1.2-.5,2.5-.6,3.7-.6,5-1.1,9.9-1.5,14.9s-2.5,7.1-7.2,6.7l-1,4.9h-1.5c0-4-.1-7.9.1-11.9s-.9-5.1-4.6-4.2l-.6-4.2a14.9,14.9,0,0,1-.2-2.1L412,196c-2.1-21.4-8.9-41.3-19.3-60.3-.7,17.3-.6,34.6-5.5,51.4-.9.8-2.4,1.4-2.7,2.3-1.4,4.4-2.4,8.8-3.4,13.2-.2,1,.4,2.2.6,3.3L381,208c-2.3,3.1-5.3,5.9-6.8,9.4s-1.7,9.4-3.6,13.6-4.4,6.2-7.1,8.9-5.9,1.4-7.4,0h0V228.6h-1.5c-.5,2.3-1.4,4.7-1.3,6.9s1.8,3,2.8,4.5h0c.7,5.1,1.4,10.1,2.2,15.2l-1.7.2-3.9-15-1.6.3-1,3.7c-1,4.5-1.6,9.1-3.1,13.5s-4.7,11.4-7.2,17c-.1.2-1.2-.1-1.9-.2s0-.7.1-1c5.9-17.6,12.2-34.8,13.5-53.8.9-14.1.1-27.5-4.9-40.7-.2-.6-.9-.9-1.4-1.3s-.2-2.3-.7-3.3c-5.4-10-10.7-20-16.5-29.8-9-15.5-13-31.3-4.9-48.5l3-4.1c7.5-5.4,14.8-11.1,25.1-10.2,0-.4.1-.8.1-1.2l-6.1-4.6h0l-1-1h0l-15-11.1h0l-9-4.3-1.9-1.7-1.1-.8c-11.3-8.1-24.1-13.1-37.3-17-41.5-12.3-82.6-10.9-123,4.9-21.7,8.4-41.4,20.2-58.4,36.4-1.3,1.5-2.7,2.9-4,4.3h-.1L92.5,88h0l-8,8.2h.1l-6,7h-.1c-2.9,4.1-5.9,8.1-8.8,12.1.5.7,1.1,2,1.6,2,7.1.1,14.2,0,21.2-.1,4.9-.1,9.7-.1,14.5-.4l23.3-1.4c4.5-.2,7.2,2.2,8,6.6s-2,7.7-6.4,8.6a46.4,46.4,0,0,1-6.4.7l-15.4,1.4c8.2,25.4,16.3,50.4,24.3,75.3-3.9,2.4-1.3,3.2,1,4.1l5.3,10-1.1,1a11.9,11.9,0,0,0-2.9-1.2c-14.5-1-28.9-1.8-43.4-3-3.4-.3-6.7-1.7-10.6-2.7.2,1.4,0,3.4.6,5.1,3.2,8.6,6.6,17.1,9.7,25.7.7,1.9.1,4.2,0,6.3l-7.2-19.6q-13.2-35.7-26.3-71.4c-2-5.6-3.9-11.2-6.2-17.8-1.5,2.8-2.3,4.4-3.1,6-3.3-.4-6.4-.7-4.8,4.4.3,1.1-.3,2.6-.7,3.8-2,5.4-4.1,10.7-6.1,16.1a20.9,20.9,0,0,0-1.7,5.9c-.3,9.7-.9,19.4-6.7,26.4,0,2.9.7,5.6-.2,6.6s-4.1,1.5-5.9,1-1.9-2.9-2.3-4.6c-.7-3.3-1-6.6-1.6-10.7L16.8,202c1.4-23.8,7.9-46.2,17.6-67.8l4.5-9.9h-.1l1.2-2.9Z"/><path class="cls-1" d="M42.7,98.1l-3.9,4.3c1.7-4.2,3-8.5,5-12.4a28.7,28.7,0,0,1,5.8-7.2c1-1,2.9-1,4.3-1.4Z"/><path class="cls-3" d="M39.2,104.2l1.8-.7c2.2,2.1,5.7,3.8,1.9,8.6C41.7,109.5,40.4,106.9,39.2,104.2Z"/><path class="cls-4" d="M39.2,104.2c1.2,2.7,2.5,5.3,3.7,7.9,3.8-4.8.3-6.5-1.9-8.6Zm-.4-1.8,3.9-4.3,6.2,8.2h0l.3.2h0l-5.3,8.8c-1.3,2-2.6,4-3.8,6H40l-1.2,2.9h.1c-.7.3-1.8.4-2.1.9-3.2,6.6-6.7,13.1-9.3,19.9s-3.7,12.1-5.5,18.2-3.1,9.6-4.1,14.6c-1.4,6.8-2.3,13.8-3.4,21.3l-7.9-3.3c2.7-30.2,12.4-58,27.1-84.3,1.4-2.4,2.7-4.9,4-7.4A17.4,17.4,0,0,0,38.8,102.4Z"/><path class="cls-4" d="M37.2,216.7l-.3.2V216A1.4,1.4,0,0,1,37.2,216.7Z"/><path class="cls-4" d="M37,223.9c0-.3-.1-.6-.1-1a1.3,1.3,0,0,1,.3.7C37.3,223.7,37.1,223.8,37,223.9Z"/><path class="cls-2" d="M34.4,134.2c-9.7,21.6-16.2,44-17.6,67.8l-.9,13.9v8c.3,4.7.5,9.5.8,14.2l.3,4.8c.2,1.3.3,2.6.5,3.9s.1,2.1.1,3.1c1.8,9.2,2.9,18.5,5.5,27.4,9.7,33.1,26,62.6,50,87.6,6.6,6.8,13.6,13.1,20.4,19.7-2.4-1.3-5.1-2.1-7-3.8s-4-3.8-7.3-.5v-7.9l-6.9,3.5c.9,2.1,1.6,3.6,2.2,5.2a4.1,4.1,0,0,0-1.1-.7,11.2,11.2,0,0,1-3.2-2.4c-10.9-12.2-21.9-24.1-30.7-38.2-14.9-24.2-26-49.7-31.3-77.7a221.9,221.9,0,0,1-2.6-63,17,17,0,0,1,1-3.2l7.9,3.3c1.1-7.5,2-14.5,3.4-21.3,1-5,2.7-9.8,4.1-14.6s3.1-12.3,5.5-18.2,6.1-13.3,9.3-19.9c.3-.5,1.4-.6,2.1-.9Z"/><path class="cls-5" d="M19.6,248.3a15.6,15.6,0,0,1-2,1.6c0-1,0-2-.1-3.1Z"/><path class="cls-5" d="M18,229.4l1,1.4c-.4.2-1,.7-1.1.6a3,3,0,0,1-.9-1.3Z"/><path class="cls-1" d="M175.7,402.8c9.1,1.7,18.2,4.6,27.3,5.1,14.8.8,29.7.1,44.5,0l1.8-.3c13.1-.9,25.6-4.5,38.3-8.7L228.7,238a42,42,0,0,0-1.9,4.7c-3.6,10.4-7.2,20.8-10.7,31.2l-21.9,64.5-12.9,37.2a15.9,15.9,0,0,1-.7,2l-7.1,21C171.5,401.4,173.2,402.3,175.7,402.8ZM18.7,207.6H17.4l-1.5,8.3.9-13.9,3.4-2.7c.6,4.1.9,7.4,1.6,10.7.4,1.7,1.2,4.2,2.3,4.6s4.6.2,5.9-1,.2-3.7.2-6.6c5.8-7,6.4-16.7,6.7-26.4a20.9,20.9,0,0,1,1.7-5.9c2-5.4,4.1-10.7,6.1-16.1.4-1.2,1-2.7.7-3.8-1.6-5.1,1.5-4.8,4.8-4.4l-1.8,4.8-1,1.1c-.1.9-.3,1.8-.4,2.7v.2a25.4,25.4,0,0,1-.4,2.9,26.4,26.4,0,0,1-1.4,5.7c-5.4,14.2-7.2,29-8,44.1,0,1.3-.1,2.7-.1,4.1v6.9c0,.4.1.7.1,1s0,2.7.1,4.1l.6,8c1.2,8.7,1.7,17.6,3.7,26.1,6.8,29.1,18.7,55.8,39.1,78.3,7.7,8.6,14.1,18.4,23.8,25.1l31.3,21.1c1,.7,2.7.4,4.1.5.1-1.5.7-3.2.3-4.5-2.1-6.3-4.5-12.5-6.7-18.7q-10.5-28.9-20.8-58.1c-.1-4.1.8-8.6-4.1-10.9h.1c-1.3-5.3-2.4-10.6-3.9-15.8-.3-1-1.9-1.5-2.9-2.2a1.2,1.2,0,0,1-.2-.8,14.3,14.3,0,0,0-.8-2.2l-2.3-6-.7-2-.6-1.7c1.6-3.6.8-6.4-2.8-8.2h.2a7.6,7.6,0,0,0-.8-1.1,8.7,8.7,0,0,0-.7-1.7c.1-2.1.7-4.4,0-6.3-3.1-8.6-6.5-17.1-9.7-25.7-.6-1.7-.4-3.7-.6-5.1,3.9,1,7.2,2.4,10.6,2.7,14.5,1.2,28.9,2,43.4,3a11.9,11.9,0,0,1,2.9,1.2c12.9,37.4,25.8,74.8,38.9,113a13.9,13.9,0,0,0,.9-2.2c5.8-17.8,11.4-35.5,17.2-53.3s11.7-35.7,17.6-53.6h.5l4.8-1.8,3.8,6.3,3.8-5.3.2,1.3c16.2.1,32.4,2.2,48.5-2a10.5,10.5,0,0,1-.8-1.1l4.3-4.4,3.9,6.9c5.4,16.2,10.7,32.4,16.2,48.6s9.9,29.6,14.9,44.4l5.1,14.7c6.4-20.8,12.5-40.4,18.5-60,.7.1,1.8.4,1.9.2,2.5-5.6,5.2-11.2,7.2-17s2.1-9,3.1-13.5l1-3.7,1.6-.3,3.9,15,1.7-.2c-.8-5.1-1.5-10.1-2.2-15.2,1.5,1.4,5.6,1.8,7.4,0s5.6-5.5,7.1-8.9,1.8-9.3,3.6-13.6,4.5-6.3,6.8-9.4a24.4,24.4,0,0,0-.1,2.7c-1.6,3.6-3.4,7.2-4.7,10.9L322,378.5c-.4,1.2-.7,2.6-1,3.8a151.8,151.8,0,0,0,22.8-14.9c13.3-10.5,25.1-22.5,34.1-37,3.8-6.1,8.5-11.7,12.1-17.9,11.6-20.1,18.4-41.8,22.1-64.7.6-.6,1.7-1.2,1.8-1.9.5-4.3.8-8.7,1.1-13,.3-7,.7-13.9.8-20.8a4.8,4.8,0,0,0-.9-2.4l-.4-.5-.5-.8a.8.8,0,0,1-.2-.5l-.3-1.2a1.1,1.1,0,0,0-.1-.5c3.7-.9,4.8.7,4.6,4.2s-.1,7.9-.1,11.9h1.5l1-4.9c4.7.4,6.9-2,7.2-6.7s.9-9.9,1.5-14.9c.1-1.2.4-2.5.6-3.7h1.2c1,4.3,2.1,8.6,3.1,12.8l.8.3c1.2,25.9-.7,51.5-8.9,76.3-3.7,11-8.6,21.7-12.9,32.5-1.3,2.6-2.5,5.2-3.7,7.8-3.3,5.3-6.2,11-10,15.9-8.5,11-17.5,21.6-26.3,32.3l-.6.6a12.9,12.9,0,0,1-1.6,1.7h0l-3.2,2.6c-7.5,6.2-14.9,12.6-22.8,18.1s-16.2,9.5-24.4,13.9-15.9,8-23.8,12a16.6,16.6,0,0,1-3.7,1.4c-9,1.8-18.2,2.8-26.8,5.5-16.5,5-33.3,5-50.2,4.5-24.3-.7-47.6-6.3-70.1-15.4A211.1,211.1,0,0,1,103,391c-3.1-2.2-6.3-4.3-9.5-6.4-6.8-6.6-13.8-12.9-20.4-19.7-24-25-40.3-54.5-50-87.6-2.6-8.9-3.7-18.2-5.5-27.4a15.6,15.6,0,0,0,2-1.6l-2.1-1.5c-.2-1.3-.3-2.6-.5-3.9,3.8-2,.3-3.8,0-5.7l-.3.9c-.3-4.7-.5-9.5-.8-14.2.9-.5,2.6-.9,2.6-1.5C18.7,217.5,18.7,212.5,18.7,207.6ZM17,230.1a3,3,0,0,0,.9,1.3c.1.1.7-.4,1.1-.6l-1-1.4Z"/><path class="cls-5" d="M18.5,222.4c0,.6-1.7,1-2.6,1.5v-8l1.5-8.3h1.3C18.7,212.5,18.7,217.5,18.5,222.4Z"/><path class="cls-5" d="M17,237.2c.3,1.9,3.8,3.7,0,5.7l-.3-4.8Z"/></g></g></svg>