<svg xmlns="http://www.w3.org/2000/svg" viewBox="0 0 252.9 375"><defs><style>.cls-1{fill:#102321;}.cls-2{fill:#e0ab78;}.cls-3{fill:#382f28;}.cls-4{fill:#b5744a;}.cls-5{fill:#704633;}.cls-6{font-size:16.77px;fill:#fff;stroke:#fff;stroke-miterlimit:10;stroke-width:0.28px;font-family:Geneva;}</style></defs><g id="Layer_2" data-name="Layer 2"><g id="Layer_1-2" data-name="Layer 1"><path class="cls-1" d="M235.9,61.8l.5,2.1-5.9-2.1-21.2-1.6h.1l2.4-4.4,5.9,1.2h1.6l1.5,2.8.7-2-.6-4.3.3-5.1V36.9a1,1,0,0,1,.1-.3,1.4,1.4,0,0,0-.2-.7v-8l-.4-.9h0l-9.2,10.6-1.9.4a1,1,0,0,1-.5-.4c.3-.1.4-.3.5-.6l-.4-4.9V29.7l.6-2.9.6-2c-.3-.9-.5-1.8-.8-2.7H209l-.2-2.2,20.9.9c.7,1.3,2.2,2.6,2.1,3.8-.2,5-.8,9.9-1.3,14.9l-3,18.7,4.1.5c.5-1.6.9-3.2,1.4-4.8l3.6,3.9h0c.7-4.5,2.3-9.1,1.7-13.4-1.2-9-3.5-17.9-5.4-26.8L211.8,4.2c-.6,2.5-1.2,5-1.9,7.6l-21.5-1.6H167.3v3.3h15.5c-.9,2.5-1.5,3.9-2,5.4l-2.3,4.2c-1,1.4-2.9,2.9-2.9,4.3.2,9.5.8,18.9,1.3,28.3l-1.1,1.1-1.5-.3,1.3,1.3,4,1.6a21.8,21.8,0,0,1,.1-2.5l1.3-1.1,3.9,2,1.9.2,4.8-.2,6,2.9-58.2,5.5v1.1H167v1.4l-32.2,3.1,7.8,3.7-2,.2-29.3-3.6,5.5,7.7c0,1-.1,2-.1,3.1-.7,3.4-1.4,6.9-2.2,10.3a6.4,6.4,0,0,1-.2.7c-.2,3.2-.4,6.5-.7,9.7l-3.8,5.7-2.7-1.7v-1.7l1.9-1.7-3-1.7c0-1.5.1-3.1.1-4.6l6.2,4.2C111.1,93,110,86,109,79.1c1-3.7,2.1-7.3,2.9-11,.1-.4-1.6-1.7-2.4-1.6-9.8,1.3-19.7,2.9-29.5,4.4l-18.1-5c-5.8-.1-11.7-.3-17.5-.2-1.5,0-3,1-4.4,1.5,1.3,1,2.6,2.5,4.1,2.8,4.3.8,8.7,1.2,13,1.7l-.2,2.2H31.7v1.7l23.2,4.7-1.9.2-1.8.8c.1.2,0,.4,0,.6l-2.4.8c-1.3,5.2-2.6,10.5-3.8,15.7s-.1,8.1-.1,12.1c-1.3-1.2-3.6-2.3-3.7-3.6-.5-7.2,0-14.4-.7-21.6-.1-1.9-2.9-3.6-4.4-5.4l-2.3,3.7v1l.5-.6,1.7,23.7-.7,1.9-.8-7.8-.7,7.9-19.4,1.1a41.9,41.9,0,0,1-2.7,3.8H24l96.9-.8h6l93.7-1.7-2,2.8h-.1l-7.8-1.4-22.9,4.4-1,1.1a27.4,27.4,0,0,1-6.2,1.8c-4,.6-8.1.7-12.2,1a31.3,31.3,0,0,0-6-1c-6.8.2-16.6-1.9-19.7,1.7-4.9,5.6-6.1,13.3-15,5.5l-3.7-2.5c-.5-1.8-1-3.6-.8-2.7l-6.4,3h-.1v-3.2a2.8,2.8,0,0,1,.1-.9l.2-.4-.3-.3h-.1c-1.9,1.3-5.3,2.6-5.4,4-.8,11.8-.9,23.7-1.3,35.5l-4.9.3c-19.5-3.5-2.6-19.5-10-26.9-.6,8.3-1.2,17.2-1.8,26l-2.6.4c-.7-6-1.4-12-2.2-19.8-.5,6.8-.8,11.8-1.1,16.7l-8.3-6.9a4,4,0,0,1-.1,2.3c-.6,2.6-1.6,5.1-2.4,7.6-.8-2.5-2.2-5-2.4-7.6-.3-5.8-.1-11.6-.1-17.3-1.5,7.8-2,15.6-3.5,23.2-.1.5-7.9-.5-15.2-1.1L53,160.2,50,153c-1.1,2.2-2.4,4.7-3.6,7.3L42,157l-4.7,3.3L33.5,134c0,4,.2,6.9-.1,9.8-.6,5.5-1.5,11-2.3,16.4l-5.2-7.1-3.6,7.2c-1.7-3.8-3.3-7.7-4.7-10.8l-2.8,11.7-1.6-.2-1-4.7-5,4.1-4.4-8.5,1.4-6.1,1.7-.4-.8-2.9c-.6-1.3-1.9-2.7-1.9-4.1-.7-26.2-1.3-52.5-1.9-78.7H72.1l.2-1.4L61.8,56.7V33.5H58.7V56.6L51,52.7c.1-.1-1.1,4.4-2.7,4.5-10.3.8-20.7.6-31,.8H1.3V10.7c2.9.3,5.9.8,8.9,1C25.5,12.8,40.5,14,36.8,35.9c-.6,3.6-.1,7.3-.1,10.9H39V19.9H59.9l28.9,1.2c-1,9.3-2.3,18.6-2.8,27.9-.1,2.1,2.6,4.4,4.1,6.6.7-2.3,1.9-4.6,2-7,.3-7.3.4-14.6,0-21.9-.1-3.3-1.4-6.5-2.1-9.8-1.1-.9-2.1-2.6-3.2-2.7-8.6-.5-17.2-.7-25.9-1L56.6,5.4H1.4L1,0H135.8c15.1.4,30.1,1,45.2,1s31.1-.6,46.6-1h16m9.3,7.2-.4,1.1-12.4,7.4,1.5,2.8L244,38.1c-.1.9-.3,1.8-.5,2.8l-2.7,2.9,2.9,1V60.5l7.8-2.2M20.2,85.7l.5-2.3L20.4,82l10.4,2.1-8-6.4-3.7-.8c-3.9,2.9-10.3,5.2-11.2,8.9-1.4,6,.7,12.8,1.6,23.3l3.9-23.8-8.8-2L19,81.8ZM104.8,23v-.2c-.5-1.5-.9-3-1.5-5.1l-6.6,3.8v4.9c-.4,4.5-.8,9-1.3,13.5L96.9,54H97l6.8,2.8,1.3-1.2c.4-10.5.7-20.9,1.1-31.4l2.6,30.1,6.7,7.5L112.9,24l-6.6.4Zm33.3-1.1-.4.3V57.6c.8-.1,2.4-.1,2.4-.2-.2-11.8-.4-23.7-.7-35.5Zm17.9,36c.1-1.4.2-2.7.4-4.1,0-3.8.4-7.6.1-11.3-.4-7.2-1.1-14.3-1.8-21.4l-3,3-4.8,3.8,1.5,8V41c-1.4,4.5-2.9,9-4,13.5-.1.4,2.9,1.5,4.5,2.2.9-2.4,1.9-4.7,2.8-7.1,1.4,2.9,2.7,5.8,4.1,8.6Zm-39.2-3,.4,5.1,4.8-4.1,8.7,1.9c.7-4.7,1.4-9.4,2.2-14.1l1.3,1.8v-21c1.9-1.9,3.7-5,5.8-5.3,5-.8,10.4.4,15.3-.6,2.7-.5,4.8-4.1,7.1-6.3l-5.8-4.2-18.9,3.8a37.8,37.8,0,0,1-2.4,3.5,16.4,16.4,0,0,0-.6-4.2c-.1-.3-1.3-.2-1.9-.3L130,19.8l-.3,1.9h-.1l-6.8-1.9-.5-8.8L93.4,7.6,93,12.7,118.8,16l-1,6C117.5,33,117.1,43.9,116.8,54.9Zm50.1-15.2c0,4.8-.2,9.5.2,14.3.1,1.2,2.2,2.2,3.4,3.3V16.8h-1.4c-.8,3.4-1.7,6.8-2.5,10.2h-2.7V17.3h-2.4V60.6l3-9.7.4-11.9ZM24.5,26.4h-.9V50.2h.9ZM64.6,51.3h-.4v1h.3Z"/><path class="cls-2" d="M0,375V4.5C0,3,.7,1.5,1,0c.1,1.8.2,3.6.4,5.4v5.3c0,15.7-.1,31.5-.1,47.2v1.8c.6,26.2,1.2,52.5,1.9,78.7,0,1.4,1.3,2.8,1.9,4.1l-.9,3.3c-.4,2-.9,4-1.3,6.1-.6,4.4-1.1,8.9-1.7,13.4v27.3c.1,6.6.1,13.2.2,19.9v4.9l1,19.8v28.2c-.4,1.9-.7,3.9-1,5.8.5,6.4,1.1,12.7,1.7,19.1l.9.9-1.5,8a3.7,3.7,0,0,1-.1,1.1l-.3,1V314c-.2,2.7-.5,5.4-.7,8.2v34.3l2.6,3.3L42.2,363l-20.9,1.7v1.9L46.1,365l6.6-.7.3,1.5-40.3,7.6c10.6,0,29.3.1,48-.2,1.8-.1,3.5-3.4,5.3-5.2l.5-.9,4.2-1.4L69.4,369l20.5-3.9c.1.7.2,1.4.4,2.5l1.4-3.4h5.4l1.2,3,4.5-3,3.6,3.9c2.2-2.2,5.8-4.2,6.2-6.7s-1.8-6.6-2.9-10l-11.1,7.2-5.6-2,19.7-7.5,5.1.6c1.1,5.1,2.1,9.7,3,14.2l1.5-2-.3-17.4-.2-2.4v-3l3.3.4h2.4l-1.7-1.6h0a.7.7,0,0,1-.1-.5h4.7c.2,6.9.1,13.9.9,20.8.3,2.4,3.1,4.6,4.8,6.8h4.2c.8-2.2,1.6-4.4,2.5-6.6h0l1.7.2.7,4.8,7.4,1.6,7.8-4.5v.5c1.1,1.4,2.1,4.1,3.2,4.2,6.7.4,13.4.1,20.2,0h24.6l25.6-2.9,12.6,1.6c-.6-7.1-1.3-14.3-2-21.4l4.6-2.1"/><path class="cls-3" d="M227.6,0C212.1.4,196.5,1,181,1S150.9.4,135.8,0Z"/><path class="cls-4" d="M251.6,166.7l-135.6-2c-4.2-.3-8.3-.8-12.4-1l-63.2-2,64.5-1,4.9-.3h2c.6-1.3,1.6-2.6,1.7-3.9,1.2-10.3,2.1-20.6,3.2-30.9h.1c0,6.2-.3,12.3,0,18.5s1.2,10.3,1.9,15.5l7.5.8c8.3,1.5,12.8-.8,11.8-10.4-.5-4.9.6-10.1,1-15.1l4.6-3.3-.9,26,6,5.2V130.6a6.7,6.7,0,0,1,3,5.8c.7,8,1.4,16.1,2,24.2h3.2l6.7-1.1h1l2.9.7c1.1-8.5,2.2-16.9,3.4-25.4l-2-.2c-.3,1.6-.5,3.2-.8,4.8l-.4-8c1.5,6.6,2.8,13.3,4.8,19.8,1.1,3.5,3.5,6.6,5.3,9.9l9.1-1.4,1.1-1.2,20.7.9c1.1-4.8,2.6-9.6,3-14.4.2-3.3-1.1-6.6-1.8-9.9l-2.3,2.2-3.1-12.8,13.1,1.7.9,4.4v8c-.3,5.3-1,10.7-.8,16,0,1.8,2.1,3.6,3.2,5.3.9-1.1,2.7-2.1,2.7-3.2.2-11.1.1-22.1.1-33.2.9,1.1,2.4,2.2,2.4,3.3.2,11.2.1,22.3.1,33.5h7.1v-25l-.2-.4c.6-3.6,1.2-7.1,1.9-10.7.3,0,.4-.1.5-.4l1.4-1.6v-.3h1.6a37.8,37.8,0,0,1,.6,4.7l.9,34.4,7.5-18c0,1.8-.1,8.2.1,14.7,0,1.1,1.4,2.1,2.1,3.1.9-1,2.5-2.1,2.5-3.1-.3-10.4-.8-20.8-1.3-31.2l-2.2-3.1c-.1-2.3-.1-4.7-.2-7"/><path class="cls-4" d="M220.6,112l-93.7,1.7h-6c-17.4-.2-34.8-1-52.1-.3-11.6.5-15.4-4.1-13.6-14.8l3.2-5c.8,6,1.7,12,2.5,18l11.2-.2,4.6-4,7.4,3.9c.6-1.9,1.6-3.7,1.7-5.7.5-6.6.7-13.3,1-19.9-.1,4.8-.9,9.7,0,14.3s3.5,7.4,5.4,11l7.7-5.6h.7l1.6,5.7,2.6-1.5h1.1l.9.2,10-4.1,14.9,3.2,7.1.8,1.9.7c.4-3.9.8-7.8,1.3-11.6-.1-1.8.1-3.7-.4-5.4-.8-3.3-1.9-6.5-2.9-9.7H137L117.9,83h-1.1c0-1.1.1-2.1.1-3.1l21.8-2.7c2.4,2.9,4.7,5.8,7,8.8.6,7.2,1.1,14.4,1.8,21.7.1,1,1.6,2,2.4,3l3-2.8,2.9,2.9h.9l4.4-2.4,3.8,2.3c.6-4.3,1.2-8.6,1.9-12.9s-1.3-8.2-1.9-12.3l.3-1.5c2.3,8.5,4.6,16.9,6.9,25.6l3.6-.6c1.5-.4,4.3-1,4.3-1.1-1.9-9.7-4.1-19.4-6.2-29.1V76.9l3.9-.2,1.1.8,1.9.3h1.9l-.7,4V83c1.3,8.5,2.7,17,4.1,25.5h11.5l5-1.5,4.1.8,1.1-9.1V93.7c1.4,4.7,2.7,9.3,4.1,13.9l7.8-1.7,3.4,1.7h2.6l2.4-8.1c.3-3.8.6-7.6,1.2-15.9L227.4,90c.4-4.5.8-9,1.3-13.5h.2l.9,1.1c.3,2.5.7,5.1,1.1,7.6l4.5.4c-.3,1.5-.5,2.9-.8,4.4l-3.7-2.2v3.7l.9,14.7h2.3c-.5-4.8-1-9.6-1.4-14.4l2-1.3c1,5.4,2.1,10.9,3.1,16.4l2.6-.6V95.6l2.1-12,8.9-1.8c.4,6.9.6,13.9,1.2,20.8"/><path class="cls-3" d="M142.7,75.5l-7.8-3.7,32.2-3.1V67.3H139.5V66.2l58.2-5.5-6-2.9v-2c0-9.3.1-18.6.1-27.8V25.7l3-.8c0,4.8-.5,9.6.1,14.4s2.2,12.3,3.4,18.5l2.1,1.8a9.1,9.1,0,0,0,1.1-3c.1-6.7,0-13.5,0-20.2l-.8-15.2L181.4,19a.5.5,0,0,1-.6-.1l2-5.4h-8.3l13.9-3.3,21.5,1.6c.7-2.6,1.3-5.1,1.9-7.6l21.1,13.4-.2.3-25,1h-1l-1.4-2.3c-.4.5-1.4,1.4-1.3,1.5a34.5,34.5,0,0,0,2.6,2.8c0,.7-.1,1.5-.1,2.3l-.9,16.3,1.8,18.2,2-1.8V38l1.9-.4.4.3c0,5.9.1,11.9.1,17.8l-2.4,4.4h-.1l21.2,1.6-3.7,4.8c-6.3.1-12.6-.4-18.8.4-15.5,2-30.8,4.5-46.2,6.9l-1.9.2Z"/><path class="cls-3" d="M177.8,161.3c-1.8-3.3-4.2-6.4-5.3-9.9-2-6.5-3.3-13.2-4.8-19.8l-5.8,3.2-4.2,8.8c-1.3,5.6-2.6,11.3-4,17-.6-8.1-1.3-16.2-2-24.2a6.7,6.7,0,0,0-3-5.8v32.3l-6-5.2c1.1-1.2,3-2.3,3-3.5.3-7.8.1-15.7,0-23.5l-2.1,1L139,135l-11.1-6-.2-1.1c8.9,7.8,10.1.1,15-5.5,3.1-3.6,12.9-1.5,19.7-1.7a31.3,31.3,0,0,1,6,1l-7.5,6c1.4.7,2.7,1.9,4.1,2,7.4.7,14.7,1.2,22.1,1.7-.1,4.8-.3,9.5-.4,14.3l.9,5.9-.9,2-3.7,6c-.3-2.6-.4-4.7-1-10.3C179.9,155.3,178.8,158.3,177.8,161.3Zm1.7-29.4-1.6.2,1.6,9.3Zm-.1,9H178c.2,1.1.3,2.3.5,3.5h.9Z"/><path class="cls-5" d="M251.5,58.3l-7.8,2.2V44.8c-.1-1.3-.1-2.6-.2-3.9s.4-1.9.5-2.8c1.1-4,2.1-8.1,3.2-12.1V53.5h1.4V19.2l-7-.7-1.5-2.8,4.4-2.4"/><path class="cls-5" d="M1.4,10.7V5.4H56.6l4.3,7.8c0,1.2-.1,2.4-.2,3.6l6.8.4-7.6,2.7H39V46.8H36.7c0-3.6-.5-7.3.1-10.9C40.5,14,25.5,12.8,10.3,11.7,7.3,11.5,4.3,11,1.4,10.7Z"/><path class="cls-5" d="M84.1,111.4l-7.4-3.9c.1-5.9.1-11.7.1-17.5l5.1-14.1c-.6-1.7-1.3-3.3-1.9-5,9.8-1.5,19.7-3.1,29.5-4.4.8-.1,2.5,1.2,2.4,1.6-.8,3.7-1.9,7.3-2.9,11l-6.5,3.4H84.9C84.6,92.2,84.3,101.8,84.1,111.4Z"/><path class="cls-5" d="M226.8,66.6l3.7-4.8,5.9,2.1-.5-2.1"/><path class="cls-3" d="M104.9,160.7l-64.5,1H37.3l-22.5-.6,2.8-11.7c1.4,3.1,3,7,4.7,10.8l3.6-7.2,5.2,7.1c.8-5.4,1.7-10.9,2.3-16.4.3-2.9.1-5.8.1-9.8l3.8,26.3L42,157l4.4,3.3c1.2-2.6,2.5-5.1,3.6-7.3l3,7.2,2.2-2.9c7.3.6,15.1,1.6,15.2,1.1,1.5-7.6,2-15.4,3.5-23.2,0,5.7-.2,11.5.1,17.3.2,2.6,1.6,5.1,2.4,7.6.8-2.5,1.8-5,2.4-7.6a4,4,0,0,0,.1-2.3l8.3,6.9c.3-4.9.6-9.9,1.1-16.7.8,7.8,1.5,13.8,2.2,19.8l2.6-.4c.6-8.8,1.2-17.7,1.8-26C102.3,141.2,85.4,157.2,104.9,160.7Z"/><path class="cls-3" d="M132.9,43.7c-.8,4.7-1.5,9.4-2.2,14.1L122,55.9c-.1-.4-.1-.8-.2-1.2.4-11.6.7-23.2,1-34.8h0l6.8,1.9c-.9,11.4-1.8,22.9-2.6,34.3l5.6-.2c-1-11.4-1.9-22.8-2.9-34.2l.3-1.9c.9-3,1.8-6,2.8-8.9.6.1,1.8,0,1.9.3a16.4,16.4,0,0,1,.6,4.2,37.8,37.8,0,0,0,2.4-3.5,160.3,160.3,0,0,0,16.7,2.5c.6.1,1.5-4.1,2.2-6.3l5.8,4.2c-2.3,2.2-4.4,5.8-7.1,6.3-4.9,1-10.3-.2-15.3.6-2.1.3-3.9,3.4-5.8,5.3C133.8,30.9,133.3,37.3,132.9,43.7Z"/><path class="cls-5" d="M55.2,98.7c-1.8,10.7,2,15.3,13.6,14.8,17.3-.7,34.7.1,52.1.3l-96.9.8H11.6a41.9,41.9,0,0,0,2.7-3.8l19.4-1.1h1.5c.2-.7.5-1.3.7-1.9l8.9,2.8c0-4,0-8.1.1-12.1,1.2,4.3,2.5,8.6,5.3,18.2V92.4l-.3-8.6-1.2-1.1,2.4-.8c.8,2.7,1.7,5.5,2.3,7.4.4-1.6,1-4.1,1.5-6.6Z"/><path class="cls-5" d="M37.6,161.8h2.8l63.2,2c4.1.2,8.2.7,12.4,1l-5.2,1.9L1.2,165.3c.6-4.5,1.1-9,1.7-13.4,1.4,2.8,2.8,5.7,4.3,8.5l6,.6,1.6.2,22.5.6Z"/><path class="cls-3" d="M102.5,82.5l6.5-3.4c1,6.9,2.1,13.9,3.4,23l-6.2-4.2V86.5l4.4-3.2-4.9.5-.9.2a10.1,10.1,0,0,1-1.3,1.6l-2.8,1.3c-1,.6-3.1,1.3-3,1.8.4,5.1,1.2,10.2,1.9,15.3l.3,1.5-7.7,5.6c.2-7.7.6-15.4.5-23.1-.1-1.4-2.5-2.8-3.8-4.2l-2.1,2c-.3,6.6-.5,13.3-1,19.9-.1,2-1.1,3.8-1.7,5.7.2-9.6.5-19.2.8-28.8Z"/><path class="cls-3" d="M246.7,114.7c-5.4.3-11.1-.4-15.9,1.2s-8.2,5.8-12.2,8.8l-1,1.7-13.1-1.7-5.1,5.1-3.3-5.7-3.5-.3,18.3-3.8v-1.7H194.2v-.8l24.3-2.7,2-2.8"/><path class="cls-3" d="M230.5,39.6c.5-5,1.1-9.9,1.3-14.9.1-1.2-1.4-2.5-2.1-3.8l3-3,.2-.3c1.9,8.9,4.2,17.8,5.4,26.8.6,4.3-1,8.9-1.7,13.4h0L233,54C232.2,49.2,231.3,44.4,230.5,39.6Z"/><path class="cls-3" d="M103.8,56.8,97,54c-.1-9.2-.1-18.4-.2-27.6V21.5l6.6-3.8c.6,2.1,1,3.6,1.5,5.1C104.5,34.1,104.1,45.5,103.8,56.8Z"/><path class="cls-4" d="M166.6,26.9c.8-3.4,1.7-6.8,2.5-10.2h1.4V57.3l-3.6-17.6-2-.7c-.1,3.9-.3,7.9-.4,11.9l-3,9.7V17.3h2.4V36.9l1.3,1.1C165.7,34.3,166.2,30.6,166.6,26.9Z"/><path class="cls-5" d="M142.7,75.5l17.2-1.4L147,75.5v2.2h23.7l-9.9,1.2-2,.2-3.3,2.3-3.4.5c.6,7.9,1.1,15.4,1.6,22.8l-3.3,2.7c-1-8.1-2-15.8-3.2-25.7l-1.5,4.2c-2.3-3-4.6-5.9-7-8.8l2.1-.3c.7.3,1.3.5-.2-.1,1.6.2.9.1.2,0v-1Z"/><path class="cls-5" d="M54.8,80.3,31.6,75.6V73.9H56.9l.2-2.2c-4.3-.5-8.7-.9-13-1.7-1.5-.3-2.8-1.8-4.1-2.8,1.4-.5,2.9-1.5,4.4-1.5,5.8-.1,11.7.1,17.5.2-1,3.6-2,7.1-2.9,10.7Z"/><path class="cls-5" d="M17.3,58c10.3-.2,20.7,0,31-.8,1.6-.1,2.8-4.6,2.7-4.5l7.7,3.9V33.5h3.1V56.7l10.5,1.5-.2,1.4h-40ZM61.9,36h-.6v3h.5Z"/><path class="cls-4" d="M59.9,19.9l7.6-2.7-6.8-.4c.1-1.2.2-2.4.2-3.6,8.7.3,17.3.5,25.9,1,1.1.1,2.1,1.8,3.2,2.7l-1.2,4.2Z"/><path class="cls-5" d="M127.7,127.9a5.2,5.2,0,0,0,.2,1.1c-.6,10.5-1.1,21-1.7,31.5l-7.5-.8c.9-6.2,1.9-12.3,2.8-18.5s1.7-10.5,2.5-15.8Z"/><path class="cls-3" d="M124,125.4c-.8,5.3-1.6,10.5-2.5,15.8s-1.9,12.3-2.8,18.5c-.7-5.2-1.7-10.4-1.9-15.5s0-12.3,0-18.5l6.4-3C123,121.8,123.5,123.6,124,125.4Z"/><path class="cls-3" d="M19,81.8,4.6,83.3l8.8,2L9.5,109.1c-.9-10.5-3-17.3-1.6-23.3.9-3.7,7.3-6,11.2-8.9l3.7.8,8,6.4L20.4,82Z"/><path class="cls-3" d="M211.3,37.6,220.5,27l-1.8,24.8.6,2.1v.4a24.4,24.4,0,0,1-.1,2.7h-1.6c-1.4-5.8-2.8-11.5-4.3-17.2-.2-.7-1.1-1.2-1.7-1.8Z"/><path class="cls-3" d="M118.8,16,93,12.7l.4-5.1,28.9,3.5.5,8.8h-1.9Z"/><path class="cls-5" d="M218.6,114.8l-24.3,2.7v.8h16.7V120l-18.3,3.8h-1.5l-.6-1.7-1.8,1.3-1.1-4.4.2-1.3,22.9-4.4,7.8,1.4Z"/><path class="cls-5" d="M88.8,21.1,90,16.9c.7,3.3,2,6.5,2.1,9.8.4,7.3.3,14.6,0,21.9-.1,2.4-1.3,4.7-2,7-1.5-2.2-4.2-4.5-4.1-6.6C86.5,39.7,87.8,30.4,88.8,21.1Z"/><path class="cls-4" d="M191.7,28V55.8c-1.4-7.4-2.9-14.7-4.8-24.1V58l-1.9-.2c-.1-5.7-.1-11.3-.2-17a32.9,32.9,0,0,1,.2-6.3c.7-3.2,1.7-6.3,2.6-9.4v3.8Z"/><path class="cls-3" d="M44.8,110.5l-8.9-2.8c-.6-7.9-1.1-15.8-1.7-23.7l-.5-.4L36,79.9c1.5,1.8,4.3,3.5,4.4,5.4.7,7.2.2,14.4.7,21.6C41.2,108.2,43.5,109.3,44.8,110.5Z"/><path class="cls-2" d="M108.8,54.3c-.9-10-1.8-20.1-2.6-30.1v.2l6.6-.4c.1,5.7.8,11.6.2,17.2S110.3,50,108.8,54.3Z"/><path class="cls-5" d="M156.6,8.1c-.7,2.2-1.6,6.4-2.2,6.3a160.3,160.3,0,0,1-16.7-2.5Z"/><path class="cls-3" d="M50.2,92.4v24.2c-2.8-9.6-4.1-13.9-5.3-18.2,1.2-5.2,2.5-10.5,3.8-15.7l1.2,1.1Z"/><path class="cls-4" d="M187.6,119.1c.4,1.5.7,2.9,1.1,4.4l-1,.5-13.2,2.7-13.6,1,7.5-6c4.1-.3,8.2-.4,12.2-1a27.4,27.4,0,0,0,6.2-1.8Z"/><path class="cls-2" d="M139.5,21.9c.3,11.8.5,23.7.7,35.5,0,.1-1.6.1-2.4.2-.1-11.8-.1-23.6-.1-35.4l.4-.3Z"/><path class="cls-3" d="M59,76.6c.9-3.6,1.9-7.1,2.9-10.7l18.1,5c.6,1.7,1.3,3.3,1.9,5l-7.7.2L59,76.7Z"/><path class="cls-5" d="M176.9,55.7c-.5-9.4-1.1-18.8-1.3-28.3,0-1.4,1.9-2.9,2.9-4.3V55.7Z"/><path class="cls-4" d="M146.9,27.9l4.8-3.8V49.6c-.9,2.4-1.9,4.7-2.8,7.1-.2-5.2-.4-10.5-.5-15.7V35.9Z"/><path class="cls-5" d="M118.8,16l2.1,4,.9,34.7c.1.4.1.8.2,1.2L117.2,60l-.4-5.1c.3-11,.7-21.9,1-32.9Z"/><path class="cls-3" d="M140.8,76.8l-2.1.3-21.8,2.7-5.5-7.7,29.3,3.6c0,.3.1.7.1,1Z"/><path class="cls-4" d="M154.7,21.1c.7,7.1,1.4,14.2,1.8,21.4.3,3.7-.1,7.5-.1,11.3-.2,1.4-.3,2.7-.4,4.1l-.2.3C155.4,45.8,155.1,33.5,154.7,21.1Z"/><path class="cls-5" d="M230.5,39.6c.8,4.8,1.7,9.6,2.5,14.4-.5,1.6-.9,3.2-1.4,4.8l-4.1-.5Z"/><path class="cls-5" d="M154.7,21.1c.4,12.4.7,24.7,1.1,37.1-1.4-2.8-2.7-5.7-4.1-8.6V24.1Z"/><path class="cls-3" d="M111.8,160.5h-2c.4-11.8.5-23.7,1.3-35.5.1-1.4,3.5-2.7,5.4-4,0,.6.1,1.1.1,1.6s.1,1.5.1,2.3c-1.5,2.7-4.2,5.4-4.4,8.2C111.7,142.2,111.9,151.4,111.8,160.5Z"/><path class="cls-2" d="M178.5,55.7V23.1l2.3-4.2a.5.5,0,0,0,.6.1c.1,1.4.1,2.7.1,4.1l-.2.2V40.9c-.1,5-.1,9.9-.2,14.9l-1.3,1.1Z"/><path class="cls-4" d="M108.8,54.3c1.5-4.3,3.7-8.6,4.3-13.1s-.1-11.5-.2-17.2c.8,11.4,1.6,22.8,2.6,37.8Z"/><path class="cls-3" d="M247.2,26c-1.1,4-2.1,8.1-3.2,12.1l-2.4-19.6,7,.7C248.1,21.5,247.6,23.8,247.2,26Z"/><path class="cls-5" d="M188.4,10.2l-13.9,3.3h-7.2V10.2Z"/><path class="cls-5" d="M111.8,160.5c.1-9.1-.1-18.3.5-27.5.2-2.8,2.9-5.5,4.4-8.2v.9c-1.1,10.3-2,20.6-3.2,30.9C113.4,157.9,112.4,159.2,111.8,160.5Z"/><path class="cls-3" d="M148.4,41c.1,5.2.3,10.5.5,15.7-1.6-.7-4.6-1.8-4.5-2.2C145.5,50,147,45.5,148.4,41Z"/><path class="cls-4" d="M117.8,22c-.3,11-.7,21.9-1,32.9C117.1,43.9,117.5,33,117.8,22Z"/><path class="cls-5" d="M232.7,17.9l-3,3L208.8,20l-1.1-1.1Z"/><path class="cls-3" d="M181,55.8c.1-5,.1-9.9.2-14.9h3.5c.1,5.7.1,11.3.2,17Z"/><path class="cls-3" d="M244.5,13.3l-4.4,2.4,12.4-7.4.4-1.1"/><path class="cls-5" d="M137.7,22.2c0,11.8,0,23.6.1,35.4C137.7,45.8,137.7,34,137.7,22.2Z"/><path class="cls-5" d="M186.8,58V31.7c1.9,9.4,3.4,16.7,4.8,24.1v2Z"/><path class="cls-4" d="M218.7,51.8,220.5,27h0a1.8,1.8,0,0,0,.4.9v8a1.2,1.2,0,0,0,.1,1c0,3,.1,6.1.1,9.1v2.4l-.3,5.1-1.5.8v-.4Z"/><path class="cls-5" d="M24.5,26.4V50.2h-.9V26.4Z"/><path class="cls-5" d="M96.8,26.4c.1,9.2.1,18.4.2,27.6h-.1c-.5-4.7-.9-9.4-1.4-14.1S96.4,30.9,96.8,26.4Z"/><path class="cls-5" d="M211.7,37.9c.6.6,1.5,1.1,1.7,1.8,1.5,5.7,2.9,11.4,4.3,17.2l-5.9-1.2C211.8,49.8,211.7,43.8,211.7,37.9Z"/><path class="cls-5" d="M116.8,105.7l-10,4.1,2.5.5V110h.3c.1-.2.1-.4.2-.6l3.8-5.7c.3-3.2.5-6.5.7-9.7.1-.2.1-.4.2-.6l3.2.4C117.5,97.7,117.2,101.7,116.8,105.7Z"/><path class="cls-3" d="M17.3,58l14.8,1.6H1.3V57.9Z"/><path class="cls-2" d="M207.7,18.9l1.1,1.1c.1.8.1,1.5.2,2.2s-.1,2.9-.2,4.4l.2,3.1v2.4c-.1,1.7-.1,3.5-.2,5.2v.3a1,1,0,0,0,.5.4V56l-1.5-1.2-.4-1.3c.1-11.5.1-23,.1-34.6Z"/><path class="cls-5" d="M132.9,43.7c.4-6.4.9-12.8,1.3-19.2v21Z"/><path class="cls-4" d="M54.8,80.3,59,76.6h0c-.1,1.6-.1,3.3-.2,5l-1.3,1H54.9l-1.5,6.6c-.6-1.9-1.5-4.7-2.3-7.4,0-.2.1-.4,0-.6l1.8-.8Z"/><path class="cls-4" d="M103.8,56.8c.3-11.3.7-22.7,1.1-34V23l.3,32.6Z"/><path class="cls-3" d="M166.9,39.7l3.6,17.6c-1.2-1.1-3.3-2.1-3.4-3.3C166.7,49.2,166.9,44.5,166.9,39.7Z"/><path class="cls-5" d="M105.1,55.6,104.8,23l1.5,1.4v-.2C105.8,34.7,105.5,45.1,105.1,55.6Z"/><path class="cls-3" d="M163.9,36.9v-10h2.7c-.4,3.7-.9,7.4-1.4,11.1Z"/><path class="cls-3" d="M117.8,93.7l-3.2-.4c.8-3.5,1.5-7,2.2-10.4h1.1C117.9,86.5,117.9,90.1,117.8,93.7Z"/><path class="cls-5" d="M104.8,84l.9-.2c.2.9.3,1.8.5,2.7V97.9c0,1.5-.1,3.1-.1,4.6s.7,2.3,1.1,3.4v1.7a13.7,13.7,0,0,1-1.3,2h-1.1Z"/><path class="cls-3" d="M146.9,27.9l1.5,8Z"/><path class="cls-5" d="M132.8,10.9c-1,2.9-1.9,5.9-2.8,8.9C130.9,16.8,131.8,13.8,132.8,10.9Z"/><path class="cls-3" d="M164.5,50.9c.1-4,.3-8,.4-11.9C164.8,42.9,164.6,46.9,164.5,50.9Z"/><path class="cls-3" d="M13.2,161l-6-.6,5-4.1Z"/><path class="cls-3" d="M95.5,39.9c.5,4.7.9,9.4,1.4,14.1C96.4,49.3,96,44.6,95.5,39.9Z"/><path class="cls-3" d="M178.5,55.7l1.2,1.2a21.8,21.8,0,0,0-.1,2.5l-4-1.6a3,3,0,0,0,.2-1l1.1-1.1Z"/><path class="cls-3" d="M243.5,40.9c.1,1.3.1,2.6.2,3.9l-2.9-1Z"/><path class="cls-3" d="M218.5,114.8l-7.8-1.4Z"/><path class="cls-3" d="M105.9,109.6a13.7,13.7,0,0,0,1.3-2l2.7,1.7c-.1.2-.1.4-.2.6l-.4.4-2.5-.5Z"/><path class="cls-3" d="M114.4,93.9c-.2,3.2-.4,6.5-.7,9.7C114,100.4,114.2,97.1,114.4,93.9Z"/><path class="cls-5" d="M219.4,54.3l1.5-.8.6,4.3c-.2.6-.5,1.3-.7,2L219.3,57A24.4,24.4,0,0,0,219.4,54.3Z"/><path class="cls-3" d="M107.2,105.9c-.4-1.1-.7-2.2-1.1-3.4l3,1.7Z"/><path class="cls-4" d="M4.2,145.8l.9-3.3c.3,1,.6,1.9.8,2.9Z"/><path class="cls-4" d="M35.2,109.6H33.7c.1-1.6.3-3.2.7-7.9Z"/><path class="cls-4" d="M19,81.8l1.4.2.3,1.4c-.2.8-.4,1.6-.5,2.3Z"/><path class="cls-3" d="M208.8,37.3c.1-1.7.1-3.5.2-5.2.1,1.6.3,3.3.4,4.9Z"/><path class="cls-5" d="M22.8,77.7l-3.7-.8Z"/><path class="cls-4" d="M208.8,26.6c.1-1.5.1-2.9.2-4.4h.4c.3.9.5,1.8.8,2.7l-.6,2Z"/><path class="cls-5" d="M175.8,56.8a3,3,0,0,1-.2,1,15.9,15.9,0,0,1-1.3-1.3Z"/><path class="cls-5" d="M116.6,122.5c0-.5-.1-1-.1-1.6h.1a1.7,1.7,0,0,0,.1.7A2.8,2.8,0,0,0,116.6,122.5Z"/><path class="cls-5" d="M122.7,113.8h0Z"/><path class="cls-5" d="M156,57.9c.1-1.4.2-2.7.4-4.1C156.2,55.2,156.1,56.5,156,57.9Z"/><path class="cls-5" d="M64.6,51.3v1.1h-.3v-1Z"/><path class="cls-3" d="M208.8,26.6l.8.2-.6,2.9C208.9,28.6,208.9,27.6,208.8,26.6Z"/><path class="cls-3" d="M210.2,24.8c-.3-.9-.5-1.8-.8-2.7C209.7,23,209.9,23.9,210.2,24.8Z"/><path class="cls-3" d="M34.2,84l-.5.6v-1Z"/><path class="cls-3" d="M20.2,85.7c.1-.7.3-1.5.5-2.3C20.5,84.2,20.3,85,20.2,85.7Z"/><path class="cls-5" d="M139.5,21.9h0Z"/><path class="cls-3" d="M52.9,80.5l-1.8.8Z"/><path class="cls-3" d="M221,31.9v-2C220.9,30.6,221,31.2,221,31.9Z"/><path class="cls-3" d="M220.8,59.8c.2-.7.5-1.4.7-2S221,59.1,220.8,59.8Z"/><path class="cls-3" d="M221.2,48.4v0Z"/><path class="cls-4" d="M208.8,37.3l.6-.3c-.1.3-.2.5-.5.6Z"/><path class="cls-3" d="M221.1,36.9a1.2,1.2,0,0,1-.1-1,1.4,1.4,0,0,1,.2.7A1,1,0,0,0,221.1,36.9Z"/><path class="cls-3" d="M187.6,119.1l-.8-.2,1-1.1A5.9,5.9,0,0,1,187.6,119.1Z"/><path class="cls-4" d="M209.3,60.2h0Z"/><path class="cls-3" d="M116.7,121.6a1.7,1.7,0,0,1-.1-.7l.3.3Z"/><path class="cls-3" d="M220.9,27.9a1.8,1.8,0,0,1-.4-.9A3.6,3.6,0,0,1,220.9,27.9Z"/><path class="cls-1" d="M1.2,165.3l109.6,1.3h0l11.3,9.2,1.6,11v17.8l-1.8.2-2.7-19.1c-1.1,3.1-2.2,6.2-3.4,9.4l-.9-8.6h-1.2v24.7L83,206.5l-6.1.9v-1.9l4.6-2.9-4.7-3.1c-.1-2-.2-3.9-.4-7.3-.4,2.7-.5,4-.7,5.3L70.9,191v19.4l-6.9.8c1-6.5,1.9-13.1,2.9-19.7.3-.3.7-.5-.1.1s.3-.5.1-.1H61.1l-.3-.3-.9.3c-.2,5.4-.4,10.8-.9,16.2-.1,1.2-1.3,2.3-1.9,3.4l-3.3-2.4L52,185.5c.4,1.5-.2-.9-.7-3.1L49.5,197l-9.4-8-3.9,6.9-2-9.9c-.9,7.2-1.3,9.9-1.9,14.8l-2.6-10.1c-2.1,6.7-4,12.7-6,18.8v-1.4l-2.1-17c-.5,6.9-1,13.8-1.6,20.6l-13.8-.2c-.7-4.5-1.3-9.1-2.3-13.6-.4-1.9-1.7-3.6-2.6-5.3Zm91.2,32.9,4.2-.4c-.6-4-1.3-8-1.9-12H91.8Zm-83.2,6h.7v-2.7H9.2Z"/><path class="cls-4" d="M249.4,340.2l-2.1-16.1"/><path class="cls-4" d="M249.6,219.7h-11l-28.1-1.5c3.4,4.2,5.9,7.2,8.3,10.3l.9.9h5c.7,1.7,1.4,3.4,2,5.1l-1.1,3.1-8.7-.2c-.8-3.7-1.5-7.5-2.7-12.8l-5.6,10.9a22.5,22.5,0,0,1-1.2-2.1l-4.8-11c-1.6,2.7-2.8,5.8-4.9,8.2s-4.4,3.9-6.9,4.3-3.1-2.9-4.7-4.6c-1-3.7-1.8-10.5-3.1-10.6-16.4-1.2-32.9-1.4-49.3-1.9h-11l-28.8.6-65.2.5H25L1.3,217.4c0-1.6,0-3.3.1-4.9l4.7-1,13.8.2,4,.7H49.1c9.6-3.6,29.2,10.2,26.7-15,.2-1.3.3-2.6.7-5.3l.4,7.3c0,2,0,4,.1,6v1.9l5,4.9h35.9l70.9.6,3.1-.7c8.2-.6,20.8,8.4,22.2-8.1,1.1-12.5,5.3-18.8,18.6-16.4l2.6,25.8h3.4l9-26.7,2,.8m3.2,8.1c-1.9,6.9-3.3,13.9-5,21.5m-25.3-27.5c-2.1,11.2-3.3,17.4-4.4,23.6l4.4-.2Zm-24,30.2v.5h5.9v-.5Z"/><path class="cls-3" d="M130.6,337.3h-4.7c-1-4.8-2.1-9.5-3.1-14.3,20.1,0,40.1,0,60.2.2,17.7.2,35.4.7,53.1,1-.5,2.3-1.1,4.6-1.6,6.9l-25.8,4.1c-.2,2.5-.3,5.1-.8,13.2-1.2-8-1.5-10.6-1.9-13.1h-2.3c-.5,3.3-.9,6.6-1.6,11.4l-10.6,4.7,12.4,1.2c-1.5,1.9-3.7,3.5-3.5,4.8s2.1,3.8,3.3,5.6c1.4-5,2.7-10,3.8-14,.2,3.5.5,8.1.9,12.8,2.3-4.6,1.2-10.8,3.8-13.9s8.9-2.7,13.6-3.9c.1.8.3,1.6.4,2.3l-2.5.5c-1.1,2.5-1.8,3.8-2.1,4.5l7.1,5.9c.1,1.7.2,3.5.3,4.9l-20.4,3H184c-.4-1.3-.9-2.6-1.3-4-.8-5.6-1.7-11.3-2.5-16.8-4.3,5.4-6.7,8.3-9.1,11.2l5.5-4.8c.7,3.4,1.4,6.8,2.2,10.3H160.6v-.5L158.8,343c12.3-.2,24.3-.9,28.2-20.3L132.9,338Z"/><path class="cls-3" d="M53,365.8l-.3-1.5c-1.8-6.5-3.6-13-5.6-19.4-.4-1.4-1.9-2.5-2.9-3.7L41,344.8l-13.1.3,1-2.1h0l11-1.9,3-3.1h4L58,321.5l3.6,2.3-1.5,13.9,3.1,1.5-11.1,8.9,14.7-2.7c3.3-5.4,4.7-7.8,6.1-10.2l6.9,5.5c.6-2,1-4,1.7-6s2.1-5.1,3.1-7.6l2.7,6.5,5.6-5.4L84.8,325v-1.5H101c-.6,2.3-1.7,4.7-1.6,7a37.6,37.6,0,0,0,2.3,9.2c.1.5,1.8,1.1,2.4.8a3,3,0,0,0,1.4-2.3c-.2-4.9-.5-9.7-.8-14.6l6,1.3,2,24.3L93,356.6l-1,1a27.6,27.6,0,0,0-.8-2.7h-.3l-1-1.4h0l-10-3.1-2.8.2c-18.8-4.2-6.4,11.4-10.6,16.5a4.1,4.1,0,0,1-.5.9Z"/><path class="cls-4" d="M1.3,271.2c.3-1.9.6-3.9,1-5.8l6-4.8a.9.9,0,0,0,.7-.3l3.5,2.9a30.5,30.5,0,0,0,2.5-3l2.9,3,1.3-.6,1.3-.2,4.5-1.1h1.8l1.1,1.9,1.8-1.8.2-1.1c.3-3.6.7-7.2,1-10.8l1.1-2.1,4.8,5.1,2,5.7,1,4.8,8.3,1.1,4.8-.9,3.3.2,20.7,1.8,13.6.4,9.8-.2,1.5.9-.3.6.6-.2,13.7-5-.3-4.5c.3-.7.7-1.3,1-1.9.8,2.6,1.5,5.3,2.2,8,0,.3-.1.6-.1.9l.5.5,3.7-2.1a1.4,1.4,0,0,1,.2-.6.9.9,0,0,0,.7.3h2.9l9.4-.3-8.7,8.3-88.5,1.3Z"/><path class="cls-4" d="M1.3,322.2c.2-2.8.5-5.5.7-8.2l1.9-2.7a10.9,10.9,0,0,1,.1,1.8l5.9-.8,4.4,1.8,4.6-.4c3.6-2.3,8-4,10.7-7.1s2.2-6.7,3.2-10.2L33,298l-.2,2.4c.2,4.5.5,9,1.1,17.9,2.8-9.2,4.2-13.8,5.7-18.4l.7,1.7c.3,4,.6,8,.8,12.1l2.1-13.6.7,2,3.2-1.7,1.8-1.3,1,1.1c.4,4.5.7,9,1.1,13.6l.9-3.6,3.1-8.9v12.6h1.6V300.5l1.9,13.4,1.8-.2-.5-11.5,5.4,6.4c1.3,1.5,2.8,2.8,4.1,4.3H84.1l1.6,1H91l5.1.2c-2.2,1.6-4.3,4.2-6.7,4.5-14.6,1.4-29.3,2.3-44,3.4l-2.6.4H1.3Z"/><path class="cls-5" d="M42.8,322.4l2.6-.4,74.8.2-1.2,1.9.9,9c-.4,2.7-.8,5.4-1.1,8.1-.3.8-.6,1.6,0-.1-.2,1.8-.1,1,0,.1.7,7.6,1.3,15.1,2,22.7-.9-4.5-1.9-9.1-3-14.2l-5.1-.6-2-24.3-6-1.3H76.5c-1.3,4.5-2.5,8.1-3.6,11.7s-2.8,4.8-6.1,10.2l-14.7,2.7,11.1-8.9-3.1-1.5,1.5-13.9L58,321.5,46.9,338.1h-4l.8-6.5-18.1.9,3.3,1.4L13.1,330H38.3v-1.2L24.8,327Zm22.9-1.2,2.7,5.5,1.8-1.5Zm50.4,24.9c-.3.2-.6.3-.7.6s.2.4.4.7.6-.3.7-.5S116.2,346.4,116.1,346.1ZM45,324.1l-.3-.2-.3.6.2.2Z"/><path class="cls-1" d="M47.1,300.4l-3.2,1.7c-.2-.7-.5-1.4-.7-2,.4-3.1.9-6.1,1.2-8.5-11.2-13.4-9.2-2-9.9,4.5-.1.7-1,1.3-1.5,1.9a8.8,8.8,0,0,1-.2-1.6c-.9-5.4-1.9-10.7-2.8-16.1l.7,8v1.8l-5.8,3.3.3-5.9c-5.8-.8-11.6-1.9-17.4-2-1.6,0-3.2,3.1-4.8,4.8-.6-6.4-1.2-12.7-1.7-19.1l37.5.2-5.3,2.7,19.4,4.6-2.1,8.6H49.1C48.4,291.7,47.7,296.1,47.1,300.4Zm-1.8-17.2.8-2.1L42.2,280c-.1,0-.4,1.1-.7,1.6Z"/><path class="cls-1" d="M13.1,330l15.8,3.9c3.7,2.4,7.4,4.8,11,7.3l-11,1.9v-3.4H6.4V343H28.9a20,20,0,0,1-1,2.1c-6.9-.1-13.8-.2-20.7,0-1.4.1-2.9,1.5-4.3,2.3l2.2,2.7-3.8,6.4V322.2H12.9v3.6l-.6,1.2Z"/><path class="cls-4" d="M234.5,331.1c.5-2.3,1.1-4.6,1.6-6.9H246a29.6,29.6,0,0,0-1.4,5.7c-.1,4.1.1,8.3.2,12.5.7,7.1,1.4,14.3,2,21.4l-12.6-1.6c-.8-7.3-1.7-14.7-2.5-22-.2-1.3-.3-2.7-.5-4Z"/><path class="cls-3" d="M3,290.3c1.6-1.7,3.2-4.8,4.8-4.8,5.8.1,11.6,1.2,17.4,2l-.3,5.9,5.8-3.3c-1.1,2.4-2.3,4.8-3.4,7.3H25.7a24.3,24.3,0,0,0,1.4,2v4c-.3,3.3-.5,6.6-.7,9.9-.6-1.2-1.3-2.3.6,1.2l-1-.9L19.8,304l-.9,9.7-4.6.4L14,298.2l-2.1-8.6a42.3,42.3,0,0,0-2.7,5.7,19.1,19.1,0,0,0-.5,4.8H8.2l-1.1-.9v-12c-1.9,2.2-2.5,3-3.2,3.9Z"/><path class="cls-3" d="M152.8,364.8l-7.4-1.6c0-.5-.4-2.6-.7-4.8.3-6.7.7-13.5,1-20.2l13,3.9C156.7,349.7,154.8,357.3,152.8,364.8Z"/><path class="cls-4" d="M66.5,367.1c4.2-5.1-8.2-20.7,10.6-16.5L91,357.1l-1.2,5.1H85.3v1.3l4.6.3v1.3L69.4,369l1.3-3.3Zm8.2-7.5v.9h2.4v-.8Zm.2-3.1v1.3l2.9-.4v-.9ZM88,359.9v-.6H85.5v.7Zm-11.7-5.8v-1H73.4v.9Z"/><path class="cls-5" d="M1.3,217.4,25,218.7l.3,2.2,3.4-2.1,65.2-.5-20.5,1.3-2.6,1.1-21,2.7H46l-15.1-2.8-7.7,2.7L6.9,216.5v11l.4,6.9-5,2.8Z"/><path class="cls-1" d="M2.3,237.2l5-2.8,14.8-3.5.8,5.5H13.2v4.8l-.7.8H11.4l-5.3-.6,2.1,11.9L7,255.1l-2.2,1.8,3.1,1.8.4,1.9-6,4.8Z"/><path class="cls-4" d="M53,365.8,66,368c-1.8,1.8-3.5,5.1-5.3,5.2-18.7.3-37.4.2-48,.2Z"/><path class="cls-3" d="M42.2,363,3.9,359.8l19.4-3-1.5-1.7,20.2.8,2-.7,2.5,1.9-1.8,1.1Z"/><path class="cls-4" d="M92,357.6l1-1,5.6,2,11.1-7.2c1.1,3.4,3.3,6.9,2.9,10s-4,4.5-6.2,6.7l-3.6-3.9a4.9,4.9,0,0,1-.1-1.2H98.1l-1,1.3H91.7l.3-1.5,3.5-.2v-1l-3.6-.3Z"/><path class="cls-5" d="M231.7,340.1c.8,7.3,1.7,14.7,2.5,22L208.6,365l20.4-3c-.1-1.4-.2-3.2-.3-4.9Z"/><path class="cls-1" d="M44.7,358.2l1.8-1.1L44,355.2c-.4-3.7-.8-7.4-1.1-11.1.6-.3,1.3-.6.1-.1.8-1,.3-.4-.1.1l-1.9.7,3.2-3.6c1,1.2,2.5,2.3,2.9,3.7,2,6.4,3.8,12.9,5.6,19.4l-6.6.7C45.6,362.7,45.2,360.4,44.7,358.2Z"/><path class="cls-4" d="M130.6,337.3l2.3.7,4.8,22.1-1.4,4.8c-1.7-2.2-4.5-4.4-4.8-6.8C130.7,351.2,130.8,344.2,130.6,337.3Z"/><path class="cls-3" d="M136.3,364.9c.5-1.6.9-3.2,1.4-4.8,1.7-7.7,3.3-15.4,4.9-23.1.1,7.1.3,14.2.4,21.2h0c-.9,2.2-1.7,4.4-2.5,6.6Z"/><path class="cls-1" d="M119,324.1l1.2-1.9,2.6.8c1,4.8,2.1,9.5,3.1,14.3a.7.7,0,0,0,.1.5l-4,1.3v.2a27.2,27.2,0,0,1-.1,2.8,19.5,19.5,0,0,1,.2,2.3l.3,17.5-1.5,2c-.7-7.6-1.3-15.1-2-22.7h0c.3-2.7.7-5.4,1.1-8.1Z"/><path class="cls-3" d="M244.8,342.3c-.1-4.2-.3-8.4-.2-12.5a29.6,29.6,0,0,1,1.4-5.7h1.3l2.1,16.1Z"/><path class="cls-5" d="M160.6,360.8h22.1c.4,1.4.9,2.7,1.3,4-6.8.1-13.5.4-20.2,0C162.7,364.9,161.7,362.2,160.6,360.8Z"/><path class="cls-5" d="M21.8,355.1l1.5,1.7-19.4,3-2.6-3.3,3.8-6.4,6.1,1.1a2.4,2.4,0,0,0-.2.8l1,1.3Z"/><path class="cls-5" d="M152.8,364.8c2-7.5,3.9-15.1,5.9-22.7,0,.3.1.6.1.9l1.8,17.3Z"/><path class="cls-3" d="M6.1,211.5l-4.7,1c-.1-6.7-.1-13.3-.2-19.9.9,1.7,2.2,3.4,2.6,5.3C4.8,202.4,5.4,207,6.1,211.5Z"/><path class="cls-4" d="M44.7,358.2c.5,2.2.9,4.5,1.4,6.8l-24.7,1.6v-1.9L42.2,363Z"/><path class="cls-1" d="M3.9,291.2l3.2-3.9v12c-.1,1.3-.1,2.6-.2,3.9l-1.8-1.9H3.9L3,299.7a.5.5,0,0,0-.6-.4Z"/><path class="cls-5" d="M143,358.2c-.1-7-.3-14.1-.4-21.2l3.1,1.2c-.3,6.7-.7,13.5-1,20.2Z"/><path class="cls-5" d="M3.9,311.3,2,314V301.3c.6,1.2,1.1,2.5,1.6,3.7Z"/><path class="cls-5" d="M102.7,363a4.9,4.9,0,0,0,.1,1.2l-4.5,3-1.2-3,1-1.3Z"/><path class="cls-4" d="M122.3,361.9l-.3-17.5Z"/><path class="cls-5" d="M92,362.7l-.3,1.5-1.4,3.4c-.2-1.1-.3-1.8-.4-2.5a6.2,6.2,0,0,0-.1-1.3v-1.6l1.2-5.1c.1-.7.1-1.4.2-2.2a27.6,27.6,0,0,1,.8,2.7c0,1.2-.1,2.4-.1,3.6S92,362.2,92,362.7Z"/><path class="cls-5" d="M140.5,364.9c.8-2.2,1.6-4.4,2.5-6.6C142.1,360.5,141.3,362.7,140.5,364.9Z"/><path class="cls-4" d="M3.6,305c-.5-1.2-1-2.5-1.6-3.7l.3-1a1.3,1.3,0,0,0,.7-.6l.9,1.5Z"/><path class="cls-5" d="M122,339.1l4-1.3h0a11.1,11.1,0,0,0-.7,1.6Z"/><path class="cls-1" d="M125.3,339.5a11.1,11.1,0,0,1,.7-1.6l1.7,1.6Z"/><path class="cls-5" d="M121.8,342.1a27.2,27.2,0,0,0,.1-2.8A27.2,27.2,0,0,1,121.8,342.1Z"/><path class="cls-3" d="M3,299.7a1.3,1.3,0,0,1-.7.6,3.7,3.7,0,0,0,.1-1.1C2.7,299.3,2.9,299.4,3,299.7Z"/><path class="cls-1" d="M249.6,187.5c-1-6.6,6.9-19.1-10-14.8l-13.8,2.7v2.3l.3,1.4,9.7,7.5-.5,1.1h-2.8c-13.3-2.4-17.5,3.9-18.6,16.4-1.4,16.5-14,7.5-22.2,8.1.3-4,.5-8,.8-12l.3-7.8a11.6,11.6,0,0,0-.4-1.8l-7.7-5.4v-9.8H186l.4,5.7,1.5-.2c-.5-2.6-.9-5.2-1.9-10.7l-2.6,6.5L180,173c-.8,1.5-1.9,2.9-2.1,4.4a70.4,70.4,0,0,0-.3,8,10,10,0,0,0-3.8-.3l-18.9,4.8V214l-6.2-4.5-3.9-7.5-2.3-10.9L133,190h-.3L127,176.3l14-9.7H110.8l5.2-1.9,135.6,2M212.9,171v-4l-15.8,1.8c0,.7.1,1.5.1,2.2Zm-63.8,23.9-.5-.5c-.3,0-.5.3-.7.5l.6.8Z"/><path class="cls-1" d="M218.6,124.7c4-3,7.7-7.2,12.2-8.8s10.5-.9,15.9-1.2l1.8,2c.1,2.3.1,4.7.2,7h-.1l-1.9.9-5.9-1.7-2.3-.7h-2l.4.3-1.4,1.6h-.4v.4c-.7,3.6-1.3,7.1-1.9,10.7v.2l.3.2v25h-7.1c0-11.2.1-22.3-.1-33.5,0-1.1-1.5-2.2-2.4-3.3h-1.5c-.1-.1-.1-.3-.2-.4l-.4-.3c-.5,3.4-1,6.9-1.6,10.3a6.1,6.1,0,0,0,.1,1.4v14.5h1.5v-9.8c-.2,6.9-.5,13.8-.7,20.7-1.1-1.7-3.2-3.5-3.2-5.3-.2-5.3.5-10.7.8-16,0-2.1-.1-4.2-.1-6.3a9.7,9.7,0,0,1,.1-1.7C218.5,128.8,218.5,126.7,218.6,124.7Zm10.2,29.2h1.6V124.6h-1.6Z"/><path class="cls-2" d="M240.8,122.9l5.9,1.7a13.6,13.6,0,0,1-.2,2l.4.4,1.7-.2a1.4,1.4,0,0,0,.2.6c.2,3.6.3,7.1.5,10.6v20.1h1.2V127.6a5.9,5.9,0,0,1,.4-.8c.5,10.4,1,20.8,1.3,31.2,0,1-1.6,2.1-2.5,3.1-.7-1-2.1-2-2.1-3.1-.2-6.5-.1-12.9-.1-14.7l-7.5,18C240.2,148.5,240.5,135.7,240.8,122.9Z"/><path class="cls-2" d="M126.2,160.5c.6-10.5,1.1-21,1.7-31.5l11.1,6c-.4,5-1.5,10.2-1,15.1C139,159.7,134.5,162,126.2,160.5Z"/><path class="cls-5" d="M199.4,129.8l5.1-5.1c1,4.3,2,8.6,3.1,12.8.4,7.4.7,14.8,1.1,22.1l-20.7-.9c-.1-1.1-.1-2.2-.2-3.3l10.8-2.8C198.9,145,199.1,137.4,199.4,129.8Zm1.4,28.6h2.4V132.4h-2.4Z"/><path class="cls-2" d="M157.7,143.6l4.2-8.8,1.9,1c-.1,7.9-.1,15.9-.2,23.8l-6.7,1.1C157.2,155,157.4,149.3,157.7,143.6Z"/><path class="cls-3" d="M208.7,159.6c-.4-7.3-.7-14.7-1.1-22.1l2.3-2.2c.7,3.3,2,6.6,1.8,9.9C211.3,150,209.8,154.8,208.7,159.6Z"/><path class="cls-5" d="M240.8,122.9c-.3,12.8-.6,25.6-.8,38.4l-.9-34.4a37.8,37.8,0,0,0-.6-4.7Z"/><path class="cls-2" d="M143.6,131.7l2.1-1c.1,7.8.3,15.7,0,23.5,0,1.2-1.9,2.3-3,3.5Z"/><path class="cls-5" d="M163.8,135.8l-1.9-1,5.8-3.2c.1,2.7.2,5.3.4,8l-.6,20.8-2.9-.7c.4-7.5.8-15,1.1-22.5C165.7,136.8,164.5,136.3,163.8,135.8Z"/><path class="cls-3" d="M222.2,123.8h1.5c0,11.1.1,22.1-.1,33.2,0,1.1-1.8,2.1-2.7,3.2.2-6.9.5-13.8.7-20.7Z"/><path class="cls-5" d="M157.7,143.6c-.3,5.7-.5,11.4-.8,17.1h-3.2C155.1,154.9,156.4,149.2,157.7,143.6Z"/><path class="cls-2" d="M167.5,160.4l.6-20.8c.3-1.6.5-3.2.8-4.8l2,.2C169.7,143.5,168.6,151.9,167.5,160.4Z"/><path class="cls-5" d="M177.8,161.3c1-3,2.1-6,4.2-12,.6,5.6.7,7.7,1,10.3l3.7-6c.1,2.1.1,4.2.2,6.3Z"/><path class="cls-3" d="M163.8,135.8c.7.5,1.9,1,1.9,1.4-.3,7.5-.7,15-1.1,22.5h-1C163.7,151.7,163.7,143.7,163.8,135.8Z"/><path class="cls-5" d="M248.5,116.7l-1.8-2"/><path class="cls-5" d="M248.8,127.4a1.4,1.4,0,0,1-.2-.6v-3.1h.1l2.2,3.1a5.9,5.9,0,0,0-.4.8Z"/><path class="cls-1" d="M186.9,159.9c-.1-2.1-.1-4.2-.2-6.3l.9-2c.1,1.3.1,2.6.2,3.8s.1,2.2.2,3.3Z"/><path class="cls-5" d="M218.4,132.5c0,2.1.1,4.2.1,6.3C218.5,136.7,218.4,134.6,218.4,132.5Z"/><path class="cls-5" d="M218.6,124.7c-.1,2-.1,4.1-.1,6.1l-.9-4.4Z"/><polygon class="cls-3" points="233.3 135.5 233 135.3 233.1 135.1 233.3 135.5"/><path class="cls-5" d="M236.9,122.4l-.4-.3h.4Z"/><path class="cls-5" d="M235,124.4V124h.4C235.4,124.3,235.3,124.4,235,124.4Z"/><path class="cls-1" d="M247.6,71.8l-11.5,1a.8.8,0,0,0-.1.8l-.4,2H235c-1.4.4-2.7.8.2-.1,1.9,7.7,3.6,13.9,5.2,20.1v10.7l-2.6.6c-1-5.5-2.1-11-3.1-16.4v-.3h-.2c.3-1.5.5-2.9.8-4.4l-4.5-.4c-.4-2.5-.8-5.1-1.1-7.6l-.9-1.1h-.2c-.6-.8-1.1-1.7-2.1-3.3l-21.6,1v1.5l15.5,2.1a14.1,14.1,0,0,0,.1,2l-7.2.4-1.9.7c-2.9-.9-5.8-2.5-8.7-2.8-8.4-.7-16.8-1-25.2-1.4l-3.9.2h-1.1l-10.9-2.9C177.2,71.5,192.5,69,208,67c6.2-.8,12.5-.3,18.8-.4"/><path class="cls-1" d="M117.8,93.7c.1-3.6.1-7.2.1-10.7l19.1.6-5.3,25.3-14.9-3.2C117.2,101.7,117.5,97.7,117.8,93.7Zm1.8-3.6-.6.2v12.2h.6Z"/><path class="cls-1" d="M197.4,108.6H185.9c-1.1-8.2-2.1-16.5-3.1-24.7l1.9-2h0l25.8,1.7a.4.4,0,0,0,.2.5h-3.9l-3.9.9h-2.4v8.9c-.1,3.3-.3,6.6-.5,9.8l-2.3-1.8c-.4-2.4-.7-4.7-1-7l-.9-1-.2.2.9.9c.4,2.3.7,4.7,1,7S197.5,106.3,197.4,108.6Zm-6.2-23-4.6,1.1c1.6,5.9,3.3,11.8,4.9,17.7l2.9-.6C193.3,97.7,192.3,91.7,191.2,85.6Zm5.4.5-1.6.5,1.3,4,1.3-.4C197.3,88.8,196.9,87.5,196.6,86.1Z"/><path class="cls-3" d="M76.8,90c0,5.8,0,11.6-.1,17.5l-4.6,4a.8.8,0,0,0-.2-.7l-2.6-1.1H61.5l2.5-2.9,3-28.5,6.5.2,3.1,2.4V90Z"/><path class="cls-3" d="M172.7,76.8h1.1v1.8c.7,10.1,1.3,20.1,1.9,30.2l-3.6.6c-2.3-8.7-4.6-17.1-6.9-25.6-1.5-1.6-2.9-3.3-4.4-5l9.9-1.2Z"/><path class="cls-5" d="M251.4,81.8l-8.9,1.8-2.1,12c-1.6-6.2-3.3-12.4-5.2-20.1-2.9.9-1.6.5-.2.1l.9,1.3-.3-1.3c.1-.7.3-1.3.4-2a1.9,1.9,0,0,0,.1-.8l11.5-1m-2.7,4.7v.8"/><path class="cls-1" d="M160.8,78.9c1.5,1.7,2.9,3.4,4.4,5l-.3,1.5c.6,4.1,1.3,8.2,1.9,12.3s-1.3,8.6-1.9,12.9c-1-7.5-1.9-15.1-3-22.6-.1-1.1-1.2-2.1-2.2-2.8s-1.4.4-2.2.6l1.2,3.8-1.8,14.1c-.1,2.4-.1,4.7-.2,7h-.9c-.6-1.5-1.3-3-2-4.4v-1.6c-.5-7.4-1-14.9-1.6-22.8l3.4-.5,3.3-2.3Z"/><path class="cls-5" d="M213.5,80.2l7.2-.4c.3,5,.6,10,1,15-.8-2.5-1.5-5-2.3-7.5l-.6.2c-.1.1-.1.3-.2.4,0,1.9,0,3.8-.1,5.7l-5.7,3.7,3.4,5.5c.5-1,1.1-1.9,2.3-4,.4,3.2.7,5.1,1,7.1l-7.9,1.7-1.2-22.7.3-.9a.4.4,0,0,1-.2-.5l1.1.3.5,2.2C212.7,83.8,213.1,82,213.5,80.2Z"/><path class="cls-5" d="M131.7,108.9,137,83.6h1.7c0,8.7,0,17.4.1,26Z"/><path class="cls-5" d="M86.8,85.8l2.1-2c1.3,1.4,3.7,2.8,3.8,4.2.1,7.7-.3,15.4-.5,23.1-1.9-3.6-4.6-7.1-5.4-11S86.7,90.6,86.8,85.8Z"/><path class="cls-5" d="M220.6,77.8l-15.5-2.1V74.2l21.6-1c1,1.6,1.5,2.5,2.1,3.3-.5,4.5-.9,9-1.3,13.5s.4,6.3.5,9.5l-2.4,8.1-.6-15.9.2-.3a1.9,1.9,0,0,0-.2-.7V88.8l.3-1.2-.3-3.5c-.3-.8-.5-1.6-.8-2.5Z"/><path class="cls-3" d="M252.6,102.6c-.6-6.9-.8-13.9-1.2-20.8"/><path class="cls-5" d="M158.7,89.6l-1.2-3.8c.8-.2,1.8-.9,2.2-.6s2.1,1.7,2.2,2.8c1.1,7.5,2,15.1,3,22.6l-3.8-2.3-4.4,2.4c.1-2.3.1-4.6.2-7s1.1-2.5,1.6-3.8c.4,1.4.7,2.9,2.1,8.3V94.8l-.7-1.1v-.4C159.5,92,159.1,90.8,158.7,89.6Z"/><path class="cls-5" d="M202.9,84.9l3.9-.9c0,1,0,2,.1,3v1.5c.1,1.2.3,2.3.4,3.4l.2,1.8v5.1l-1.1,9.1-4.1-.8.3-2.9Z"/><path class="cls-5" d="M175.7,108.9c-.6-10.1-1.2-20.1-1.9-30.2,2.1,9.7,4.3,19.4,6.2,29.1C180,107.9,177.2,108.5,175.7,108.9Z"/><path class="cls-2" d="M224.9,88.8v2.9l.6,15.9h-2.6a15,15,0,0,1-.2-2l-.3-4.7-.3-3.6.2-.2-.3-.3-.3-2c-.4-5-.7-10-1-15a14.1,14.1,0,0,1-.1-2l3.5,3.8c.3.9.5,1.7.8,2.5l.3,3.5Z"/><path class="cls-3" d="M211.6,83.8l-1.1-.3-25.8-1.7c.6-1.4,1.3-2.8,2.4-5.1l-4.5,1.1h-1.9l-1.9-.3-1.1-.8c8.4.4,16.8.7,25.2,1.4,2.9.3,5.8,1.9,8.7,2.8Z"/><path class="cls-1" d="M64,106.8l-2.5,2.9-.6,2c-.8-6-1.7-12-2.5-18,.2-.7.3-1.3.5-1.9l1.1-.2C61.3,96.7,62.6,101.7,64,106.8Z"/><path class="cls-3" d="M153.7,104.7a8.1,8.1,0,0,1,.1,1.6l-.9,1.5-3,2.8c-.8-1-2.3-2-2.4-3-.7-7.3-1.2-14.5-1.8-21.7l1.5-4.2c1.2,9.9,2.2,17.6,3.2,25.7Z"/><path class="cls-3" d="M138.8,109.7c-.1-8.6-.1-17.3-.1-26,1,3.2,2.1,6.4,2.9,9.7.5,1.7.3,3.6.4,5.4-.5,3.8-.9,7.7-1.3,11.6Z"/><path class="cls-5" d="M100.7,86.9l2.8-1.3c.5,8.1.9,16.1,1.3,24.1h0l-2.6,1.5c-.6-1.9-1.1-3.8-1.6-5.7V86.9Z"/><path class="cls-3" d="M222.7,105.6a15,15,0,0,0,.2,2l-3.4-1.7c-.3-2-.6-3.9-1-7.1-1.2,2.1-1.8,3-2.3,4l-3.4-5.5,5.7-3.7c.1-1.9.1-3.8.1-5.7.1-.1.1-.3.2-.4l.6-.2c.8,2.5,1.5,5,2.3,7.5l.3,2v.3l.2.2.3,3.6Z"/><path class="cls-5" d="M182.8,83.8c1,8.2,2,16.5,3.1,24.7-1.4-8.5-2.8-17-4.1-25.5Z"/><path class="cls-2" d="M58.9,91.8c-.2.6-.3,1.2-.5,1.9l-3.2,5-.3-16h2.6l.6,1.1v1Z"/><path class="cls-2" d="M207,88.5c0-.5-.1-1-.1-1.5l3.5-2.1,1.2,22.7c-1.3-4.6-2.6-9.2-4-13.9a11,11,0,0,0-.2-1.8C207.3,90.8,207.1,89.7,207,88.5Z"/><path class="cls-3" d="M202.7,104.2l-.3,2.9-5,1.5c.1-2.3.2-4.6.2-6.8h.2l2.3,1.8c.2-3.2.4-6.5.5-9.8Z"/><path class="cls-5" d="M232.7,91.8c.4,4.8.9,9.6,1.4,14.4h-2.3l-.9-14.7Z"/><path class="cls-5" d="M60.9,111.7l.6-2h7.8l2.6,1.1a.8.8,0,0,1,.2.7Z"/><path class="cls-2" d="M100.6,88v17.5h-.7l-.3-1.5C100,98.7,100.3,93.4,100.6,88Z"/><path class="cls-1" d="M182.6,77.8l4.5-1.1c-1.1,2.3-1.8,3.7-2.4,5.1h-2.8Z"/><path class="cls-2" d="M227.9,99.5c-.1-3.2-.3-6.3-.5-9.5.2-.6.4-1.2,1.7-6.4C228.5,91.9,228.2,95.7,227.9,99.5Z"/><path class="cls-3" d="M166.8,97.7c-.6-4.1-1.3-8.2-1.9-12.3C165.5,89.5,166.2,93.6,166.8,97.7Z"/><path class="cls-5" d="M140.7,110.4c.4-3.9.8-7.8,1.3-11.6C141.5,102.6,141.1,106.5,140.7,110.4Z"/><path class="cls-3" d="M232.7,91.8l-1.8-.2V87.9l3.7,2.2h.2v.3Z"/><path class="cls-3" d="M206.5,107.9l1.1-9.1C207.2,101.9,206.9,104.9,206.5,107.9Z"/><path class="cls-5" d="M152.9,107.8l.9-1.5c.7,1.4,1.4,2.9,2,4.4Z"/><path class="cls-5" d="M230.9,85.3l4.5.4Z"/><path class="cls-1" d="M178.8,77.5l1.9.3Z"/><path class="cls-3" d="M181.9,81.8h2.8l-1.9,2-1-.8A4.9,4.9,0,0,1,181.9,81.8Z"/><path class="cls-5" d="M228.9,76.6l.9,1.1Z"/><path class="cls-5" d="M200.6,21.2c.2,5.1.5,10.1.8,15.2-.5-3.6-.9-7.2-1.3-10.8h-1.9V57.8c-1.2-6.2-2.7-12.3-3.4-18.5s-.1-9.6-.1-14.4Z"/><path class="cls-1" d="M200.6,21.2l-5.9,3.7-3,.8-4.2-.6c-.9,3.1-1.9,6.2-2.6,9.4a32.9,32.9,0,0,0-.2,6.3h-3.5V38.8c0-5,.1-10,.1-15v-.2l.3-.2-.2-.3c0-1.4,0-2.7-.1-4.1Z"/><path class="cls-2" d="M198.2,57.8V25.6h1.9c.4,3.6.8,7.2,1.3,10.8,0,6.7.1,13.5,0,20.2a9.1,9.1,0,0,1-1.1,3Z"/><path class="cls-2" d="M172.7,76.8l-2,.9H147V75.5l12.9-1.4,1.9-.2Z"/><path class="cls-5" d="M207.6,18.9c0,11.6,0,23.1-.1,34.6-.3-4.5-.6-9-1-13.5V23.3c0-.8.1-1.6.1-2.3s.1-1.4.1-2Z"/><path class="cls-1" d="M206.5,40c.4,4.5.7,9,1,13.5a6.5,6.5,0,0,0,.4,1.3c-.2,1-.3,2-.5,3l-1.8-18.2Z"/><path class="cls-4" d="M206.5,40l-.9-.4.9-16.3Z"/><path class="cls-5" d="M187.5,25.1l4.2.6V28l-4.2.9Z"/><path class="cls-1" d="M206.7,19c0,.6-.1,1.3-.1,2a34.5,34.5,0,0,1-2.6-2.8c-.1-.1.9-1,1.3-1.5Z"/><path class="cls-4" d="M207.4,57.8c.2-1,.3-2,.5-3l1.5,1.2Z"/><path class="cls-4" d="M209.4,49.6v0Z"/><path class="cls-4" d="M187.8,155.4c-.1-1.2-.1-2.5-.2-3.8l-.9-5.9,1.3-2.3c.3-3.4.5-6.7.8-10l1.8-7.8.5-1.7h1.5l3.5.3c.9,9.5,1.7,19,2.5,28.5Z"/><path class="cls-5" d="M190.6,125.6l-1.8,7.8c-.3,3.3-.5,6.6-.8,10l-1.3,2.3c.1-4.8.3-9.5.4-14.3l-12.6-4.7,13.2-2.7Z"/><path class="cls-2" d="M174.5,126.7l12.6,4.7c-7.4-.5-14.7-1-22.1-1.7-1.4-.1-2.7-1.3-4.1-2Z"/><path class="cls-2" d="M179.5,131.9v9.5l-1.6-9.3Z"/><path class="cls-2" d="M179.4,140.9v3.5h-.9c-.2-1.2-.3-2.4-.5-3.5Z"/><path class="cls-2" d="M247.2,26c.4-2.2.9-4.5,1.4-6.8V53.5h-1.4Z"/><path class="cls-4" d="M76.6,80.9l-3.1-2.4a21.7,21.7,0,0,1,.7-2.4l7.7-.2L76.8,90c0-2.1,0-4.2-.1-6.3A25.3,25.3,0,0,0,76.6,80.9Z"/><path class="cls-4" d="M102.5,82.5h0Z"/><path class="cls-4" d="M37.6,161.8h0Z"/><path class="cls-5" d="M129.7,21.7c1,11.4,1.9,22.8,2.9,34.2l-5.6.2c.8-11.4,1.7-22.9,2.6-34.3Z"/><path class="cls-1" d="M121.8,54.7,120.9,20h1.9C122.5,31.5,122.2,43.1,121.8,54.7Z"/><path class="cls-4" d="M50.2,92.4l-.3-8.6Z"/><path class="cls-4" d="M100.6,88c-.3,5.4-.6,10.7-1,16-.7-5.1-1.5-10.2-1.9-15.3-.1-.5,2-1.2,3-1.8A3.7,3.7,0,0,1,100.6,88Z"/><path class="cls-4" d="M104.8,109.7c-.4-8-.8-16-1.3-24.1a10.1,10.1,0,0,0,1.3-1.6Z"/><path class="cls-1" d="M106.2,86.5c-.2-.9-.3-1.8-.5-2.7l4.9-.5Z"/><path class="cls-2" d="M198.6,152.6c-.8-9.5-1.6-19-2.5-28.5l3.3,5.7C199.1,137.4,198.9,145,198.6,152.6Z"/><path class="cls-1" d="M236.6,57.9h0Z"/><path class="cls-1" d="M163.9,36.9l1.3,1.1Z"/><path class="cls-3" d="M158.8,79.1l-3.3,2.3Z"/><path class="cls-3" d="M140.8,76.7c.7.1,1.4.2-.2,0,1.5.6.9.4.2.1Z"/><path class="cls-1" d="M61.9,36v2.9h-.5v-3Z"/><path class="cls-5" d="M218.7,51.8l.6,2.1Z"/><path class="cls-3" d="M190.6,125.6l-2.9-1.6,1-.5,1.8-1.3.6,1.7C190.9,124.4,190.8,125,190.6,125.6Z"/><path class="cls-5" d="M74.2,76.1a21.7,21.7,0,0,0-.7,2.4L67,78.3l-7.2,3.5h-1c.1-1.7.1-3.4.2-5Z"/><path class="cls-3" d="M181.3,23.8c0,5-.1,10-.1,15C181.2,33.8,181.3,28.8,181.3,23.8Z"/><polygon class="cls-3" points="181.5 23.1 181.7 23.4 181.4 23.6 181.3 23.3 181.5 23.1"/><path class="cls-4" d="M109.3,110.3l.4-.4h-.3Z"/><path class="cls-3" d="M58.8,81.7h1c.1,3.2.1,6.5.2,9.8l-1.1.2c-.3-2.4-.5-4.7-.7-7l.2-.3-.3-.7-.6-1.1Z"/><path class="cls-2" d="M247.8,217.1c1.7-7.6,3.1-14.6,5-21.5"/><path class="cls-2" d="M152.7,270.2H127.3l8.7-8.3,3-15.7c1.1,5.6,2.1,11.2,3.1,16.8,1.4,1.5,2.9,4.4,4.3,4.4,8.2,0,16.3-.6,24.4-1.2,2.6-.1,7.4-.8,7.4-1.4.2-5-.5-10.1-.9-15.1l-2.6.3v5.4h.1c-.4-2.7-.7-5.4-1.1-8.1l6.8-.4c-3.5,22.7,10.9,22.4,26.5,20.7a24.5,24.5,0,0,1,5.4-.1c13.3,1.8,16.4-4.8,13.9-16.3l.3-.7,7,12.5c.8,1.4,1.8,4.1,2.2,4,2-.5,4.8-1.3,5.5-2.8s.5-5.4.8-11.1c.3,5.1.4,7.2.6,9.4l.6,1.7.7,2.6,2.8-1.4,1-1.1,1.6-.2"/><path class="cls-3" d="M250.7,238.3c.3-2.6.6-5.3,1-7.9"/><path class="cls-1" d="M251.7,230.4l-1.2-3"/><path class="cls-2" d="M132.7,190h.3l2.4,10.5-10.7,4.9,24,4.1,6.2,4.5V189.9l1.9-.3c2.2,1.8,4.7,5.4,6.7,5.2,5.5-.6,10.8-2.7,16.2-4.2h0l8.1.7h2.8l2.3,1.1-.3,7.8c-3.2,3.3-6.4,6.6-9.7,9.8l5.8,2.9-70.9-.6c.5-8.9,1-17.7,1.4-26.6l2.7,19.1,1.8-.2V186.8Z"/><path class="cls-3" d="M49.1,212.5H23.9l-2.4-21.3,2.1,17c0,.4.1.9.1,1.4,2-6.1,3.9-12.1,6-18.8l2.6,10.1c.6-4.9,1-7.6,1.9-14.8l2,9.9,3.9-6.9,9.4,8,1.8-14.6c.5,2.2,1.1,4.6.7,3.1l1.8,23.2Z"/><path class="cls-5" d="M49.1,212.5l4.7-3.8,3.3,2.4c.6-1.1,1.8-2.2,1.9-3.4.5-5.4.7-10.8.9-16.2a3.2,3.2,0,0,0,.9-.3l.3.3c1,6.5,2,13.1,2.9,19.7l6.9-.8V191l4.9,6.5C78.3,222.7,58.7,208.9,49.1,212.5Z"/><path class="cls-5" d="M114.9,212.2h-33l27.3-1.9L83,206.5l30.7,4.8Z"/><path class="cls-3" d="M114.9,212.2l-1.2-.9V186.6h1.2l.9,8.6c1.2-3.2,2.3-6.3,3.4-9.4-.4,8.9-.9,17.7-1.4,26.6Z"/><path class="cls-5" d="M132.7,190l-9-3.2c-.5-3.7-1.1-7.3-1.6-11l4.9.5Z"/><path class="cls-3" d="M127,176.3l-4.9-.5-11.3-9.2H141Z"/><path class="cls-3" d="M83,206.5l26.2,3.9-27.3,1.9-5-4.9Z"/><path class="cls-3" d="M64,211.2c-.9-6.6-1.9-13.2-2.9-19.7h5.8C65.9,198.1,65,204.7,64,211.2Z"/><path class="cls-5" d="M21.5,191.1l2.4,21.3-4-.7C20.5,204.9,21,198,21.5,191.1Z"/><path class="cls-3" d="M92.4,198.2l-.6-12.3h2.9c.6,4,1.3,8,1.9,12Z"/><path class="cls-3" d="M77,205.5c-.1-2-.1-4-.1-6l4.7,3.1Z"/><path class="cls-3" d="M9.2,204.2v-2.6h.6v2.7Z"/><path class="cls-3" d="M66.9,191.5c.2-.4.5-.7-.1.1s.4-.4.1-.1Z"/><path class="cls-5" d="M23.7,209.5c0-.5-.1-1-.1-1.4S23.7,209,23.7,209.5Z"/><path class="cls-3" d="M60.8,191.2a3.2,3.2,0,0,1-.9.3Z"/><path class="cls-2" d="M247.3,324.1H236.1c-17.7-.3-35.4-.8-53.1-1-20.1-.2-40.1-.2-60.2-.2l-2.6-.8L45.4,322c14.7-1.1,29.4-2,44-3.4,2.4-.3,4.5-2.9,6.7-4.5l6.9,1.5c1.3.5,2.6,1.5,3.8,1.5l30.7-.3h0l10.3,1v-1.7H137.5c-2.5-4.8-5-9.5-7.6-14.2.3-3.6.5-7.2.7-10.7l6,3.1,10,21c-.3-5.3-.5-8.2-.6-11.1h8.8l4-2.9-5.2-4.8-9.5.6-2.1-9.9c5-.9,10.3-3.2,15-2.2,2.7.5,4.3,6.3,6.3,9.6.2-2,.4-4.6.6-7.2l8.9,9.3c-.2-3.2-.5-7.7-.8-12.2l5.8-.2,4.8,1.2c.3,4.6.6,9.1.8,13.7h1.2l-.6-13.5h4.4l2.1,25.7-9.6.3-8,.7-.2.2-7.1-5,1.8,6.8-1.8.7,2.1,3.3h0l7.5-2.1c.5,1.1.9,2.2,1.4,3.4l4.8-5.7a2.5,2.5,0,0,0,.4-.7l16.5-.3,6.2-1,.2-.5,1.6.3c1.3-7.8,2.5-15.6,3.8-23.3l7.8,13.6c.3,4.1.6,8.2,1,12.3l16,5.7.3-1.6L221,312.4l2.1-4.3,14.5,1.5,3,7.2h6.1"/><path class="cls-1" d="M73.4,219.6l20.5-1.3,28.8-.6c-.8,10.9-2.5,22.6,15.1,18.7L129,257.1c-.3-1.1-1.2-5-2.1-8.8h0l-2,.2h0l-1.2,13.8a.9.9,0,0,1-.7-.3l-6.1-14.7-1.4-1.8-1.3-4H95.9l-25-2.2-15.1.4-3.9.8,3.1-4.1,7.2-2.6-11.4-7.1H67.2l4.7,6.1c1.4-1.9,3.7-3.8,3.9-5.8S74.3,222.1,73.4,219.6Zm42.9,6.1c-2.6-3-4.2-6.2-5.3-6-3.8.6-7.4,2.4-11.1,3.7l.6,2.3Z"/><path class="cls-3" d="M180.5,246.8l-6.8.4-8.3,14.2c1.6.8.7.3-.3-.1-.4-5.3-.9-10.6-1.4-15.8-.1-2-.2-3.9-.3-7.2l-3.5,3.1c0-2,.1-4,.2-6l20.5-1.7-.4-2.4H159.7V219.6l-5.4,11-6.6-10.1c4.3.5,11.2-.6,12.4,1.5,4.3,7.9,15.9,10.2,22.2,3.6l3.8,4.5c1.6,1.7,3.5,4.8,4.7,4.6s5.1-2.3,6.9-4.3,3.3-5.5,4.9-8.2l4.8,11a22.5,22.5,0,0,0,1.2,2.1c.7,1.2,1.4,2.4.1.1-1.6,5.5-2.3,7.7-3,9.9h0l-9,1.3c1.1,3.2,2,5.9,3.6,10.8l-7.5-6.3-5.1,2.2-.3-5.6-4.5-.8Z"/><path class="cls-1" d="M205.7,245.3c.7-2.2,1.4-4.4,3-9.9,1.3,2.3.6,1.1-.1-.1l5.6-10.9c1.2,5.3,1.9,9.1,2.7,12.8-.8,9.4-1.5,18.7-2.2,28.1l-10-.4-5.4-7-2,1.5c.4.9.9,1.8,1.3,2.8-7.4,1.8-17.1,6.3-10.9-8.9l5.1-2.2,7.5,6.3c-1.6-4.9-2.5-7.6-3.6-10.8l9-1.3Zm3.3-1.2.9,1.3,2.9-1.7c-.3-.6-.7-1.1-1-1.6ZM191.4,258c.4-.8.8-1.3.8-1.8s-.6-.6-.9-.9a4.2,4.2,0,0,0-.9,1.4C190.3,256.9,190.9,257.3,191.4,258Z"/><path class="cls-3" d="M238.6,219.6h8c1,7.8,2,15.6,3.1,23.3-1,2.5-1.9,5-2.8,7.5l.4-2.3-4.8-1.6c-.1-1.1-.2-2.2-.5-7.4-.9,5.4-1.2,6.8-1.4,8.2l-.9,1-13.2-5-.9-5.9c.4-1.1.8-2.1,1.1-3.1s1.5-4.2,2.2-6.3l10.6,2.3c-.1.1.8-2.5.5-2.6-4.4-2-8.9-3.7-13.4-5.4Z"/><path class="cls-3" d="M235.9,186.6l-9.7-7.5,5-1.2-1.8-2.8h18.8l-8.6-2.4c16.9-4.3,9,8.2,10,14.8l-2-.8-9,26.7c-.1-6.1,0-12.2-.5-18.2C237.9,192.3,236.7,189.4,235.9,186.6Z"/><path class="cls-5" d="M186.1,230.1l-3.8-4.5c-6.3,6.6-17.9,4.3-22.2-3.6-1.2-2.1-8.1-1-12.4-1.5l-13.8-1.2-.2-1.7c16.4.5,32.9.7,49.3,1.9C184.3,219.6,185.1,226.4,186.1,230.1Z"/><path class="cls-3" d="M133.7,217.6c.1.6.1,1.1.2,1.7l-11.6,8.8h22.6l-5.2,1.8,7.1.5c-1.3,3-2.5,6-3.8,9.1l-5.2-3.1c-17.6,3.9-15.9-7.8-15.1-18.7Z"/><path class="cls-5" d="M225.6,237.4l.9,5.9c0,2.3.1,4.7.1,7.1l-.3.7-4-2.7c-.5,5.4-.9,11.1-1.4,17.2l-6.2-.3c.7-9.4,1.4-18.7,2.2-28.1Zm-3.7,4c-.2.2-.6.4-.6.6s.2.5.3.8l.9-.8Z"/><path class="cls-1" d="M228.9,228c-.7,2.1-1.4,4.2-2.2,6.3-.6-1.7-1.3-3.4-2-5.1s-1.1-3.5-1.6-5.3l-1.9.4c.1,1.7.3,3.3.4,5h-1.9l-.9-.9c-2.4-3.1-4.9-6.1-8.3-10.3l28.1,1.5-12,2.7Z"/><path class="cls-3" d="M250.5,227.4l-.9-7.7"/><path class="cls-5" d="M232.6,187.7h2.8c-.1,8.7-.2,17.3-.2,25.9Z"/><path class="cls-5" d="M188.7,212.9l-5.8-2.9c3.3-3.2,6.5-6.5,9.7-9.8-.3,4-.5,8-.8,12Z"/><path class="cls-2" d="M235.2,213.5c0-8.6.1-17.2.2-25.9a4.7,4.7,0,0,0,.5-1c.8,2.8,2,5.7,2.2,8.6.5,6,.4,12.1.5,18.2Z"/><path class="cls-5" d="M249.6,219.7l.9,7.7,1.2,3c-.4,2.6-.7,5.3-1,7.9s-.7,3.1-1,4.6c-1.1-7.7-2.1-15.5-3.1-23.3Z"/><path class="cls-1" d="M222.5,189.6V213l-4.4.2C219.2,207,220.4,200.8,222.5,189.6Z"/><path class="cls-3" d="M221.6,229.3c-.1-1.7-.3-3.3-.4-5l1.9-.4c.5,1.8,1.1,3.5,1.6,5.3Z"/><path class="cls-3" d="M28.7,218.8l-3.4,2.1-.3-2.2Z"/><path class="cls-1" d="M198.5,219.8h5.8v.5h-5.9Z"/><path class="cls-3" d="M218.8,228.4l.9.9Z"/><path class="cls-1" d="M145.7,338.2l-3.1-1.2c-1.6,7.7-3.2,15.4-4.9,23.1L132.9,338,187,322.7c-3.9,19.4-15.9,20.1-28.2,20.3,0-.3-.1-.6-.1-.9Zm35.6-2.1c-7.3-3.5-10-5.9-11.9-5.5s-4.6,3.6-6.9,5.5Z"/><path class="cls-1" d="M231.7,340.1l-3,17-7.1-5.9c.3-.7,1-2,2.1-4.5l2.5-.5c-.1-.7-.3-1.5-.4-2.3-4.7,1.2-11.1.9-13.6,3.9s-1.5,9.3-3.8,13.9c-.4-4.7-.7-9.3-.9-12.8-1.1,4-2.4,9-3.8,14-1.2-1.8-3-3.6-3.3-5.6s2-2.9,3.5-4.8l-12.4-1.2,10.6-4.7c.7-4.8,1.1-8.1,1.6-11.4H206c.4,2.5.7,5.1,1.9,13.1.5-8.1.6-10.7.8-13.2l1,.2,8,2.9-8.3,2.8,13.6,2,.2-1.5-3.6-.8,6.2-1.8c-.4-1.9-.8-3.3-1.1-4.7l6.5,1.8C231.4,337.4,231.5,338.8,231.7,340.1Z"/><path class="cls-1" d="M182.7,361h-3.9c-.8-3.5-1.5-6.9-2.2-10.3l-5.5,4.8c2.4-2.9,4.8-5.8,9.1-11.2C181,349.7,181.9,355.4,182.7,361Z"/><path class="cls-5" d="M231.2,336.1l-6.5-1.8-15,1.1-1-.2,25.8-4.1Z"/><path class="cls-2" d="M11.2,351.2l-6.1-1.1-2.2-2.7c1.4-.8,2.9-2.2,4.3-2.3,6.9-.2,13.8-.1,20.7,0l13.1-.3,1.9-.7h0c.3,3.7.7,7.4,1.1,11.1l-2,.7-19.2-6.1H19.2Z"/><path class="cls-1" d="M72.9,335.2c1.1-3.6,2.3-7.2,3.6-11.7h3.2l1.5,2.6,1.8-2.6h1.7c0,.5.1,1,.1,1.5s-.1,1.4-.2,2.1c-1,2.5-2.1,5-3.1,7.6s-1.1,4-1.7,6Z"/><path class="cls-4" d="M39.9,341.2c-3.6-2.5-7.3-4.9-11-7.3l-3.3-1.4,18.1-.9-.8,6.5Z"/><path class="cls-1" d="M101,323.4h3.7c.3,4.9.6,9.7.8,14.6a3,3,0,0,1-1.4,2.3c-.6.3-2.3-.3-2.4-.8a37.6,37.6,0,0,1-2.3-9.2C99.3,328.1,100.4,325.7,101,323.4Z"/><path class="cls-5" d="M84.6,327.1c.1-.7.1-1.4.2-2.1l8.1,3.2-5.6,5.4Z"/><path class="cls-2" d="M91.2,354.9c-.1.8-.1,1.5-.2,2.2l-13.9-6.5,2.8-.2,10,3.1h0l1,1.4Z"/><path class="cls-4" d="M89.9,353.5l-10-3.1Z"/><path class="cls-4" d="M90.9,355l-1-1.4Z"/><path class="cls-3" d="M136.6,294.3l-6-3.1v-5.5l-11.3-2.3-12.9,7.3c-.7-2.6-1.3-5.3-1.9-7.9l-3.4.2c.7,10.9,1.3,21.7,1.9,32.6l-6.9-1.5-5.1-.2-3.9-8.8c.7-4.2,2.1-8.4,1.8-12.4-.2-2.2-2.9-5.8-4.8-6.1-9.3-1.1-18.7-1.2-28.9-1.8l1.5,6.3-1.8,1.6-.2.5v4.9l-2.1,1.5c-.3-2.8-.5-5.6-.7-8.4h-.8l-.4-4,2.1-8.6-19.4-4.6,5.3-2.7,88.5-1.3h25.4l16.4,1c-.1,1.1-.1,2.2-.2,3.3l-.3,1.7-4.7,11.1c-.2,2.6-.4,5.2-.6,7.2-2-3.3-3.6-9.1-6.3-9.6-4.7-1-10,1.3-15,2.2l-3.8-1.4Z"/><path class="cls-2" d="M13.2,241.2v-4.8h9.7l13.3,1.9-.5,3.3H48.9c.7,2,1.5,3.9,2.3,5.8v1.7c-.2,1.8-.3,3.7-.4,5.6l-3.4-.4H44.9l2.2,2.9H48l1-.2,1.4-.4h1.1L48.1,264l-8.3-1.1,2.1-6.7,1.2.4c-1.5-3-2.9-6-4.4-9.1-.6,1.6-1.2,3.3-1.9,4.9L32,247.3,29.6,249l-2.5.9c-.2-1.2-.4-2.4-.7-3.9L23,247.2l-2.3-.9Zm29.7,19-.6-1.2c0-.1-.8.2-.8.3a2.8,2.8,0,0,0,.4,1.2C41.9,260.6,42.4,260.4,42.9,260.2Z"/><path class="cls-1" d="M90.5,265.5l-13.6-.4-6.8-5.4-3.4,2.9L65,258.5l2.7-5.4,8.1-5.8,2.3,3.8.3.3h.4l1.1-.9,21,5Z"/><path class="cls-2" d="M95.9,241.4h18.3c.5,1.7.9,2.8,1.3,4s.7,5.3,1,8v1.8c-.3.6-.7,1.2-1,1.9l.3,4.5-13.7,5-.3-.4-1.5-.9,1.7-2.4c.3-4.3.6-8.7.8-13.1h-.7l-.3,2.9c-3.7-2.7-7.4-5.6-11.3-8-.7-.4-2.5,1-3.8,1.5-.2-1.1-.3-2.1-.5-3.1a1.1,1.1,0,0,0-.3-.8.6.6,0,0,0,.1-.7Zm18.6,6.8h-.3v1h.3Z"/><path class="cls-3" d="M86.7,246.2c1.3-.5,3.1-1.9,3.8-1.5,3.9,2.4,7.6,5.3,11.3,8,.1,3.4.2,6.8.2,10.2l-1.7,2.4-9.8.2,10.4-10.1-21-5Z"/><path class="cls-5" d="M137.8,236.4l5.2,3.1c-.1.3-.1.6-.2,1l-3.7,5.6c-1.1,5.3-2.1,10.5-3.1,15.7l-9.4.3.3-13.8c.9,3.8,1.8,7.7,2.1,8.8Z"/><path class="cls-3" d="M65,258.5l1.7,4.1,3.4-2.9,6.8,5.4-20.7-1.8c0-2.4-.1-4.8-.2-7.2l4.5-8.6,2.5.5,1.7,2.7,1.4,1.4Zm-5-4.7.8-.3-.7-2.3-.9.3Z"/><path class="cls-5" d="M116.5,255.2v-1.8c.1-2,.2-4.1.4-6.2l6.1,14.7a1.4,1.4,0,0,0-.2.6,21.4,21.4,0,0,1-1-2.2V249.1l-2.7.2c.5,3.7,1.1,7.4,1.6,11.1l-2,2.8C118,260.5,117.3,257.8,116.5,255.2Z"/><path class="cls-5" d="M19.2,262.6l-1.3.6-2.9-3a30.5,30.5,0,0,1-2.5,3L9,260.3l3-5.9,1.5,4,1.2-4.8.5-.3H17l1.5,1.1.6.7Z"/><path class="cls-5" d="M41.9,256.2l-2.1,6.7c-.4-1.6-.7-3.2-1-4.8,0-3.5-.1-7.1-.1-10.6,1.5,3.1,2.9,6.1,4.4,9.1Z"/><path class="cls-3" d="M27.1,249.9l2.5-.9,1.3.4c-.3,3.6-.7,7.2-1,10.8l-3-8.9C27,250.8,27,250.3,27.1,249.9Z"/><path class="cls-3" d="M48.1,264l3.4-7.3,1-.5.4,6.9Z"/><path class="cls-1" d="M26.9,251.3l3,8.9-.2,1.1-1.8,1.8-1.1-1.9c0-1.2,0-2.4-.1-3.6Z"/><path class="cls-1" d="M38.7,247.5c0,3.5.1,7.1.1,10.6l-2-5.7C37.5,250.8,38.1,249.1,38.7,247.5Z"/><path class="cls-5" d="M52.9,263.1c-.1-2.3-.2-4.6-.4-6.9l2.2-2.1,1.3,2c.1,2.4.2,4.8.2,7.2Z"/><path class="cls-5" d="M25,261.3l-4.5,1.1a11,11,0,0,0,.2-1.8l.5-.6,1.3-2.8,2.5.3Z"/><path class="cls-2" d="M126.9,248.3l-.3,13.8h-1.4c0-.6.1-1.1.1-1.7l-.3-10.3v-1.8h0l2-.2Z"/><path class="cls-3" d="M12,254.4l-3,5.9a.9.9,0,0,1-.7.3,12.9,12.9,0,0,1-.4-1.9L7,255.1l1.2-1.9h2.6l1.3.2Z"/><path class="cls-1" d="M15,260.2l2.9,3Z"/><path class="cls-5" d="M125.3,260.5c0,.6-.1,1.1-.1,1.7h-1.5l1.2-13.8a10.9,10.9,0,0,1,.1,1.8Z"/><path class="cls-2" d="M20.7,260.6l-.2,1.8-1.3.2c0-2.6-.1-5.1-.1-7.6h.5Z"/><path class="cls-2" d="M118.7,263.2l2-2.8h1.1a21.4,21.4,0,0,0,1,2.2l-3.7,2.1-.5-.5C118.6,263.8,118.7,263.5,118.7,263.2Z"/><path class="cls-2" d="M25,261.3v-3.8h1.7c.1,1.2.1,2.4.1,3.6Z"/><path class="cls-5" d="M30.9,249.4l-1.3-.4,2.4-1.7A21.2,21.2,0,0,0,30.9,249.4Z"/><path class="cls-3" d="M27.9,263.1l1.8-1.8Z"/><path class="cls-2" d="M102.1,266.6l-.6.2.3-.6Z"/><path class="cls-2" d="M119.1,264.6l-.5-.5Z"/><path class="cls-5" d="M54.9,292.7l1.8-1.6,14.3-.4v8.5L68.8,302c-.9,1.6-1.9,3.1-2.9,4.6h2.9c.2,2.1.4,4.2.5,6.4-1.3-1.5-2.8-2.8-4.1-4.3l-5.4-6.4-3.9-.8C55.6,298.5,55.2,295.6,54.9,292.7Z"/><path class="cls-3" d="M68.8,302l2.1-2.8,8.2,7,1.8,4.4-.3-5.2,3.9-.4,1.2,8.9-1.6-1H69.3c-.1-2.2-.3-4.3-.5-6.4Z"/><path class="cls-3" d="M33,298c.5-.6,1.4-1.2,1.5-1.9.7-6.5-1.3-17.9,9.9-4.5-.3,2.4-.8,5.4-1.2,8.5l-2.1,13.6c-.2-4.1-.5-8.1-.8-12.1-.2-.6-.5-1.1-.7-1.7l-6.8.5Z"/><path class="cls-5" d="M27.1,300.9v-1.5c.1-.7.1-1.4.2-2,1.1-2.5,2.3-4.9,3.4-7.3v-1.8c-.2-2.7-.4-5.3-.7-8,.9,5.4,1.9,10.7,2.8,16.1-1,3.5-1.1,7.7-3.2,10.2s-7.1,4.8-10.7,7.1c.4-4.2.8-8.3.9-9.7l6.2,9.6.4-.3c.2-3.3.4-6.6.7-9.9Z"/><path class="cls-3" d="M12.9,325.9v-3.6H42.8l-18,4.6H19Zm11.3-1.6v.8l6.6-.8Z"/><path class="cls-5" d="M32.8,300.4l6.8-.5c-1.5,4.6-2.9,9.2-5.7,18.4C33.3,309.4,33,304.9,32.8,300.4Z"/><path class="cls-2" d="M14,298.2l.3,15.9-4.4-1.8c-.1-1.4-.1-2.8-.2-4.2C11.1,304.8,12.5,301.5,14,298.2Z"/><path class="cls-2" d="M55.9,301.4l3.9.8c.2,3.9.3,7.7.5,11.5l-1.8.2-1.9-13.4v13.4H55V301.3h0Z"/><path class="cls-5" d="M9.7,308.1c.1,1.4.1,2.8.2,4.2l-5.9.8c.4-3.9.7-7.9,1.1-11.8l1.8,1.9a5.6,5.6,0,0,1,.5.8c.3-1.3.5-2.5.8-3.8h.5C9,302.8,9.4,305.5,9.7,308.1Z"/><path class="cls-5" d="M85.7,313.9,84.5,305c.3-1.2.7-2.4,1.8-6.3l.8,6.4,3.9,8.8Z"/><path class="cls-3" d="M47.1,300.4c.6-4.3,1.3-8.7,2-13-.1,3.9-.1,7.8-.2,11.7Z"/><path class="cls-2" d="M51,313.8c-.4-4.6-.7-9.1-1.1-13.6l.9.4c-.1.2,0,.3.1.5C50.9,305.3,51,309.5,51,313.8Z"/><path class="cls-3" d="M51,313.8c0-4.3-.1-8.5-.1-12.7h.9c.1,3,.1,6.1.1,9.1Z"/><path class="cls-5" d="M50.8,300.6l-.9-.4-1-1.1c.1-3.9.1-7.8.2-11.7h1.7c.2,1.4.3,2.7.4,4C51.1,294.4,50.9,297.5,50.8,300.6Z"/><path class="cls-5" d="M51.9,310.2c0-3,0-6.1-.1-9.1l.9-1.5,2.1-1.5c.1,1.1.1,2.1.2,3.1h0C53.9,304.2,52.9,307.2,51.9,310.2Z"/><path class="cls-5" d="M40.3,301.6c.3,4,.6,8,.8,12.1C40.9,309.6,40.6,305.6,40.3,301.6Z"/><path class="cls-3" d="M5.1,301.3c-.4,3.9-.7,7.9-1.1,11.8a10.9,10.9,0,0,0-.1-1.8L3.6,305l.3-3.8Z"/><path class="cls-4" d="M19,327.1h5.8l13.5,1.8V330H13.1c-.3-1-.6-1.9-.8-2.9Z"/><path class="cls-3" d="M119,324.1l.9,9Z"/><path class="cls-3" d="M83,323.5l-1.8,2.6-1.5-2.6Z"/><path class="cls-3" d="M65.7,321.2l4.5,4-1.8,1.5Z"/><path class="cls-3" d="M116.1,346.1c.1.3.4.6.4.8s-.5.3-.7.5-.5-.5-.4-.7S115.8,346.3,116.1,346.1Z"/><path class="cls-4" d="M118.8,341.2c-.1.9-.2,1.7,0-.1-.6,1.7-.3.9,0,.1Z"/><path class="cls-3" d="M45,324.1l-.4.6-.2-.2.3-.6Z"/><path class="cls-3" d="M45.3,283.2l-3.8-1.6c.3-.5.6-1.6.7-1.6l3.9,1.1Z"/><path class="cls-3" d="M30,280.3c.3,2.7.5,5.3.7,8C30.5,285.6,30.3,283,30,280.3Z"/><path class="cls-5" d="M28.9,343H6.4v-3.4H28.9v3.4Z"/><path class="cls-5" d="M19,327.1H12.3l.6-1.2Z"/><path class="cls-4" d="M9.7,308.1c-.3-2.6-.7-5.3-1-8a19.1,19.1,0,0,1,.5-4.8,42.3,42.3,0,0,1,2.7-5.7l2.1,8.6C12.5,301.5,11.1,304.8,9.7,308.1Z"/><path class="cls-1" d="M26,313.6l1,.9c-1.9-3.5-1.2-2.4-.6-1.2Z"/><path class="cls-4" d="M8.2,300.2c-.3,1.3-.5,2.5-.8,3.8a5.6,5.6,0,0,0-.5-.8c.1-1.3.1-2.6.2-3.9Z"/><path class="cls-1" d="M27.3,297.4c-.1.6-.1,1.3-.2,2a24.3,24.3,0,0,1-1.4-2Z"/><path class="cls-1" d="M27.1,300.9v0Z"/><path class="cls-2" d="M89.8,362.2v1.6l-4.6-.3v-1.3Z"/><path class="cls-5" d="M74.7,359.6h2.4v.8H74.7Z"/><path class="cls-5" d="M74.9,356.5h2.9v.9l-2.9.4Z"/><path class="cls-2" d="M88,359.9H85.5v-.7h2.4Z"/><path class="cls-1" d="M76.3,354.1H73.4v-.9h2.9Z"/><path class="cls-3" d="M48.9,241.6H35.7l.5-3.3-13.3-1.9c-.3-1.8-.5-3.7-.8-5.5L7.3,234.4c-.2-2.3-.3-4.6-.4-6.9l16.3-4.3,7.7-2.7c1.1,2.3,2.1,4.7,3.2,7.1v2L55,236.3l-3.1,4.1h0l-2.9.8Z"/><path class="cls-3" d="M73.4,219.6c.9,2.5,2.5,5,2.4,7.3s-2.5,3.9-3.9,5.8l-4.7-6.1H50.8l-5,.6.2-3.9h3.8l21-2.7Z"/><path class="cls-1" d="M23.2,223.2,6.9,227.5v-11Z"/><path class="cls-1" d="M46,223.3c0,1.3-.1,2.6-.2,3.9l-11.7.4c-1.1-2.4-2.1-4.8-3.2-7.1Z"/><path class="cls-1" d="M70.8,220.7l-21,2.7Z"/><path class="cls-2" d="M11.4,241.9h1.1l4.5,5.1-2,.4H13.1l-1.2-.5-1.1.2v2.2l-1,1.9-1.9-.8Z"/><path class="cls-4" d="M11.4,241.9l-3.6,8.6,1.9.8c.3-.7.7-1.3,1-1.9,0,1.2.1,2.5.1,3.7H8.2L6.1,241.3Z"/><path class="cls-4" d="M17,247.1,12.5,242l.7-.8,7.5,5.1h-.4l-1.7-6.5L18,247v.5Z"/><path class="cls-5" d="M7,255.1l.9,3.6-3.1-1.8Z"/><path class="cls-4" d="M11.2,351.2l8-1.3,5.8,1.4.2-.9-2.4-.6L42,355.9l-20.2-.8L12,353.3l6.1-1.3H11A2.4,2.4,0,0,1,11.2,351.2Z"/><path class="cls-2" d="M92,362.7c0-.5-.1-1-.1-1.5l3.6.3v1Z"/><path class="cls-3" d="M102.7,363h0Z"/><path class="cls-3" d="M42.9,344.1c.4-.5.9-1.1.1-.1,1.2-.5.5-.2-.1.1Z"/><path class="cls-3" d="M11,352h7.1L12,353.3Z"/><path class="cls-5" d="M190.6,191.3h-2.8l-8.1-.7h0l-22.9-1-1.9.3,18.9-4.8a10,10,0,0,1,3.8.3l7.2-.2,7.7,5.4Z"/><path class="cls-4" d="M148.7,209.5l-24-4.1,10.7-4.9,9.4,1.5Z"/><path class="cls-3" d="M184.8,185.2l-7.2.2a70.4,70.4,0,0,1,.3-8c.2-1.5,1.3-2.9,2.1-4.4l3.4,3.7,2.6-6.5c1,5.5,1.4,8.1,1.9,10.7l-1.5.2-.4-5.7h-1.2Z"/><path class="cls-3" d="M144.8,202l-9.4-1.5L133,190l9.5,1.1Z"/><path class="cls-5" d="M239.6,172.7l8.6,2.4H229.4l1.8,2.8-5,1.2-.3-1.4c0-.8-.1-1.5-.1-2.3Z"/><path class="cls-3" d="M212.9,171H197.2c0-.7-.1-1.5-.1-2.2l15.8-1.8Z"/><path class="cls-3" d="M149.1,195l-.6.7-.6-.8c.2-.2.4-.5.7-.5S148.9,194.7,149.1,195Z"/><path class="cls-4" d="M190.6,191.3l1.9-.7a11.6,11.6,0,0,1,.4,1.8Z"/><path class="cls-3" d="M225.8,175.4c0,.8.1,1.5.1,2.3C225.9,176.9,225.8,176.2,225.8,175.4Z"/><path class="cls-3" d="M228.8,153.9V124.6h1.6v29.2Z"/><path class="cls-5" d="M222.2,123.8l-.6,15.6v9.8h-1.5c0-4.8,0-9.7-.1-14.5v-1.4c.6-3.4,1.1-6.9,1.6-10.3l.4.3C222.1,123.5,222.1,123.7,222.2,123.8Z"/><path class="cls-4" d="M248.6,123.7v3.1l-1.7.2-.4-.4a13.6,13.6,0,0,0,.2-2Z"/><path class="cls-3" d="M220,133.4v0Z"/><path class="cls-5" d="M250.5,137.8v20.3h-1.2V138Z"/><path class="cls-4" d="M250.5,137.8l-1.2.2c-.2-3.5-.3-7-.5-10.6l1.7.2Z"/><path class="cls-4" d="M246.9,127l-.4-.4Z"/><path class="cls-3" d="M200.8,158.4v-26h2.4v26.1Z"/><path class="cls-4" d="M211.6,83.8V80.9l1.9-.7c-.4,1.8-.8,3.6-1.4,5.8Z"/><path class="cls-3" d="M235.6,75.6l.3,1.3-.9-1.3Z"/><path class="cls-3" d="M236.1,72.8a1.9,1.9,0,0,1-.1.8A.8.8,0,0,1,236.1,72.8Z"/><path class="cls-3" d="M119.6,90.1v12.4H119V90.3Z"/><path class="cls-5" d="M191.2,85.6c1.1,6.1,2.1,12.1,3.2,18.2l-2.9.6c-1.6-5.9-3.3-11.8-4.9-17.7Z"/><path class="cls-4" d="M202.7,104.2l-2.1-10.5V84.8h2.4C202.8,91.3,202.7,97.8,202.7,104.2Z"/><path class="cls-3" d="M196.8,94.6c.3,2.4.6,4.7,1,7.1h-.2c-.3-2.3-.6-4.7-1-7Z"/><path class="cls-3" d="M200.5,84.8v0Z"/><path class="cls-3" d="M196.6,86.1c.3,1.4.7,2.7,1,4.1l-1.3.4-1.3-4Z"/><path class="cls-4" d="M210.4,84.9,206.9,87c-.1-1-.1-2-.1-3h3.9Z"/><path class="cls-3" d="M196.6,94.8l-.9-.9.2-.2.9,1Z"/><path class="cls-4" d="M60,91.6c-.1-3.3-.1-6.6-.2-9.8L67,78.3l-3,28.5C62.6,101.7,61.3,96.7,60,91.6Z"/><path class="cls-1" d="M76.6,80.9a25.3,25.3,0,0,1,.1,2.8A25.3,25.3,0,0,0,76.6,80.9Z"/><path class="cls-4" d="M71.9,110.8l-2.6-1.1Z"/><path class="cls-3" d="M244.9,77.3v-.8"/><path class="cls-3" d="M158.7,89.6c.4,1.2.8,2.4,1.1,3.7s-.8,4.4-1.3,6.6-1.1,2.6-1.6,3.8Z"/><path class="cls-4" d="M218.6,87.9c0,1.9,0,3.8-.1,5.7C218.6,91.7,218.6,89.8,218.6,87.9Z"/><path class="cls-4" d="M224.9,84.1c-.3-.8-.5-1.6-.8-2.5C224.4,82.5,224.6,83.3,224.9,84.1Z"/><path class="cls-4" d="M224.9,91.7v-1a1.9,1.9,0,0,1,.2.7Z"/><path class="cls-4" d="M224.9,88.8l.3-1.2Z"/><path class="cls-1" d="M158.5,99.9c.5-2.2.9-4.4,1.3-6.6v.4l.7,1.1v13.4C159.2,102.8,158.9,101.3,158.5,99.9Z"/><path class="cls-3" d="M160.6,94.8l-.7-1.1Z"/><path class="cls-4" d="M207,88.5c.1,1.2.3,2.3.4,3.4C207.3,90.8,207.1,89.7,207,88.5Z"/><path class="cls-5" d="M222.7,105.6l-.3-4.7Z"/><polygon class="cls-5" points="222.1 97.3 221.9 97.1 222 96.8 222.3 97.1 222.1 97.3"/><path class="cls-5" d="M58.1,83.8l.3.7-.2.3Z"/><path class="cls-2" d="M188,143.4c.3-3.4.5-6.7.8-10C188.5,136.7,188.3,140,188,143.4Z"/><path class="cls-4" d="M214.7,265.3l6.2.3c.5-6.1.9-11.8,1.4-17.2l4,2.7c2.5,11.5-.6,18.1-13.9,16.3a24.5,24.5,0,0,0-5.4.1c-15.6,1.7-30,2-26.5-20.7h2.4l4.5.8.3,5.6c-6.2,15.2,3.5,10.7,10.9,8.9l6.1,2.7Z"/><path class="cls-4" d="M226.6,250.4c0-2.4-.1-4.8-.1-7.1l13.2,5,.9-1,1.9-.8,4.8,1.6c0,.2-.2,1.3-.4,2.3s-.1,1.2-.1,1.8c-.2,3.3-.3,6.6-.5,9.8l-3.6.4c-.2-2.2-.3-4.3-.6-9.4-.3,5.7.2,8.8-.8,11.1s-3.5,2.3-5.5,2.8c-.4.1-1.4-2.6-2.2-4Z"/><path class="cls-4" d="M165.1,261.3c1,.4,1.9.9.3.1l8.3-14.2c.4,2.7.7,5.4,1.1,8.1v.2c.8,3.6.4,1.7-.1-.2v-5.4l2.6-.3c.4,5,1.1,10.1.9,15.1,0,.6-4.8,1.3-7.4,1.4-8.1.6-16.2,1.2-24.4,1.2-1.4,0-2.9-2.9-4.3-4.4h5.8l6.7.4,5.2-1.1Z"/><path class="cls-4" d="M252.4,275.2l-7.8-3.9H169.1l-16.4-1"/><path class="cls-1" d="M246.8,252.2c0-.6.1-1.2.1-1.8.9-2.5,1.8-5,2.8-7.5s.7-3,1-4.6"/><path class="cls-3" d="M147.9,262.9h-5.8c-1-5.6-2-11.2-3.1-16.8,1.3-1.9,2.6-3.7,3.8-5.6Z"/><path class="cls-3" d="M249.4,264l-1.6.2-1.5-2.2c.2-3.2.3-6.5.5-9.8"/><path class="cls-5" d="M246.3,262l1.5,2.2a5.2,5.2,0,0,1-1,1.1l-3.5-1.2-.6-1.7Z"/><path class="cls-4" d="M243.3,264.1l3.5,1.2-2.8,1.4Z"/><path class="cls-4" d="M156.8,189.6l22.9,1c-5.4,1.5-10.7,3.6-16.2,4.2C161.5,195,159,191.4,156.8,189.6Z"/><path class="cls-4" d="M179.7,190.6l8.1.7Z"/><path class="cls-3" d="M246.8,303.3,223,302.1l-2-.5-2.5.3c-.2,0-.4.1-.6,0l-7.8-13.6-8.7,10.1c-.2-3.6-.6-9.5-1.4-19.2l-1.8,7.7-9.8-1.5h-5.8l-4.8-1.2c6.1-4.1,22.2,5.6,17.9-12.9h48.9l1.2,8.1-22.6,1.3c.7,1.7,1.2,2.9,1.8,4.2a21.7,21.7,0,0,0-.4,2.5c-.8,1.3-1.5,2.7-3.2,5.8l29.3-3,2.2-1.5-2.2-1.4c-.1-1.1-.3-2.2-.4-3.3s.3-1.2.5-1.8c.5-2.3,1.1-4.6,1.6-7m-1.3,36.9-1.6-1.3m-23.9-32.3,1-.2-.6-2.7-1,.2Z"/><path class="cls-5" d="M188.4,285.4l9.8,1.5,1.8-7.7c.8,9.7,1.2,15.6,1.4,19.2l8.7-10.1c-1.3,7.7-2.5,15.5-3.8,23.3v-8.2h-1.6v7.9l-.2.5L200,299.9c-.7,6-1.1,8.8-1.5,11.6l-.7-.5c-.2-2.2-.3-4.5-.4-6.7h-1.6v6.5l-1,.2v-8.3H192l.6,8.2h-2.1Z"/><path class="cls-4" d="M103,315.6c-.6-10.9-1.2-21.7-1.9-32.6l3.4-.2c.6,2.6,1.2,5.3,1.9,7.9,5.4,7.4-6.2,23.6,12.6,24l18.5,2.1-30.7.3C105.6,317.1,104.3,316.1,103,315.6Z"/><path class="cls-5" d="M195.7,271.3c4.3,18.5-11.8,8.8-17.9,12.9l-5.8.2c-.4-2.3-.9-4.7-1.4-7h22.5a27.1,27.1,0,0,0-.1-2.9H168.9c.1-1.1.1-2.2.2-3.3Z"/><path class="cls-4" d="M119.3,283.4l11.3,2.3v5.5c-.2,3.5-.4,7.1-.7,10.7s-1.3,6.5-1.7,8.5l-9.3-10.3C119,294.5,119.2,288.9,119.3,283.4Z"/><path class="cls-3" d="M118.9,300.1l9.3,10.3c.4-2,1.1-5.3,1.7-8.5,2.6,4.7,5.1,9.4,7.6,14.2a.5.5,0,0,0,0,.7h0L119,314.7C119,309.8,118.9,304.9,118.9,300.1Z"/><path class="cls-5" d="M223,302.1l23.8,1.2a1.6,1.6,0,0,1-.3.9l-8.9,5.4-14.5-1.5C223.1,306.1,223,304.1,223,302.1Z"/><path class="cls-3" d="M246.7,316.9h-6.1l-3-7.2,8.9-5.4"/><path class="cls-1" d="M170.6,277.4c.5,2.3,1,4.7,1.4,7,.3,4.5.6,9,.8,12.2l-8.9-9.3,4.7-11.1Z"/><path class="cls-1" d="M136.6,294.3l1.6-8.6,3.8,1.4,2.1,9.9.6,1.4.6,3.3a23.3,23.3,0,0,0,.7,2.5c.1,2.9.3,5.8.6,11.1Z"/><path class="cls-5" d="M146,304.2a23.3,23.3,0,0,1-.7-2.5l1.6-1-2.2-2.3-.6-1.4,9.5-.6,1.2,7.7Zm3.1-5.5h-1.3c.2,1,.5,2,.7,2.9l1-.2Zm1.8-3c.8,4.6.7,3.8,0,0Z"/><path class="cls-4" d="M167.7,318.1l-2.1-3.3,1.8-.7,5.3-1.8.2-.2,8.5,1.7-4.8,5.7c-.5-1.2-.9-2.3-1.4-3.4l-7.5,2.1Z"/><path class="cls-5" d="M218.5,301.9l2.5-.3v10.8l14.2,5.9-.3,1.6-16-5.7C218.7,310.1,218.6,306,218.5,301.9Z"/><path class="cls-4" d="M198.5,311.5c.4-2.8.8-5.6,1.5-11.6l4.5,11.9-6.2,1A5.1,5.1,0,0,0,198.5,311.5Z"/><path class="cls-4" d="M154.8,304.1l-1.2-7.7,5.2,4.8Zm1.4-3.5h.3v-1h-.3Z"/><path class="cls-3" d="M198.5,311.5a5.1,5.1,0,0,1-.2,1.3l-16.5.3-.9-1.7,9.6-.3h4.3l1-.2h2Z"/><path class="cls-5" d="M172.7,312.3l-5.3,1.8-1.8-6.8Z"/><path class="cls-4" d="M218.5,301.9c.1,4.1.2,8.2.4,12.3-.4-4.1-.7-8.2-1-12.3C218.1,302,218.3,301.9,218.5,301.9Z"/><path class="cls-4" d="M221,312.4V301.6l2,.5c0,2,.1,4,.1,6Z"/><path class="cls-4" d="M137.5,316.8a.5.5,0,0,1,0-.7h10.4v1.7Z"/><path class="cls-4" d="M182.6,285.4H184l.6,13.5h-1.2C183.2,294.5,182.9,290,182.6,285.4Z"/><path class="cls-5" d="M180.9,311.4l.9,1.7a2.5,2.5,0,0,1-.4.7l-8.5-1.7Z"/><path class="cls-4" d="M204.7,311.3v-7.9h1.6v8.2Z"/><path class="cls-5" d="M240.6,316.8h0Z"/><path class="cls-4" d="M167.7,318.2h0Z"/><path class="cls-2" d="M66.1,252.1l-1.4-1.4c-.1-1.5-.1-3.1-.2-4.6L63,248l-2.5-.5-8.4-.3-.2-4.2,7.7-1.3L56,241l-.2-1.4,15.1-.4h4l.8.2h2.1l4.9,2a3.1,3.1,0,0,1,.2.8l-.9.4-6.2,4.7-8.1,5.8Z"/><path class="cls-5" d="M34.1,227.6l11.7-.4,5-.6,11.4,7.1L55,236.3l-20.9-6.7Z"/><path class="cls-3" d="M74,239.2H70.9l25,2.2-9.9.2-1.9-.2H82.7l-4.9-2H75.7l-.8-.2Z"/><path class="cls-3" d="M116.3,225.7H100.5l-.6-2.3c3.7-1.3,7.3-3.1,11.1-3.7C112.1,219.5,113.7,222.7,116.3,225.7Z"/><path class="cls-4" d="M116.9,247.2c-.2,2.1-.3,4.2-.4,6.2-.3-2.7-.7-5.3-1-8Z"/><path class="cls-3" d="M55.8,239.6c.1.4.1.9.2,1.4l-4,.6v-1.2h0Z"/><path class="cls-5" d="M126.9,248.2l-2,.2Z"/><path class="cls-1" d="M147.9,262.9l-5.1-22.4c.1-.4.1-.7.2-1,1.3-3.1,2.5-6.1,3.8-9.1l-1.9-2.3H122.3l11.6-8.8,13.8,1.2,6.6,10.1,5.4-11v11.7c.1,1.4.3,2.7.4,4.1s-.2,4-.2,6,.2,2.6.2,3.9l-1.4,8.2-1.7-5.6-2.9-.5v15.5c-1.1-.7-.3-.2.5.4Z"/><path class="cls-2" d="M158.7,253.5c.5-2.7,1-5.5,1.4-8.2l3.6.2c.5,5.2,1,10.5,1.4,15.8l-5.3.9C159.4,259.3,159.1,256.4,158.7,253.5Z"/><path class="cls-5" d="M160.1,235.4c-.1-1.4-.3-2.7-.4-4.1h20.5l.4,2.4Z"/><path class="cls-4" d="M163.7,245.5l-3.6-.2c0-1.3-.1-2.6-.2-3.9l3.5-3.1C163.5,241.6,163.6,243.5,163.7,245.5Z"/><path class="cls-3" d="M204.7,264.9l-6.1-2.7c-.4-1-.9-1.9-1.3-2.8l2-1.5Z"/><path class="cls-3" d="M209,244.1l2.8-2c.3.5.7,1,1,1.6l-2.9,1.7Z"/><path class="cls-3" d="M191.4,258c-.5-.7-1.1-1.1-1-1.3a4.2,4.2,0,0,1,.9-1.4c.3.3.9.6.9.9S191.8,257.2,191.4,258Z"/><path class="cls-3" d="M205.7,245.3Z"/><path class="cls-4" d="M228.9,228l-2.3-5.7c4.5,1.7,9,3.4,13.4,5.4.3.1-.6,2.7-.5,2.6Z"/><path class="cls-5" d="M242.5,246.5l-1.9.8c.2-1.4.5-2.8,1.4-8.2C242.3,244.3,242.4,245.4,242.5,246.5Z"/><path class="cls-5" d="M144.9,228.1l1.9,2.3-7.1-.5Z"/><path class="cls-4" d="M221.9,241.4l.6.6-.9.8c-.1-.3-.4-.6-.3-.8S221.7,241.6,221.9,241.4Z"/><path class="cls-3" d="M181.3,336.1H162.5c2.3-1.9,4.3-4.8,6.9-5.5S174,332.6,181.3,336.1Z"/><path class="cls-3" d="M209.7,335.4l15-1.1c.3,1.4.7,2.8,1.1,4.7l-6.2,1.8,3.6.8-.2,1.5-13.6-2,8.3-2.8Z"/><path class="cls-3" d="M22.8,349.8l2.4.6-.2.9-5.8-1.4Z"/><path class="cls-1" d="M118.9,300.1c0,4.8.1,9.7.1,14.6-18.8-.4-7.2-16.6-12.6-24l12.9-7.3C119.2,288.9,119,294.5,118.9,300.1Z"/><path class="cls-1" d="M87.1,305.1l-.8-6.4c-1.1,3.9-1.5,5.1-1.8,6.3l-3.9.4-1.5.8-8.2-7c0-2.8.1-5.7.1-8.5l-14.3.4-1.5-6.3c10.2.6,19.6.7,28.9,1.8,1.9.3,4.6,3.9,4.8,6.1C89.2,296.7,87.8,300.9,87.1,305.1Zm-12.7-8.2.7.4c.1-.3.3-.5.3-.7s-.4-.3-.6-.4A1.6,1.6,0,0,0,74.4,296.9Z"/><path class="cls-2" d="M170.6,277.4l-2-1.2.3-1.7H193a27.1,27.1,0,0,1,.1,2.9Z"/><path class="cls-1" d="M52.7,299.6l-.9,1.5h-.9c-.1-.2-.2-.3-.1-.5.1-3.1.3-6.2.4-9.3H52C52.2,294,52.4,296.8,52.7,299.6Z"/><path class="cls-4" d="M55,301.2c-.1-1-.1-2-.2-3.1s-.1-2.5-.1-3.8v-1.1l.2-.5c.3,2.9.7,5.8,1,8.7Z"/><path class="cls-5" d="M52,291.2h0c2.2-.3,1.1-.1,0,0Z"/><path class="cls-5" d="M54.7,293.2v0Z"/><path class="cls-4" d="M26.7,257.6H25l-2.5-.3-.6-.9.8-6.1.3-2.3v-.7l3.4-1.2c.3,1.5.5,2.7.7,3.9s-.1.9-.2,1.4C26.9,253.4,26.8,255.5,26.7,257.6Z"/><path class="cls-4" d="M52.1,247.2l8.4.3L56,256.1l-1.3-2-.3-1.7-.5-3H51.6l-.4-.2v-1.7A1.5,1.5,0,0,1,52.1,247.2Z"/><path class="cls-5" d="M23,247.2v.7l-.3,2.3c-.3,2-.5,4-.8,6.1s-.5,2.5-.7,3.7l-.5.6c-.3-1.9-.7-3.8-1.1-5.7s-.7-2.3-1.1-3.5l-.7-1.8v-1.2a2.8,2.8,0,0,0,.1-.9V247l2.3-.7h.4Z"/><path class="cls-1" d="M54.4,252.4l.3,1.7-2.2,2.1-1,.5H50.4L49,257l-1,.2,3.1-2.1.5-5.8h2.3C54,250.4,54.2,251.4,54.4,252.4Z"/><path class="cls-5" d="M52.1,247.2a1.5,1.5,0,0,0-.9.2c-.8-1.9-1.6-3.8-2.3-5.8v-.4h2.9v.4a6.1,6.1,0,0,0-.1,1.4Z"/><path class="cls-5" d="M47.1,257.2l-2.2-2.9h2.5Z"/><path class="cls-4" d="M47.1,257.2l.3-2.9,3.4.4.3.4L48,257.2h-.9Z"/><path class="cls-5" d="M51.1,255.1l-.3-.4c.1-1.9.2-3.8.4-5.6l.4.2C51.4,251.2,51.2,253.1,51.1,255.1Z"/><path class="cls-4" d="M42.9,260.2c-.5.2-1,.4-1,.3a2.8,2.8,0,0,1-.4-1.2c0-.1.8-.4.8-.3Z"/><path class="cls-5" d="M49,257l1.4-.4Z"/><path class="cls-4" d="M41.9,256.2l1.2.4Z"/><path class="cls-5" d="M75.8,247.3l6.2-4.7c.2.8.5,1.6.7,2.4l3.5-1.9c.2,1,.3,2,.5,3.1l-6.8,4.2-1.1.9-.7-.2Z"/><path class="cls-5" d="M66.1,252.1l1.6,1L65,258.5C65.4,256.4,65.7,254.3,66.1,252.1Z"/><path class="cls-3" d="M78.1,251.1l.7.2h-.4Z"/><path class="cls-4" d="M102,262.9c0-3.4-.1-6.8-.2-10.2l.3-2.9h.7C102.6,254.2,102.3,258.6,102,262.9Z"/><path class="cls-3" d="M86.2,243.1,82.7,245c-.2-.8-.5-1.6-.7-2.4l.9-.4h3A1.1,1.1,0,0,1,86.2,243.1Z"/><path class="cls-5" d="M85.9,242.3H83.6a2.2,2.2,0,0,0,.5-.8l1.9.2A.6.6,0,0,1,85.9,242.3Z"/><path class="cls-4" d="M114.5,248.2v1h-.3v-1Z"/><path class="cls-4" d="M63,248l1.5-1.9c.1,1.5.1,3.1.2,4.6C64.1,249.8,63.5,248.9,63,248Z"/><path class="cls-5" d="M60,253.8l-.8-2.3.9-.3.7,2.3Z"/><path class="cls-4" d="M121.8,260.3h-1.1c-.5-3.7-1.1-7.4-1.6-11.1l2.7-.2Z"/><path class="cls-4" d="M13.1,247.5H15c.1.3.1.6.2.9v4.9l-.5.3-1.2,4.8-1.5-4c0-.4.1-.7.1-1.1C12.5,251.3,12.8,249.4,13.1,247.5Z"/><path class="cls-1" d="M15.2,253.3v-4.9h2.6v1.2c-.2,1.2-.5,2.4-.8,3.6Z"/><path class="cls-3" d="M17,253.2c.3-1.2.6-2.4.8-3.6a13.4,13.4,0,0,1,.7,1.8v2.9Z"/><path class="cls-4" d="M18.5,254.3v-2.9c.4,1.2.8,2.3,1.1,3.5h-.5Z"/><path class="cls-2" d="M13.5,258.4l1.2-4.8Z"/><path class="cls-1" d="M21.2,260c.2-1.2.5-2.5.7-3.7l.6.9Z"/><path class="cls-4" d="M125.3,260.5l-.3-10.3Z"/><path class="cls-5" d="M13.1,247.5c-.3,1.9-.6,3.8-1,5.8l-1.3-.2c0-1.2-.1-2.5-.1-3.7s.1-1.4.1-2.2l1.1-.2Z"/><path class="cls-4" d="M68.8,302v4.5H65.9C66.9,305.1,67.9,303.6,68.8,302Z"/><path class="cls-4" d="M79.1,306.2l1.5-.8c.1.9.1,1.9.3,5.2Z"/><path class="cls-5" d="M24.2,324.3h6.6l-6.6.8Z"/><path class="cls-1" d="M51.9,241.2H49l2.9-.8Z"/><path class="cls-3" d="M17.8,248.4H15.2c-.1-.3-.1-.6-.2-.9l2-.4.9.4A2.8,2.8,0,0,1,17.8,248.4Z"/><path class="cls-4" d="M11.9,247l-1.1.2Z"/><path class="cls-2" d="M20.3,246.3,18,247c.1-1.3.2-2.6.6-7.2Z"/><path class="cls-5" d="M158.7,253.5c.4,2.9.7,5.8,1.1,8.7l-5.2,1.1c-.8-.6-1.6-1.1-.5-.4V247.4l2.9.5Z"/><path class="cls-2" d="M174.7,255.3c.5,1.9.9,3.8.1.2v-.2Z"/><path class="cls-1" d="M245.8,279.4l-1.2-8.1,7.8,3.9c-.5,2.4-1.1,4.7-1.6,7Z"/><path class="cls-1" d="M242.6,271.3h0Z"/><path class="cls-2" d="M250.7,290.2l-29.3,3c1.7-3.1,2.4-4.5,3.2-5.8l25.9,2.1A1.9,1.9,0,0,0,250.7,290.2Z"/><path class="cls-1" d="M249.5,310.8l1.6,1.3"/><path class="cls-1" d="M246.5,304.2a1.6,1.6,0,0,0,.3-.9"/><path class="cls-5" d="M250.5,289.5l-25.9-2.1a21.7,21.7,0,0,1,.4-2.5l21.6-.9,1.8-.2,1.9.2c.1,1.1.3,2.2.4,3.3S250.6,288.8,250.5,289.5Z"/><path class="cls-4" d="M246.6,284l-21.6.9c-.6-1.3-1.1-2.5-1.8-4.2l22.6-1.3,5,2.8c-.2.6-.3,1.2-.5,1.8l-1.9-.2-22-3.4-.3,2.3Z"/><path class="cls-1" d="M225.6,278.5l-.6-2.7,1-.2.6,2.7Z"/><path class="cls-1" d="M250.5,289.5c.1-.7.1-1.5.2-2.2l2.2,1.4-2.2,1.5A1.9,1.9,0,0,1,250.5,289.5Z"/><path class="cls-4" d="M194.8,311.1h-2.2l-.6-8.2h2.8Z"/><path class="cls-4" d="M197.8,311h-2v-6.5h1.6C197.5,306.5,197.6,308.8,197.8,311Z"/><path class="cls-2" d="M144.7,298.4l2.2,2.3-1.6,1Z"/><path class="cls-2" d="M149.1,298.7l.4,2.8-1,.2c-.2-.9-.5-1.9-.7-2.9Z"/><path class="cls-2" d="M150.9,295.7h0C151.6,299.5,151.7,300.3,150.9,295.7Z"/><path class="cls-2" d="M156.2,300.6v-1h.3v1Z"/><path class="cls-4" d="M51.9,243a6.1,6.1,0,0,1,.1-1.4l4-.6,3.6.7Z"/><path class="cls-5" d="M75.7,239.5h0Z"/><path class="cls-1" d="M84.1,241.4a2.2,2.2,0,0,1-.5.8h-.7a3.1,3.1,0,0,0-.2-.8Z"/><path class="cls-5" d="M74,239.2h0Z"/><path class="cls-3" d="M74.4,296.9a1.6,1.6,0,0,1,.4-.7c.2.1.5.2.6.4s-.2.4-.3.7Z"/><path class="cls-3" d="M22.7,250.2l.3-2.3Z"/><path class="cls-5" d="M54.4,252.4c-.2-1-.4-2-.5-3C54,250.4,54.2,251.4,54.4,252.4Z"/><path class="cls-2" d="M246.6,284l-20.5-1.3.3-2.3,22,3.4Z"/><text class="cls-6" transform="translate(47.1 175.4)">Cover<tspan x="0" y="20.1">Not</tspan><tspan x="0" y="40.3">Found</tspan></text></g></g></svg>