<svg xmlns="http://www.w3.org/2000/svg" viewBox="0 0 100.6 103.6"><defs><style>.cls-1,.cls-2{fill:none;stroke:#231f20;stroke-miterlimit:10;}.cls-2{stroke-width:0.5px;}</style></defs><g id="Layer_2" data-name="Layer 2"><g id="Layer_1-2" data-name="Layer 1"><polygon class="cls-1" points="2.8 70.9 13.2 83.5 22.4 94.8 49.4 52.7 2.8 70.9"/><line class="cls-1" x1="2.8" y1="70.9" x2="49.4" y2="52.7"/><circle class="cls-1" cx="11.9" cy="73.9" r="3.4"/><circle class="cls-1" cx="21.9" cy="87.3" r="1.9"/><circle class="cls-1" cx="24.3" cy="75.2" r="4.3"/><circle class="cls-1" cx="33.4" cy="67.1" r="1.8"/><path class="cls-2" d="M14,76.6s3.9-6,7,1.2-.4,8.1-.4,8.1L27.5,78l5.9-9.1s-9.6-8-21.5,1.7"/><circle class="cls-2" cx="43.4" cy="57.9" r="1.3"/><circle class="cls-2" cx="39.1" cy="62.2" r="3"/><circle class="cls-2" cx="30.5" cy="62" r="1"/><circle class="cls-2" cx="35.4" cy="70.7" r="0.2"/><polygon class="cls-1" points="0.7 39.4 1.6 55.7 2.5 70.2 49.1 52 0.7 39.4"/><line class="cls-1" x1="0.7" y1="39.4" x2="49.1" y2="52"/><circle class="cls-1" cx="6.2" cy="47.1" r="3.4"/><circle class="cls-1" cx="6.5" cy="63.9" r="1.9"/><circle class="cls-1" cx="15.5" cy="55.4" r="4.3"/><circle class="cls-1" cx="27.6" cy="54.3" r="1.8"/><path class="cls-2" d="M6.3,50.5s6.7-2.5,5,5.1-5,6.4-5,6.4l10.1-2.4,10.1-3.9s-3-12.1-18.3-11.3"/><circle class="cls-2" cx="41.1" cy="52.7" r="1.3"/><circle class="cls-2" cx="35.1" cy="53.6" r="3"/><circle class="cls-2" cx="28.3" cy="48.4" r="1"/><circle class="cls-2" cx="27.1" cy="58.4" r="0.2"/><polygon class="cls-1" points="17.4 12.6 8.6 26.4 0.8 38.6 49.2 51.2 17.4 12.6"/><line class="cls-1" x1="17.4" y1="12.6" x2="49.2" y2="51.2"/><circle class="cls-1" cx="17.4" cy="22.1" r="3.4"/><circle class="cls-1" cx="7.7" cy="35.8" r="1.9"/><circle class="cls-1" cx="20" cy="34.3" r="4.3"/><circle class="cls-1" cx="30.5" cy="40.5" r="1.8"/><path class="cls-2" d="M15.5,24.9s6.9,1.9,1,7.1-7.8,2.2-7.8,2.2l9.6,4L28.7,41s4.7-11.6-8.2-19.9"/><circle class="cls-2" cx="42.3" cy="47.1" r="1.3"/><circle class="cls-2" cx="36.9" cy="44.4" r="3"/><circle class="cls-2" cx="34.5" cy="36.2" r="1"/><circle class="cls-2" cx="27.7" cy="43.5" r="0.2"/><polygon class="cls-1" points="46.7 0.8 31.5 6.7 18 12.1 49.7 50.7 46.7 0.8"/><line class="cls-1" x1="46.7" y1="0.8" x2="49.7" y2="50.7"/><circle class="cls-1" cx="41.1" cy="8.5" r="3.4"/><circle class="cls-1" cx="25.2" cy="13.9" r="1.9"/><circle class="cls-1" cx="36.1" cy="19.9" r="4.3"/><circle class="cls-1" cx="40.9" cy="31" r="1.8"/><path class="cls-2" d="M37.9,9.6s4.5,5.5-3.3,6.3-7.7-2.8-7.7-2.8L32.4,22l6.8,8.4s10.6-6.7,5-20.9"/><circle class="cls-2" cx="46.6" cy="43.3" r="1.3"/><circle class="cls-2" cx="43.8" cy="38" r="3"/><circle class="cls-2" cx="46.7" cy="29.8" r="1"/><circle class="cls-2" cx="36.9" cy="31.8" r="0.2"/><polygon class="cls-1" points="77.4 8.4 61.6 4.3 47.5 0.7 50.5 50.6 77.4 8.4"/><line class="cls-1" x1="77.4" y1="8.4" x2="50.5" y2="50.6"/><circle class="cls-1" cx="68.3" cy="11.3" r="3.4"/><circle class="cls-1" cx="52.3" cy="6.4" r="1.9"/><circle class="cls-1" cx="57.5" cy="17.6" r="4.3"/><circle class="cls-1" cx="54.9" cy="29.5" r="1.8"/><path class="cls-2" d="M65.1,10.4s.3,7.1-6.5,3.1-4.5-6.7-4.5-6.7l-.8,10.3L53.8,28s12.6.8,16.5-14"/><circle class="cls-2" cx="52.2" cy="42.7" r="1.3"/><circle class="cls-2" cx="53.2" cy="36.8" r="3"/><circle class="cls-2" cx="60.2" cy="31.9" r="1"/><circle class="cls-2" cx="51.2" cy="27.7" r="0.2"/><polygon class="cls-1" points="97.7 32.6 87.3 20 78 8.8 51.2 50.9 97.7 32.6"/><line class="cls-1" x1="97.7" y1="32.6" x2="51.2" y2="50.9"/><circle class="cls-1" cx="88.6" cy="29.6" r="3.4"/><circle class="cls-1" cx="78.6" cy="16.2" r="1.9"/><circle class="cls-1" cx="76.2" cy="28.4" r="4.3"/><circle class="cls-1" cx="67.2" cy="36.4" r="1.8"/><path class="cls-2" d="M86.6,27s-3.9,5.9-7.1-1.3.4-8.1.4-8.1l-6.8,7.9-5.9,9.1s9.6,8,21.4-1.6"/><circle class="cls-2" cx="57.2" cy="45.6" r="1.3"/><circle class="cls-2" cx="61.4" cy="41.4" r="3"/><circle class="cls-2" cx="70" cy="41.6" r="1"/><circle class="cls-2" cx="65.2" cy="32.8" r="0.2"/><polygon class="cls-1" points="99.9 64.1 98.9 47.8 98 33.3 51.5 51.6 99.9 64.1"/><line class="cls-1" x1="99.9" y1="64.1" x2="51.5" y2="51.6"/><circle class="cls-1" cx="94.4" cy="56.4" r="3.4"/><circle class="cls-1" cx="94.1" cy="39.6" r="1.9"/><circle class="cls-1" cx="85" cy="48.1" r="4.3"/><circle class="cls-1" cx="73" cy="49.3" r="1.8"/><path class="cls-2" d="M94.2,53s-6.6,2.5-4.9-5.1,5-6.4,5-6.4L84.1,43.9,74,47.8s3.1,12.1,18.4,11.3"/><circle class="cls-2" cx="59.5" cy="50.9" r="1.3"/><circle class="cls-2" cx="65.4" cy="49.9" r="3"/><circle class="cls-2" cx="72.3" cy="55.1" r="1"/><circle class="cls-2" cx="73.5" cy="45.2" r="0.2"/><polygon class="cls-1" points="83.2 90.9 92 77.1 99.8 64.9 51.4 52.4 83.2 90.9"/><line class="cls-1" x1="83.2" y1="90.9" x2="51.4" y2="52.4"/><circle class="cls-1" cx="83.3" cy="81.4" r="3.4"/><circle class="cls-1" cx="92.8" cy="67.7" r="1.9"/><circle class="cls-1" cx="80.6" cy="69.2" r="4.3"/><circle class="cls-1" cx="70.1" cy="63.1" r="1.8"/><path class="cls-2" d="M85.1,78.6s-6.8-1.9-1-7.1,7.8-2.2,7.8-2.2l-9.6-4L71.9,62.5s-4.7,11.7,8.2,19.9"/><circle class="cls-2" cx="58.3" cy="56.4" r="1.3"/><circle class="cls-2" cx="63.6" cy="59.2" r="3"/><circle class="cls-2" cx="66.1" cy="67.4" r="1"/><circle class="cls-2" cx="72.9" cy="60.1" r="0.2"/><polygon class="cls-1" points="53.9 102.8 69.1 96.8 82.7 91.5 50.8 52.9 53.9 102.8"/><line class="cls-1" x1="53.9" y1="102.8" x2="50.8" y2="52.9"/><circle class="cls-1" cx="59.6" cy="95.1" r="3.4"/><circle class="cls-1" cx="75.4" cy="89.7" r="1.9"/><circle class="cls-1" cx="64.6" cy="83.7" r="4.3"/><circle class="cls-1" cx="59.7" cy="72.6" r="1.8"/><path class="cls-2" d="M62.7,94s-4.4-5.6,3.4-6.3,7.6,2.8,7.6,2.8l-5.4-8.9-6.9-8.5s-10.6,6.7-5,21"/><circle class="cls-2" cx="54" cy="60.3" r="1.3"/><circle class="cls-2" cx="56.8" cy="65.6" r="3"/><circle class="cls-2" cx="53.9" cy="73.7" r="1"/><circle class="cls-2" cx="63.7" cy="71.8" r="0.2"/><polygon class="cls-1" points="23.3 95.2 39.1 99.3 53.2 102.9 50.1 53 23.3 95.2"/><line class="cls-1" x1="23.3" y1="95.2" x2="50.1" y2="53"/><circle class="cls-1" cx="32.4" cy="92.3" r="3.4"/><circle class="cls-1" cx="48.4" cy="97.2" r="1.9"/><circle class="cls-1" cx="43.1" cy="86" r="4.3"/><circle class="cls-1" cx="45.7" cy="74.1" r="1.8"/><path class="cls-2" d="M35.6,93.2s-.4-7.1,6.4-3.1,4.5,6.7,4.5,6.7l.8-10.4-.5-10.8s-12.5-.8-16.4,14"/><circle class="cls-2" cx="48.3" cy="60.8" r="1.3"/><circle class="cls-2" cx="47.4" cy="66.8" r="3"/><circle class="cls-2" cx="40.4" cy="71.7" r="1"/><circle class="cls-2" cx="49.4" cy="75.9" r="0.2"/></g></g></svg>